{"glyphs":{"0":{"ha":974,"x_min":68,"x_max":936,"o":"m 852 660 q 915 566 894 619 q 936 452 936 513 q 894 261 936 350 q 783 111 852 172 q 620 12 711 47 q 420 -23 528 -23 q 267 1 333 -23 q 157 65 200 25 q 91 159 113 105 q 68 275 68 212 q 103 453 68 370 q 206 605 138 536 q 369 711 272 671 q 584 752 466 752 q 742 727 675 752 q 852 660 809 701 m 621 194 q 673 351 655 267 q 691 528 691 436 q 685 595 691 567 q 663 647 678 624 q 627 683 649 669 q 572 696 604 696 q 470 655 518 696 q 380 527 422 615 q 330 371 347 456 q 313 203 313 286 q 319 134 313 161 q 340 82 326 106 q 377 46 354 60 q 433 33 400 33 q 538 77 490 33 q 621 194 587 121 z "},"1":{"ha":680,"x_min":-2,"x_max":576,"o":"m 557 0 l -2 0 l 9 49 q 75 56 30 50 q 138 66 121 61 q 175 90 158 73 q 197 134 191 106 l 298 570 l 127 570 l 141 631 l 160 631 q 269 644 220 631 q 353 675 317 657 q 417 715 390 694 q 457 751 444 736 l 576 751 q 548 646 562 700 q 522 542 534 593 l 432 154 q 428 135 430 146 q 427 117 427 124 q 434 90 427 101 q 454 72 441 79 q 508 57 469 64 q 568 49 547 50 l 557 0 z "},"2":{"ha":870,"x_min":-11,"x_max":829,"o":"m 235 688 q 346 734 279 717 q 492 752 412 752 q 738 699 647 752 q 829 541 829 646 q 801 431 829 475 q 712 354 772 386 q 582 304 660 326 q 400 260 504 282 q 290 231 342 248 q 195 194 238 214 l 192 183 l 766 183 l 724 0 l -11 0 l 20 136 q 75 174 44 155 q 137 212 105 194 q 227 259 181 238 q 307 296 273 281 q 442 361 395 335 q 517 416 489 387 q 563 486 551 450 q 574 562 574 522 q 541 656 574 625 q 452 688 508 688 q 388 681 412 688 q 342 665 363 673 q 362 608 352 639 q 372 541 372 576 q 339 461 372 493 q 252 430 306 430 q 171 463 201 430 q 141 544 141 496 q 165 619 141 581 q 235 688 189 657 z "},"3":{"ha":867,"x_min":-27,"x_max":833,"o":"m 521 752 q 678 732 617 752 q 772 683 739 712 q 820 618 806 654 q 833 552 833 583 q 817 477 833 517 q 766 402 801 437 q 675 337 732 367 q 536 291 618 307 l 533 280 q 619 267 577 279 q 691 235 661 255 q 745 176 724 212 q 766 87 766 139 q 727 -51 766 12 q 621 -158 688 -114 q 467 -228 549 -205 q 279 -250 385 -250 q 57 -192 142 -250 q -27 -47 -27 -134 q 4 34 -27 1 q 86 67 35 67 q 173 37 140 67 q 205 -42 205 6 q 194 -111 205 -77 q 175 -165 183 -145 q 212 -181 191 -174 q 264 -188 234 -188 q 353 -169 309 -188 q 430 -114 397 -150 q 487 -22 467 -74 q 507 113 507 30 q 479 201 507 165 q 372 236 451 236 l 286 236 l 304 315 l 366 315 q 523 383 464 315 q 582 570 582 450 q 553 656 582 624 q 463 688 525 688 q 400 680 433 688 q 345 659 367 671 q 363 602 353 636 q 373 538 373 568 q 341 460 373 490 q 256 430 309 430 q 175 463 205 430 q 144 544 144 496 q 253 687 144 623 q 521 752 362 752 z "},"4":{"ha":902,"x_min":-15,"x_max":844,"o":"m 812 7 l 661 7 l 602 -250 l 378 -250 l 438 7 l -15 7 l 15 138 l 637 748 l 832 748 l 693 147 l 844 147 l 812 7 m 470 147 l 572 583 l 127 147 l 470 147 z "},"5":{"ha":832,"x_min":-26,"x_max":850,"o":"m 292 -250 q 66 -191 158 -250 q -26 -51 -26 -132 q 5 31 -26 -3 q 87 64 36 64 q 174 34 141 64 q 207 -45 207 3 q 195 -117 207 -79 q 176 -176 184 -155 q 215 -183 188 -179 q 269 -188 242 -188 q 344 -166 303 -188 q 418 -102 385 -144 q 475 -2 454 -58 q 497 136 497 54 q 458 257 497 212 q 349 302 420 302 q 288 294 315 302 q 236 271 261 285 q 192 241 210 256 q 153 206 174 227 l 103 224 l 277 730 l 850 730 l 807 544 l 289 544 l 215 315 q 330 369 278 353 q 444 385 382 385 q 550 373 499 385 q 648 331 601 362 q 722 253 694 300 q 750 138 750 205 q 615 -138 750 -25 q 292 -250 481 -250 z "},"6":{"ha":900,"x_min":71,"x_max":857,"o":"m 404 -24 q 161 62 252 -24 q 71 291 71 149 q 274 757 71 563 q 811 989 477 951 l 814 922 l 741 909 q 592 847 655 887 q 484 759 528 807 q 411 653 441 711 q 359 530 382 595 q 467 594 404 568 q 618 620 530 620 q 788 552 720 620 q 857 376 857 484 q 726 95 857 214 q 404 -24 595 -24 m 605 373 q 572 486 605 444 q 490 527 540 527 q 414 512 450 527 q 338 451 378 496 q 321 370 334 430 q 309 222 309 310 q 339 83 309 133 q 417 33 368 33 q 549 132 493 33 q 605 373 605 231 z "},"7":{"ha":787,"x_min":45,"x_max":874,"o":"m 854 643 l 161 -250 l 45 -250 l 688 548 l 380 548 q 289 547 325 548 q 224 534 252 546 q 179 491 202 524 q 131 396 156 457 l 81 396 l 159 730 l 874 730 l 854 643 z "},"8":{"ha":939,"x_min":60,"x_max":924,"o":"m 924 784 q 858 632 924 694 q 673 536 791 570 q 830 436 779 495 q 880 307 880 378 q 747 71 880 166 q 404 -25 613 -25 q 153 37 247 -25 q 60 200 60 99 q 128 367 60 298 q 337 467 197 435 q 218 566 254 507 q 182 690 182 625 q 215 809 182 753 q 309 905 249 864 q 447 967 366 944 q 613 990 529 990 q 840 931 755 990 q 924 784 924 873 m 700 796 q 671 895 700 856 q 589 933 643 933 q 468 880 518 933 q 418 753 418 827 q 435 692 418 718 q 479 646 451 666 q 547 605 502 629 q 629 560 592 581 q 679 671 658 606 q 700 796 700 737 m 641 229 q 621 296 641 269 q 566 346 600 323 q 479 393 529 370 q 381 443 429 417 q 318 342 349 410 q 288 198 288 274 q 328 77 288 121 q 435 33 368 33 q 584 91 528 33 q 641 229 641 149 z "},"9":{"ha":900,"x_min":77,"x_max":864,"o":"m 864 435 q 663 -24 864 163 q 121 -254 461 -210 l 117 -187 l 192 -175 q 342 -114 279 -152 q 450 -27 406 -76 q 527 80 494 21 q 578 198 559 140 q 451 128 512 148 q 318 109 390 109 q 146 181 216 109 q 77 362 77 253 q 209 637 77 522 q 530 752 340 752 q 773 665 682 752 q 864 435 864 578 m 626 506 q 596 645 626 595 q 521 695 567 695 q 387 599 444 695 q 330 361 330 503 q 361 244 330 288 q 442 200 392 200 q 521 217 481 200 q 597 275 561 233 q 614 354 602 297 q 626 506 626 412 z "}," ":{"ha":353,"x_min":0,"x_max":0,"o":""},"!":{"ha":523,"x_min":84,"x_max":514,"o":"m 473 750 q 392 573 444 688 q 285 313 340 458 l 233 313 q 240 593 241 486 q 240 747 240 699 q 241 810 240 787 q 248 857 243 833 q 309 950 262 919 q 408 981 355 981 q 484 954 454 981 q 514 884 514 926 q 505 831 514 863 q 473 750 496 800 m 345 106 q 306 17 345 54 q 215 -20 267 -20 q 123 17 162 -20 q 84 106 84 54 q 123 195 84 157 q 215 233 162 233 q 306 195 267 233 q 345 106 345 157 z "},"\"":{"ha":708,"x_min":214,"x_max":766,"o":"m 399 827 q 336 707 372 774 q 266 558 301 640 l 220 558 q 217 761 220 684 q 214 891 214 838 q 251 994 214 951 q 349 1037 289 1037 q 419 1013 393 1037 q 446 954 446 989 q 434 904 446 934 q 399 827 422 874 m 720 827 q 657 707 692 774 q 587 558 622 640 l 541 558 q 538 761 541 684 q 534 891 534 838 q 572 994 534 951 q 669 1037 610 1037 q 740 1013 714 1037 q 766 954 766 989 q 755 904 766 934 q 720 827 744 874 z "},"#":{"ha":977,"x_min":115,"x_max":905,"o":"m 905 507 l 723 507 l 655 333 l 840 333 l 840 224 l 613 224 l 525 0 l 424 0 l 512 224 l 356 224 l 268 0 l 167 0 l 255 224 l 115 224 l 115 333 l 297 333 l 366 507 l 180 507 l 180 616 l 408 616 l 498 847 l 600 847 l 509 616 l 665 616 l 755 847 l 857 847 l 766 616 l 905 616 l 905 507 m 624 509 l 466 509 l 397 332 l 555 332 l 624 509 z "},"$":{"ha":890,"x_min":34,"x_max":869,"o":"m 459 553 l 520 829 q 371 780 422 821 q 320 677 320 739 q 355 593 320 625 q 459 553 389 562 m 635 212 q 595 305 635 271 q 481 347 555 339 l 414 44 q 578 98 522 54 q 635 212 635 141 m 347 44 l 415 353 q 218 427 291 369 q 146 577 146 485 q 167 677 146 629 q 238 774 188 726 q 360 848 283 817 q 532 886 436 880 l 566 1034 l 633 1034 l 600 886 q 800 830 730 880 q 869 699 869 781 q 841 620 869 652 q 765 587 813 587 q 684 617 713 587 q 655 692 655 646 q 666 755 655 725 q 683 805 677 786 q 642 821 665 814 q 587 829 618 827 l 525 547 q 735 466 662 526 q 808 311 808 407 q 774 177 808 235 q 686 80 741 119 q 554 16 628 39 q 402 -12 481 -7 l 360 -203 l 293 -203 l 335 -12 q 115 53 197 -9 q 34 199 34 115 q 62 281 34 248 q 142 313 90 313 q 227 283 196 313 q 258 205 258 254 q 247 138 258 172 q 228 85 235 104 q 290 54 261 64 q 347 44 319 44 z "},"%":{"ha":1221,"x_min":93,"x_max":1183,"o":"m 668 777 q 577 569 668 654 q 357 483 486 483 q 192 542 256 483 q 127 696 127 601 q 219 905 127 820 q 438 990 311 990 q 604 931 540 990 q 668 777 668 872 m 495 827 q 480 912 495 882 q 429 942 465 942 q 336 856 372 942 q 300 642 300 769 q 316 560 300 589 q 368 531 332 531 q 459 615 422 531 q 495 827 495 700 m 1147 270 q 1057 62 1147 148 q 837 -24 966 -24 q 671 35 736 -24 q 607 190 607 94 q 699 398 607 313 q 918 484 791 484 q 1083 425 1019 484 q 1147 270 1147 366 m 975 320 q 960 406 975 376 q 909 435 945 435 q 816 349 852 435 q 780 136 780 262 q 795 54 780 83 q 847 24 811 24 q 938 109 902 24 q 975 320 975 193 m 1183 968 l 198 0 l 93 0 l 1076 968 l 1183 968 z "},"&":{"ha":1110,"x_min":9,"x_max":1149,"o":"m 1036 0 l 639 0 q 609 45 625 22 q 575 100 593 68 q 411 2 481 28 q 262 -24 342 -24 q 79 33 148 -24 q 9 184 9 90 q 31 293 9 244 q 93 385 52 342 q 193 459 132 425 q 325 521 254 493 q 275 624 291 579 q 260 710 260 669 q 354 909 260 830 q 583 988 449 988 q 738 947 679 988 q 798 831 798 905 q 740 687 798 753 q 560 560 682 622 q 648 411 610 471 q 724 290 686 351 q 825 421 785 355 q 865 511 865 488 q 837 540 865 528 q 759 562 808 551 l 770 610 l 1149 610 l 1138 562 q 1043 545 1073 555 q 980 508 1013 535 q 936 461 962 493 q 888 401 911 430 q 826 324 865 372 q 753 243 787 277 q 831 136 802 168 q 882 89 860 103 q 956 63 908 73 q 1048 51 1004 54 l 1036 0 m 688 826 q 664 897 688 871 q 597 923 639 923 q 510 888 548 923 q 472 794 472 854 q 488 713 472 755 q 537 606 504 671 q 650 709 612 649 q 688 826 688 769 m 549 144 q 443 317 503 218 q 347 477 382 416 q 264 376 291 432 q 237 262 237 320 q 282 142 237 189 q 404 96 328 96 q 476 105 446 96 q 549 144 506 115 z "},"'":{"ha":374,"x_min":207,"x_max":439,"o":"m 392 827 q 330 707 365 774 q 259 558 294 640 l 214 558 q 210 761 214 684 q 207 891 207 838 q 244 994 207 951 q 342 1037 282 1037 q 413 1013 387 1037 q 439 954 439 989 q 428 904 439 934 q 392 827 416 874 z "},"(":{"ha":621,"x_min":62,"x_max":724,"o":"m 452 -222 q 307 -180 377 -212 q 181 -92 236 -149 q 95 46 127 -35 q 62 235 62 127 q 120 551 62 404 q 282 807 178 699 q 496 966 376 907 q 724 1039 616 1025 l 710 978 q 544 888 625 963 q 402 694 463 814 q 313 441 345 581 q 281 159 281 300 q 326 -59 281 26 q 466 -163 371 -144 l 452 -222 z "},")":{"ha":621,"x_min":-85,"x_max":576,"o":"m 186 1039 q 332 997 262 1029 q 458 908 403 965 q 544 771 512 852 q 576 582 576 690 q 518 265 576 412 q 357 9 460 118 q 142 -149 262 -90 q -85 -222 23 -208 l -71 -161 q 95 -72 14 -146 q 237 122 176 3 q 326 375 294 235 q 357 657 357 516 q 313 876 357 791 q 173 979 268 961 l 186 1039 z "},"*":{"ha":669,"x_min":143,"x_max":703,"o":"m 703 734 q 686 690 703 704 q 642 676 669 676 q 572 691 625 676 q 459 713 519 706 q 546 616 498 662 q 593 539 593 571 q 574 500 593 517 q 532 484 554 484 q 505 492 517 484 q 482 516 492 500 q 460 584 473 531 q 423 692 446 637 q 386 583 401 640 q 364 516 372 527 q 342 491 353 499 q 314 484 331 484 q 272 499 292 484 q 253 539 253 515 q 300 616 253 571 q 387 713 348 662 q 275 691 330 707 q 204 676 220 676 q 160 690 178 676 q 143 734 143 704 q 160 778 143 762 q 204 793 178 793 q 272 779 225 793 q 387 757 318 765 q 298 857 342 814 q 253 931 253 900 q 273 970 253 954 q 314 987 292 987 q 342 979 330 987 q 364 955 355 970 q 387 886 373 940 q 423 778 401 833 q 460 887 446 833 q 482 955 474 941 q 504 978 490 969 q 532 987 517 987 q 574 971 555 987 q 593 931 593 955 q 551 858 593 900 q 460 757 509 817 q 576 779 528 766 q 642 793 625 793 q 686 778 669 793 q 703 734 703 762 z "},"+":{"ha":977,"x_min":111,"x_max":865,"o":"m 865 334 l 544 334 l 544 14 l 432 14 l 432 334 l 111 334 l 111 445 l 432 445 l 432 766 l 544 766 l 544 445 l 865 445 l 865 334 z "},",":{"ha":456,"x_min":29,"x_max":347,"o":"m 347 90 q 260 -114 347 -16 q 51 -264 174 -212 l 29 -216 q 100 -178 71 -195 q 161 -130 129 -161 q 209 -73 188 -104 q 240 0 229 -41 l 200 0 q 107 25 137 0 q 77 94 77 50 q 120 189 77 147 q 218 231 162 231 q 315 191 284 231 q 347 90 347 152 z "},"-":{"ha":526,"x_min":44,"x_max":489,"o":"m 455 295 l 44 295 l 78 444 l 489 444 l 455 295 z "},".":{"ha":456,"x_min":74,"x_max":342,"o":"m 342 113 q 302 20 342 59 q 208 -20 262 -20 q 114 19 153 -20 q 74 113 74 58 q 114 207 74 167 q 208 246 153 246 q 302 206 262 246 q 342 113 342 166 z "},"/":{"ha":655,"x_min":-101,"x_max":724,"o":"m 724 1033 l 23 -288 l -101 -288 l 599 1033 l 724 1033 z "},":":{"ha":510,"x_min":94,"x_max":457,"o":"m 457 542 q 417 449 457 488 q 323 410 378 410 q 229 449 269 410 q 189 542 189 488 q 229 636 189 596 q 323 675 269 675 q 417 635 378 675 q 457 542 457 595 m 362 113 q 322 20 362 59 q 229 -20 283 -20 q 134 19 174 -20 q 94 113 94 58 q 134 207 94 167 q 229 246 174 246 q 322 206 283 246 q 362 113 362 166 z "},";":{"ha":510,"x_min":50,"x_max":457,"o":"m 367 90 q 281 -114 367 -16 q 71 -264 195 -212 l 50 -216 q 120 -178 91 -195 q 181 -130 149 -161 q 229 -73 208 -104 q 260 0 250 -41 l 220 0 q 127 25 157 0 q 98 94 98 50 q 140 189 98 147 q 238 231 182 231 q 336 191 304 231 q 367 90 367 152 m 457 542 q 417 449 457 488 q 323 410 378 410 q 229 449 269 410 q 189 542 189 488 q 229 636 189 596 q 323 675 269 675 q 417 635 378 675 q 457 542 457 595 z "},"<":{"ha":977,"x_min":157,"x_max":835,"o":"m 835 4 l 157 343 l 157 437 l 835 777 l 835 649 l 302 390 l 835 132 l 835 4 z "},"=":{"ha":977,"x_min":140,"x_max":866,"o":"m 866 475 l 140 475 l 140 585 l 866 585 l 866 475 m 866 194 l 140 194 l 140 304 l 866 304 l 866 194 z "},">":{"ha":977,"x_min":172,"x_max":850,"o":"m 850 343 l 172 4 l 172 132 l 705 390 l 172 649 l 172 777 l 850 437 l 850 343 z "},"?":{"ha":762,"x_min":144,"x_max":781,"o":"m 405 106 q 366 17 405 54 q 275 -20 327 -20 q 183 17 222 -20 q 144 106 144 54 q 183 195 144 157 q 275 233 222 233 q 366 195 327 233 q 405 106 405 157 m 488 985 q 697 919 614 985 q 781 742 781 852 q 665 494 781 590 q 355 385 548 399 l 336 293 l 277 293 l 330 557 q 521 624 448 566 q 593 789 593 682 q 558 891 593 855 q 461 927 524 927 q 412 920 435 927 q 365 898 388 912 q 379 846 372 876 q 386 791 386 817 q 354 714 386 743 q 269 686 323 686 q 191 715 220 686 q 161 789 161 745 q 257 928 161 871 q 488 985 353 985 z "},"@":{"ha":1343,"x_min":121,"x_max":1255,"o":"m 1138 795 q 1225 653 1196 733 q 1255 486 1255 572 q 1158 197 1255 315 q 918 78 1061 78 q 795 103 843 78 q 733 168 747 129 l 730 168 q 697 134 714 151 q 660 105 680 117 q 619 87 638 93 q 568 81 600 81 q 438 134 485 81 q 392 273 392 186 q 419 407 392 338 q 494 532 447 475 q 605 623 540 587 q 741 659 671 659 q 811 642 787 659 q 847 591 836 625 l 848 591 l 870 650 l 1044 650 l 908 274 q 899 236 903 260 q 894 199 894 212 q 906 155 894 171 q 945 139 918 139 q 1116 237 1051 139 q 1180 494 1180 335 q 1154 640 1180 573 q 1075 758 1127 707 q 944 837 1023 808 q 764 865 865 865 q 577 829 667 865 q 412 722 486 793 q 295 554 340 653 q 251 332 251 455 q 286 121 251 212 q 383 -31 321 30 q 530 -124 446 -93 q 715 -155 614 -155 q 921 -125 831 -155 q 1081 -40 1010 -95 l 1107 -82 q 933 -181 1030 -144 q 711 -219 837 -219 q 497 -184 604 -219 q 307 -83 389 -150 q 172 86 223 -16 q 121 323 121 189 q 167 552 121 442 q 298 747 213 661 q 504 882 381 831 q 770 934 626 934 q 988 896 898 934 q 1138 795 1079 859 m 820 515 q 801 576 819 553 q 748 600 783 600 q 683 570 714 600 q 626 490 651 539 q 587 378 601 441 q 572 255 572 315 q 586 184 572 209 q 628 160 599 160 q 674 173 654 160 q 716 216 694 186 l 820 515 z "},"A":{"ha":1053,"x_min":-118,"x_max":1023,"o":"m 605 387 l 546 738 l 326 387 l 605 387 m 496 0 l 508 50 q 617 67 578 55 q 656 93 656 79 q 654 114 656 105 q 651 134 653 123 l 617 323 l 286 323 q 244 257 269 298 q 203 187 220 216 q 173 124 177 141 q 168 102 168 107 q 200 69 168 82 q 298 50 232 56 l 286 0 l -118 0 l -106 50 q -57 56 -87 51 q -7 73 -27 62 q 47 111 22 87 q 94 169 72 135 q 347 560 231 380 q 614 976 462 739 l 748 976 q 834 473 800 672 q 895 141 869 275 q 908 104 898 121 q 939 73 918 87 q 979 56 956 62 q 1023 50 1002 51 l 1011 0 l 496 0 z "},"B":{"ha":1055,"x_min":-37,"x_max":1034,"o":"m 767 774 q 725 873 767 842 q 613 904 682 904 q 581 903 600 904 q 553 901 563 902 l 469 539 l 514 539 q 699 604 631 539 q 767 774 767 669 m 714 318 q 664 438 714 396 q 515 479 614 479 q 482 478 502 479 q 454 477 462 477 l 372 119 q 409 76 372 94 q 490 58 446 58 q 647 131 581 58 q 714 318 714 203 m 696 962 q 952 919 870 962 q 1034 787 1034 876 q 1007 684 1034 728 q 939 608 981 639 q 840 556 896 577 q 724 523 784 535 l 722 510 q 817 490 768 505 q 900 451 865 475 q 959 390 937 426 q 981 302 981 354 q 856 77 981 154 q 489 0 732 0 l -37 0 l -26 50 q 25 55 -9 50 q 75 64 58 59 q 115 91 101 73 q 134 132 129 109 l 290 805 q 294 829 293 819 q 296 843 296 838 q 267 887 296 871 q 173 913 238 903 l 184 962 l 696 962 z "},"C":{"ha":994,"x_min":59,"x_max":1065,"o":"m 489 -26 q 317 2 396 -26 q 180 81 237 29 q 91 207 123 132 q 59 374 59 281 q 105 608 59 498 q 234 804 151 718 q 430 938 314 887 q 675 988 545 988 q 835 969 754 988 q 956 925 916 950 l 1006 962 l 1065 962 l 990 611 l 930 611 q 849 845 917 765 q 673 926 781 926 q 528 879 595 926 q 410 735 462 832 q 346 550 368 655 q 324 352 324 444 q 390 141 324 216 q 566 66 456 66 q 746 120 663 66 q 905 277 829 174 l 958 241 q 878 140 924 190 q 773 54 832 90 q 646 -5 711 15 q 489 -26 581 -26 z "},"D":{"ha":1158,"x_min":-37,"x_max":1143,"o":"m 982 884 q 1100 762 1057 838 q 1143 583 1143 686 q 1092 345 1143 454 q 948 159 1041 236 q 734 41 856 82 q 465 0 612 0 l -37 0 l -26 50 q 25 54 -9 50 q 75 63 58 58 q 115 90 101 72 q 134 132 129 109 l 290 805 q 294 829 293 819 q 296 843 296 838 q 267 887 296 871 q 173 913 238 903 l 184 962 l 677 962 q 834 944 753 962 q 982 884 914 926 m 781 237 q 852 415 829 319 q 876 617 876 512 q 816 826 876 749 q 636 904 756 904 q 589 903 612 904 q 552 901 566 902 l 386 179 q 381 154 383 169 q 379 134 379 140 q 411 75 379 91 q 499 58 442 58 q 663 107 591 58 q 781 237 734 156 z "},"E":{"ha":1002,"x_min":-37,"x_max":1031,"o":"m 1031 962 l 975 717 l 923 717 q 877 835 913 781 q 801 898 841 889 q 746 904 782 903 q 686 905 710 905 l 553 905 l 467 528 l 559 528 q 638 539 610 528 q 692 571 667 551 q 737 627 711 587 q 773 696 762 667 l 825 696 l 732 294 l 680 294 l 680 319 q 674 382 680 350 q 659 427 667 414 q 612 461 641 453 q 545 470 583 470 l 453 470 l 391 202 q 382 158 387 182 q 378 124 378 134 q 407 70 378 81 q 512 58 435 58 q 654 67 610 58 q 722 93 699 75 q 819 197 762 127 q 897 300 876 267 l 946 300 l 859 0 l -37 0 l -26 50 q 25 54 -9 50 q 75 63 58 58 q 115 90 101 72 q 134 132 129 109 l 290 805 q 294 829 293 819 q 296 843 296 838 q 267 887 296 871 q 173 913 238 903 l 184 962 l 1031 962 z "},"F":{"ha":932,"x_min":-37,"x_max":1050,"o":"m 1050 962 l 990 705 l 938 705 q 894 831 930 769 q 818 898 858 892 q 765 903 798 901 q 703 905 732 905 l 553 905 l 465 522 l 560 522 q 630 531 597 522 q 694 566 663 541 q 740 622 715 583 q 775 690 765 661 l 827 690 l 733 286 l 682 286 l 682 307 q 675 374 682 342 q 660 418 668 406 q 617 452 644 441 q 547 463 590 463 l 452 463 l 380 153 q 375 132 377 142 q 374 116 374 121 q 399 71 374 85 q 494 50 424 57 l 483 0 l -37 0 l -26 50 q 25 55 -9 50 q 75 64 58 59 q 115 91 101 73 q 134 132 129 109 l 290 805 q 294 829 293 819 q 296 843 296 838 q 267 887 296 871 q 173 913 238 903 l 184 962 l 1050 962 z "},"G":{"ha":1121,"x_min":59,"x_max":1147,"o":"m 492 -26 q 321 0 399 -26 q 184 77 242 26 q 92 201 125 127 q 59 366 59 274 q 107 615 59 501 q 240 812 155 728 q 441 942 324 895 q 694 988 558 988 q 857 968 776 988 q 979 925 938 948 l 1029 962 l 1088 962 l 1013 611 l 954 611 q 870 847 939 768 q 692 926 801 926 q 537 874 605 926 q 422 741 469 823 q 351 550 376 661 q 326 331 326 439 q 378 118 326 197 q 533 39 431 39 q 629 57 589 39 q 701 102 670 75 l 744 286 q 748 308 747 298 q 750 325 750 319 q 715 369 750 353 q 614 395 680 385 l 626 444 l 1147 444 l 1135 395 q 1086 388 1114 393 q 1042 378 1059 382 q 1000 350 1013 369 q 982 309 987 332 l 955 192 q 944 138 948 162 q 935 86 939 114 q 728 7 857 41 q 492 -26 600 -26 z "},"H":{"ha":1268,"x_min":-37,"x_max":1352,"o":"m 1352 962 l 1341 913 q 1288 906 1320 911 q 1240 896 1256 901 q 1199 868 1212 887 q 1180 827 1185 850 l 1025 153 q 1020 132 1022 142 q 1019 116 1019 121 q 1045 71 1019 85 q 1142 50 1071 56 l 1131 0 l 610 0 l 622 50 q 672 54 640 51 q 719 62 705 56 q 760 89 745 71 q 779 131 774 106 l 856 468 l 452 468 l 380 153 q 375 132 377 142 q 374 116 374 121 q 399 71 374 85 q 494 50 424 57 l 483 0 l -37 0 l -26 50 q 25 54 -9 50 q 75 63 58 58 q 115 90 101 72 q 134 132 129 109 l 290 805 q 294 829 293 819 q 296 843 296 838 q 267 887 296 871 q 173 913 238 903 l 184 962 l 705 962 l 693 913 q 642 906 672 911 q 595 896 612 901 q 553 868 566 887 q 535 827 541 848 l 468 534 l 872 534 l 935 805 q 939 829 938 819 q 941 843 941 838 q 913 887 941 871 q 821 913 885 902 l 832 962 l 1352 962 z "},"I":{"ha":626,"x_min":-41,"x_max":714,"o":"m -41 0 l -30 50 q 24 54 -10 50 q 76 64 58 58 q 116 91 102 73 q 136 132 130 109 l 291 805 q 296 829 294 819 q 297 843 297 838 q 266 887 297 871 q 169 913 234 903 l 180 962 l 714 962 l 703 913 q 647 906 681 911 q 596 896 613 901 q 555 868 568 887 q 536 827 542 850 l 381 153 q 377 132 378 142 q 375 116 375 121 q 407 69 375 82 q 504 50 438 56 l 492 0 l -41 0 z "},"J":{"ha":827,"x_min":-32,"x_max":932,"o":"m 642 293 q 583 155 624 215 q 488 56 542 95 q 373 -4 435 17 q 247 -26 311 -26 q 44 35 119 -26 q -32 199 -32 95 q 5 306 -32 264 q 105 349 43 349 q 199 314 165 349 q 232 229 232 280 q 219 176 232 201 q 174 119 206 150 l 132 80 l 132 71 q 158 46 138 55 q 199 38 178 38 q 320 97 270 38 q 396 273 370 157 l 519 805 q 524 829 522 819 q 525 843 525 838 q 495 887 525 871 q 401 913 466 903 l 412 962 l 932 962 l 920 913 q 870 906 899 911 q 825 896 842 901 q 784 870 796 887 q 765 827 772 853 l 642 293 z "},"K":{"ha":1135,"x_min":-37,"x_max":1253,"o":"m 380 153 q 375 132 377 142 q 374 116 374 121 q 399 71 374 85 q 494 50 424 57 l 483 0 l -37 0 l -26 50 q 25 54 -9 50 q 75 63 58 58 q 115 90 101 72 q 134 132 129 109 l 290 805 q 294 829 293 819 q 296 843 296 838 q 267 887 296 871 q 173 913 238 903 l 184 962 l 705 962 l 693 913 q 642 906 672 911 q 595 896 612 901 q 553 868 566 887 q 535 827 541 848 l 460 499 l 488 499 q 646 621 562 555 q 785 738 729 688 q 882 832 848 795 q 916 888 916 869 q 895 904 916 898 q 823 913 873 909 l 834 962 l 1253 962 l 1241 913 q 1107 881 1165 905 q 991 814 1049 857 q 829 685 897 743 q 687 566 762 627 q 800 380 739 478 q 934 163 861 283 q 977 105 955 128 q 1033 66 1000 82 q 1069 54 1048 58 q 1105 50 1090 50 l 1093 0 l 732 0 q 620 225 676 129 q 488 444 564 321 l 447 444 l 380 153 z "},"L":{"ha":952,"x_min":-37,"x_max":939,"o":"m 939 309 l 849 0 l -37 0 l -26 50 q 25 55 -9 50 q 75 64 58 59 q 115 91 102 73 q 134 132 129 109 l 290 805 q 294 829 293 819 q 296 843 296 838 q 267 887 296 871 q 173 913 238 903 l 184 962 l 713 962 l 702 913 q 646 906 680 911 q 595 896 612 901 q 553 868 566 887 q 535 827 541 848 l 388 187 q 380 149 383 168 q 378 120 378 130 q 407 70 378 81 q 524 58 435 58 q 632 66 578 58 q 712 96 686 75 q 806 194 754 130 q 890 309 857 257 l 939 309 z "},"M":{"ha":1435,"x_min":-60,"x_max":1523,"o":"m 1523 962 l 1512 913 q 1459 906 1491 911 q 1412 896 1428 901 q 1371 868 1384 887 q 1352 827 1358 849 l 1201 153 q 1197 133 1199 143 q 1195 116 1195 123 q 1220 71 1195 85 q 1318 50 1245 57 l 1307 0 l 787 0 l 798 50 q 854 57 825 53 q 897 66 882 61 q 940 94 925 77 q 961 139 955 111 l 1124 861 l 1117 861 l 594 16 l 509 16 q 499 101 507 42 q 484 211 491 159 l 392 872 l 385 872 l 250 283 q 237 217 241 249 q 232 159 232 184 q 238 117 232 132 q 254 92 243 102 q 307 65 268 77 q 365 50 346 52 l 353 0 l -60 0 l -49 50 q 9 59 -31 52 q 77 83 49 66 q 128 146 108 102 q 168 276 148 190 l 277 751 q 284 789 283 776 q 286 814 286 802 q 280 850 286 835 q 263 878 275 866 q 214 904 242 898 q 158 913 185 911 l 170 962 l 610 962 l 702 327 l 1017 843 q 1055 916 1038 878 q 1075 962 1072 953 l 1523 962 z "},"N":{"ha":1152,"x_min":-60,"x_max":1277,"o":"m 1277 962 l 1265 913 q 1210 906 1246 911 q 1139 879 1174 901 q 1089 816 1110 861 q 1048 685 1069 771 l 889 -5 l 775 -5 l 359 766 l 250 284 q 236 213 241 246 q 231 160 231 180 q 237 117 231 132 q 252 92 242 102 q 307 64 268 76 q 365 50 346 53 l 353 0 l -60 0 l -49 50 q 9 59 -31 52 q 77 83 49 66 q 127 145 107 102 q 168 277 148 189 l 272 730 q 278 759 275 745 q 280 785 280 773 q 275 824 280 805 q 258 858 271 842 q 211 893 239 881 q 146 913 183 906 l 158 962 l 513 962 l 877 284 l 967 678 q 981 749 977 722 q 985 800 985 777 q 980 843 985 827 q 963 871 974 860 q 910 898 948 886 q 852 913 873 909 l 864 962 l 1277 962 z "},"O":{"ha":1139,"x_min":59,"x_max":1126,"o":"m 1126 593 q 1081 358 1126 471 q 952 160 1035 244 q 753 24 867 74 q 493 -26 638 -26 q 181 83 303 -26 q 59 370 59 193 q 109 612 59 498 q 245 810 158 726 q 446 941 331 894 q 688 989 561 989 q 1003 882 880 989 q 1126 593 1126 774 m 772 238 q 840 442 818 332 q 863 659 863 552 q 815 854 863 783 q 673 926 768 926 q 525 870 591 926 q 415 726 460 814 q 347 525 370 637 q 323 302 323 413 q 370 110 323 182 q 513 37 418 37 q 662 94 595 37 q 772 238 728 151 z "},"P":{"ha":981,"x_min":-37,"x_max":1039,"o":"m 1039 760 q 1001 611 1039 677 q 890 500 962 545 q 731 435 819 456 q 538 414 644 414 l 440 414 l 380 153 q 375 132 377 142 q 374 116 374 121 q 399 71 374 85 q 497 50 424 57 l 486 0 l -37 0 l -26 50 q 25 55 -9 50 q 75 64 58 59 q 115 91 101 73 q 134 132 129 109 l 290 805 q 294 829 293 819 q 296 843 296 838 q 267 887 296 871 q 173 913 238 903 l 184 962 l 706 962 q 957 913 874 962 q 1039 760 1039 863 m 755 647 q 763 672 755 647 q 770 758 770 698 q 731 868 770 831 q 603 904 692 904 l 553 904 l 454 475 l 498 475 q 624 497 572 475 q 709 558 677 519 q 755 647 741 596 z "},"Q":{"ha":1139,"x_min":59,"x_max":1126,"o":"m 1126 593 q 1096 399 1126 494 q 1008 228 1065 304 q 871 91 951 150 q 690 3 791 33 l 690 -33 q 726 -150 690 -106 q 820 -193 761 -193 q 886 -189 850 -193 q 947 -178 922 -184 l 936 -232 q 807 -267 889 -252 q 654 -281 724 -281 q 496 -226 555 -281 q 437 -62 437 -170 l 437 -23 q 164 98 270 -5 q 59 370 59 201 q 109 612 59 498 q 245 810 158 726 q 446 941 331 894 q 688 989 561 989 q 1003 882 880 989 q 1126 593 1126 774 m 863 659 q 815 854 863 783 q 673 926 768 926 q 525 870 591 926 q 415 726 460 814 q 347 525 370 637 q 323 302 323 413 q 370 110 323 182 q 513 37 418 37 q 662 94 595 37 q 772 238 728 151 q 840 442 818 332 q 863 659 863 552 z "},"R":{"ha":1107,"x_min":-37,"x_max":1080,"o":"m 778 760 q 732 868 778 833 q 600 904 686 904 l 553 904 l 459 495 l 525 495 q 707 565 635 495 q 778 760 778 634 m 380 153 q 375 132 377 142 q 374 116 374 121 q 399 71 374 85 q 494 50 424 57 l 483 0 l -37 0 l -26 50 q 25 55 -9 50 q 75 64 58 59 q 115 91 101 73 q 134 132 129 109 l 290 805 q 294 829 293 819 q 296 843 296 838 q 267 887 296 871 q 173 913 238 903 l 184 962 l 715 962 q 963 916 880 962 q 1046 774 1046 869 q 966 586 1046 662 q 738 475 885 511 q 808 349 766 425 q 907 175 850 273 q 949 109 923 146 q 1004 62 975 72 q 1044 54 1019 57 q 1080 50 1069 50 l 1067 0 l 716 0 q 607 234 652 146 q 494 436 562 321 l 446 436 l 380 153 z "},"S":{"ha":907,"x_min":-29,"x_max":930,"o":"m 390 -26 q 229 -6 310 -26 q 87 47 148 14 l 28 0 l -29 0 l 43 348 l 101 348 q 131 242 109 297 q 187 145 153 188 q 273 72 221 101 q 393 43 326 43 q 550 91 491 43 q 609 216 609 138 q 575 304 609 267 q 467 370 542 342 q 375 402 420 387 q 291 435 331 418 q 172 530 212 469 q 132 661 132 591 q 161 783 132 724 q 245 888 190 842 q 377 961 298 933 q 551 988 456 988 q 707 965 629 988 q 821 922 784 943 l 871 962 l 930 962 l 860 634 l 802 634 q 776 743 793 692 q 730 834 760 793 q 660 897 702 873 q 557 920 617 920 q 419 874 475 920 q 364 758 364 828 q 397 673 364 709 q 503 609 431 636 q 591 577 545 593 q 679 543 637 560 q 803 454 758 510 q 848 321 848 398 q 815 185 848 249 q 722 75 782 121 q 575 0 659 26 q 390 -26 491 -26 z "},"T":{"ha":950,"x_min":83,"x_max":1079,"o":"m 1079 962 l 1015 687 l 963 687 q 952 745 960 710 q 931 813 945 779 q 900 871 917 848 q 861 899 884 895 q 809 903 840 901 q 754 905 777 905 l 720 905 l 547 157 q 543 135 545 146 q 541 120 541 125 q 548 91 541 104 q 572 71 554 79 q 619 58 588 64 q 671 50 650 52 l 659 0 l 123 0 l 134 50 q 190 55 153 51 q 242 64 227 59 q 283 94 269 75 q 302 137 296 112 l 479 905 l 453 905 q 401 904 427 905 q 342 899 375 902 q 287 869 317 895 q 229 813 257 844 q 173 744 195 775 q 135 687 151 713 l 83 687 l 146 962 l 1079 962 z "},"U":{"ha":1158,"x_min":148,"x_max":1293,"o":"m 512 -26 q 242 42 336 -26 q 148 234 148 110 q 151 278 148 256 q 159 326 153 300 l 270 806 q 275 829 273 821 q 276 843 276 837 q 249 887 276 871 q 155 913 222 903 l 166 962 l 682 962 l 670 913 q 621 907 648 911 q 576 897 595 903 q 536 870 549 889 q 517 828 523 852 l 408 354 q 397 292 401 326 q 393 237 393 259 q 443 107 393 149 q 589 66 493 66 q 791 143 706 66 q 905 349 876 221 l 981 679 q 995 751 991 721 q 1000 801 1000 781 q 994 844 1000 827 q 977 871 988 861 q 921 898 960 886 q 865 913 882 910 l 876 962 l 1293 962 l 1282 913 q 1223 904 1261 911 q 1155 879 1185 897 q 1104 817 1125 862 q 1063 686 1084 772 l 980 324 q 815 65 941 156 q 512 -26 689 -26 z "},"V":{"ha":1059,"x_min":83,"x_max":1224,"o":"m 1212 913 q 1169 904 1191 911 q 1122 884 1147 897 q 1069 849 1089 869 q 1025 795 1048 829 q 938 664 989 743 q 800 452 886 584 q 640 206 711 315 q 501 -11 570 96 l 365 -11 q 275 493 312 290 q 219 799 239 696 q 198 853 211 836 q 162 886 186 870 q 126 904 143 898 q 83 913 109 909 l 94 962 l 605 962 l 593 913 q 510 900 537 907 q 470 887 483 894 q 456 873 458 881 q 455 859 455 865 q 458 828 455 844 q 465 785 460 812 q 503 569 477 705 q 566 220 529 433 q 731 483 655 361 q 876 716 807 604 q 927 805 905 764 q 948 861 948 846 q 913 895 948 882 q 812 913 878 909 l 825 962 l 1224 962 l 1212 913 z "},"W":{"ha":1565,"x_min":99,"x_max":1729,"o":"m 1729 962 l 1716 913 q 1672 903 1694 911 q 1628 884 1649 895 q 1577 848 1596 868 q 1539 795 1559 828 q 1344 460 1472 682 q 1073 -11 1216 238 l 932 -11 l 845 700 l 454 -11 l 319 -11 q 266 467 290 243 q 230 798 242 691 q 215 851 225 833 q 178 886 204 868 q 143 904 162 898 q 99 913 124 909 l 111 962 l 614 962 l 602 913 q 526 901 553 907 q 485 888 498 895 q 471 872 473 881 q 469 855 469 864 q 470 824 469 842 q 473 785 471 806 q 493 583 479 721 q 526 261 508 445 l 905 962 l 1050 962 l 1137 239 q 1287 512 1218 385 q 1397 717 1356 638 q 1441 806 1422 765 q 1459 860 1459 848 q 1424 895 1459 881 q 1320 913 1388 908 l 1332 962 l 1729 962 z "},"X":{"ha":1114,"x_min":-81,"x_max":1215,"o":"m 1215 962 l 1204 913 q 1156 906 1177 912 q 1121 895 1135 901 q 1040 847 1076 877 q 965 783 1004 818 q 838 667 913 737 q 692 532 762 596 q 784 337 749 407 q 861 180 819 267 q 898 116 876 147 q 956 68 920 84 q 992 57 973 62 q 1045 50 1012 52 l 1034 0 l 468 0 l 479 50 q 596 66 570 55 q 623 97 623 77 q 618 125 623 108 q 598 180 614 142 q 561 268 585 212 q 505 392 536 324 q 385 278 443 335 q 289 182 328 221 q 230 114 239 132 q 220 87 220 96 q 240 64 220 74 q 321 50 261 54 l 309 0 l -81 0 l -69 50 q -26 55 -40 52 q 13 67 -12 58 q 92 113 57 86 q 170 179 127 140 q 307 305 237 240 q 473 459 378 370 q 396 623 429 556 q 319 783 363 690 q 279 848 301 819 q 221 893 258 877 q 186 906 203 901 q 134 913 169 910 l 145 962 l 712 962 l 701 913 q 601 901 646 910 q 555 864 555 891 q 560 837 555 852 q 577 790 564 822 q 609 716 591 756 q 661 599 627 677 q 779 712 729 664 q 859 794 828 761 q 910 856 905 844 q 915 876 915 868 q 911 887 915 882 q 895 898 907 892 q 863 906 882 903 q 812 913 844 910 l 824 962 l 1215 962 z "},"Y":{"ha":1017,"x_min":85,"x_max":1200,"o":"m 1200 962 l 1189 913 q 1146 905 1166 910 q 1101 886 1126 899 q 1042 847 1068 869 q 982 787 1016 824 q 859 651 899 696 q 711 479 819 606 q 640 381 652 410 q 612 283 627 353 l 583 157 q 578 135 580 146 q 576 120 576 125 q 583 91 576 104 q 607 71 589 79 q 654 58 623 64 q 706 50 686 52 l 694 0 l 158 0 l 170 50 q 225 55 189 51 q 277 64 262 59 q 317 94 303 75 q 337 137 332 113 l 377 310 q 385 343 381 329 q 388 369 388 358 q 380 406 388 383 q 361 463 373 428 q 299 638 321 578 q 241 792 278 698 q 210 851 228 827 q 170 890 192 876 q 130 906 154 901 q 85 913 106 911 l 96 962 l 634 962 l 623 913 q 518 902 553 911 q 484 873 484 892 q 490 839 484 865 q 515 752 496 812 q 555 632 529 706 q 613 471 581 559 q 770 654 699 570 q 868 771 842 738 q 926 848 918 833 q 933 869 933 863 q 901 900 933 890 q 823 913 869 910 l 834 962 l 1200 962 z "},"Z":{"ha":958,"x_min":-66,"x_max":1060,"o":"m 1060 962 l 1050 921 l 246 59 l 476 59 q 634 70 590 59 q 702 104 677 81 q 798 209 747 146 q 887 325 849 271 l 938 325 l 830 0 l -66 0 l -56 41 l 748 903 l 551 903 q 457 900 486 903 q 399 884 428 896 q 318 823 368 873 q 187 669 268 772 l 132 669 l 230 962 l 1060 962 z "},"[":{"ha":621,"x_min":-7,"x_max":728,"o":"m 441 -210 l -7 -210 l 279 1030 l 728 1030 l 713 966 l 477 966 l 221 -145 l 456 -145 l 441 -210 z "},"\\":{"ha":655,"x_min":173,"x_max":528,"o":"m 528 -288 l 410 -288 l 173 1033 l 292 1033 l 528 -288 z "},"]":{"ha":621,"x_min":-85,"x_max":650,"o":"m 364 -210 l -85 -210 l -70 -145 l 165 -145 l 422 966 l 186 966 l 201 1030 l 650 1030 l 364 -210 z "},"^":{"ha":977,"x_min":168,"x_max":863,"o":"m 863 515 l 730 515 l 515 863 l 300 515 l 168 515 l 468 987 l 563 987 l 863 515 z "},"_":{"ha":977,"x_min":-127,"x_max":874,"o":"m 856 -204 l -127 -204 l -109 -123 l 874 -123 l 856 -204 z "},"`":{"ha":694,"x_min":257,"x_max":581,"o":"m 581 772 l 550 747 q 396 844 461 806 q 304 901 331 882 q 269 935 280 919 q 257 976 257 951 q 278 1025 257 1000 q 334 1050 300 1050 q 402 1034 377 1050 q 452 979 427 1017 q 505 894 472 949 q 581 772 538 838 z "},"a":{"ha":917,"x_min":44,"x_max":901,"o":"m 515 85 l 510 85 q 465 47 486 64 q 411 14 444 31 q 351 -11 382 -1 q 281 -21 319 -21 q 104 48 163 -21 q 44 239 44 118 q 77 413 44 332 q 166 556 111 494 q 298 653 222 617 q 456 688 373 688 q 563 674 517 688 q 638 635 609 660 l 846 678 l 856 667 l 756 250 q 745 198 751 229 q 739 150 739 166 q 756 97 739 111 q 817 82 774 82 q 863 90 836 82 q 901 102 890 97 l 886 41 q 778 0 819 14 q 685 -14 738 -14 q 573 14 615 -14 q 515 85 532 41 m 596 515 q 592 550 596 530 q 578 585 588 570 q 546 611 566 602 q 497 621 526 621 q 415 588 452 621 q 348 503 377 556 q 303 379 319 450 q 287 236 287 309 q 292 174 287 203 q 309 126 297 146 q 341 94 321 105 q 393 82 362 82 q 455 101 425 82 q 509 146 484 119 l 596 515 z "},"b":{"ha":901,"x_min":73,"x_max":857,"o":"m 857 429 q 826 253 857 336 q 736 111 795 170 q 590 13 675 47 q 401 -22 505 -22 q 328 -16 376 -22 q 240 3 279 -11 q 148 51 191 20 q 73 132 105 82 l 243 863 q 247 885 245 875 q 248 902 248 895 q 240 939 248 924 q 216 963 231 954 q 179 975 200 971 q 130 982 157 979 l 142 1032 l 499 1050 l 507 1039 l 404 600 l 409 600 q 443 626 425 612 q 492 655 461 639 q 552 678 515 667 q 621 688 590 688 q 798 619 739 688 q 857 429 857 549 m 614 431 q 610 493 614 465 q 593 541 605 521 q 560 574 581 562 q 508 585 539 585 q 442 566 473 585 q 387 521 411 547 l 301 142 q 306 109 301 126 q 324 74 311 92 q 354 45 338 55 q 401 35 370 35 q 487 69 447 35 q 555 159 528 103 q 600 284 585 218 q 614 431 614 351 z "},"c":{"ha":744,"x_min":47,"x_max":733,"o":"m 378 -22 q 135 56 222 -22 q 47 270 47 134 q 75 426 47 352 q 161 559 103 499 q 298 652 214 616 q 486 688 382 688 q 670 644 606 688 q 733 523 733 600 q 726 476 733 502 q 706 433 720 450 q 669 399 689 411 q 609 388 649 388 q 527 414 556 388 q 497 469 497 440 q 511 536 497 503 q 547 606 526 569 q 523 624 541 613 q 474 635 504 635 q 342 539 395 635 q 290 301 290 443 q 330 138 290 193 q 443 82 370 82 q 567 111 517 82 q 669 210 617 140 l 718 168 q 571 30 663 82 q 378 -22 479 -22 z "},"d":{"ha":920,"x_min":44,"x_max":943,"o":"m 519 85 l 514 85 q 469 47 490 64 q 413 14 447 31 q 351 -12 381 -3 q 281 -21 321 -21 q 104 48 163 -21 q 44 239 44 118 q 77 413 44 332 q 165 556 109 494 q 295 653 220 617 q 453 688 370 688 q 557 675 515 688 q 627 640 600 662 l 677 861 q 681 881 680 870 q 683 899 683 892 q 671 937 683 922 q 640 962 660 953 q 596 975 621 970 q 543 982 572 979 l 555 1032 l 935 1050 l 943 1039 l 760 250 q 749 198 755 231 q 743 150 743 166 q 760 97 743 111 q 821 82 777 82 q 866 90 840 82 q 904 102 893 97 l 889 41 q 782 0 822 14 q 689 -14 742 -14 q 577 14 619 -14 q 519 85 536 41 m 600 519 q 595 554 600 536 q 578 588 591 572 q 546 615 565 605 q 494 625 527 625 q 413 592 451 625 q 347 505 376 560 q 303 382 319 453 q 287 236 287 311 q 292 174 287 203 q 309 126 297 146 q 341 94 321 105 q 393 82 362 82 q 457 101 425 82 q 513 146 488 119 l 600 519 z "},"e":{"ha":774,"x_min":47,"x_max":744,"o":"m 370 -22 q 228 0 289 -22 q 126 61 166 22 q 67 153 87 100 q 47 268 47 205 q 77 423 47 348 q 166 559 107 498 q 307 652 222 616 q 496 688 393 688 q 681 650 617 688 q 744 534 744 611 q 689 407 744 460 q 540 328 634 353 q 413 296 465 305 q 284 278 360 286 q 292 211 286 248 q 313 147 299 174 q 359 99 329 117 q 435 81 389 81 q 571 112 515 81 q 677 210 627 142 l 727 168 q 571 30 666 81 q 370 -22 475 -22 m 524 515 q 503 603 524 572 q 444 634 481 634 q 346 549 392 634 q 286 334 299 464 q 366 346 326 338 q 428 363 405 353 q 501 421 479 386 q 524 515 524 456 z "},"f":{"ha":529,"x_min":-295,"x_max":814,"o":"m 420 589 q 362 298 387 421 q 302 41 337 175 q 247 -89 286 -25 q 155 -198 208 -152 q 34 -274 99 -247 q -99 -301 -31 -301 q -199 -289 -161 -301 q -259 -258 -237 -277 q -288 -216 -280 -239 q -295 -170 -295 -193 q -267 -101 -295 -131 q -191 -71 -239 -71 q -128 -90 -155 -71 q -82 -136 -101 -109 q -48 -195 -63 -163 q -26 -246 -34 -228 q 28 -152 3 -215 q 75 15 53 -90 l 196 589 l 64 589 l 81 659 l 211 659 l 222 711 q 274 836 237 774 q 366 945 312 897 q 485 1023 417 993 q 620 1053 552 1053 q 718 1041 679 1053 q 779 1010 757 1030 q 807 969 800 992 q 814 924 814 947 q 808 891 814 909 q 790 858 802 873 q 759 831 775 841 q 710 822 742 822 q 647 841 673 822 q 602 887 621 861 q 569 947 583 915 q 547 998 555 979 q 496 905 519 966 q 450 736 474 844 l 433 659 l 605 659 l 589 589 l 420 589 z "},"g":{"ha":902,"x_min":7,"x_max":858,"o":"m 509 71 l 503 71 q 464 42 486 58 q 416 15 441 26 q 357 -8 385 0 q 289 -16 330 -16 q 107 54 171 -16 q 44 243 44 123 q 77 415 44 335 q 165 557 109 496 q 295 653 220 618 q 453 688 370 688 q 561 675 514 688 q 642 635 608 663 l 848 678 l 858 667 l 743 116 q 667 -88 715 -7 q 555 -216 619 -168 q 419 -282 490 -264 q 271 -301 349 -301 q 135 -289 187 -301 q 54 -256 82 -276 q 17 -214 27 -237 q 7 -168 7 -191 q 35 -99 7 -130 q 111 -68 62 -68 q 177 -87 148 -68 q 227 -135 205 -107 q 264 -193 247 -160 q 290 -246 281 -226 q 352 -229 321 -241 q 411 -182 382 -216 q 463 -92 438 -150 q 509 71 488 -35 m 600 515 q 595 550 600 532 q 578 585 591 568 q 546 611 565 602 q 494 621 527 621 q 413 590 450 621 q 347 505 376 558 q 303 384 319 453 q 287 240 287 314 q 293 180 287 208 q 313 131 298 153 q 350 98 327 109 q 401 87 372 87 q 469 108 434 87 q 525 151 504 128 l 600 515 z "},"h":{"ha":938,"x_min":43,"x_max":918,"o":"m 918 102 l 903 43 q 796 2 836 16 q 703 -12 756 -12 q 577 29 623 -12 q 532 129 532 69 q 534 171 532 148 q 546 234 536 194 l 595 414 q 606 467 602 444 q 610 505 610 490 q 594 556 610 538 q 541 574 578 574 q 475 556 518 574 q 380 490 433 538 l 268 0 l 43 0 l 243 863 q 247 885 245 875 q 248 902 248 895 q 240 941 248 926 q 216 964 232 955 q 178 976 199 972 q 130 982 157 979 l 142 1032 l 499 1050 l 507 1039 l 398 570 l 403 570 q 534 657 466 625 q 680 688 602 688 q 797 647 755 688 q 840 547 840 606 q 837 503 840 531 q 826 443 835 475 l 774 252 q 762 198 768 229 q 757 152 757 168 q 774 98 757 113 q 835 83 791 83 q 881 90 855 83 q 918 102 907 97 z "},"i":{"ha":508,"x_min":26,"x_max":498,"o":"m 484 97 l 469 36 q 361 -4 401 9 q 269 -18 321 -18 q 142 21 187 -18 q 97 122 97 61 q 100 171 97 146 q 111 227 104 195 l 167 425 q 179 478 174 453 q 184 525 184 504 q 169 578 184 563 q 109 593 153 593 q 65 586 87 593 q 26 573 42 579 l 41 634 q 146 672 96 656 q 241 688 196 688 q 365 649 321 688 q 409 548 409 610 q 406 503 409 535 q 395 443 403 470 l 339 245 q 327 191 332 222 q 321 145 321 161 q 339 92 321 106 q 400 77 357 77 q 446 84 420 77 q 484 97 472 92 m 498 925 q 459 837 498 873 q 365 801 420 801 q 271 837 310 801 q 231 925 231 873 q 271 1013 231 977 q 365 1050 310 1050 q 459 1013 420 1050 q 498 925 498 977 z "},"j":{"ha":507,"x_min":-256,"x_max":503,"o":"m 425 548 q 424 513 425 535 q 417 463 422 490 q 375 243 387 307 q 327 41 363 180 q 272 -89 309 -28 q 181 -198 235 -149 q 67 -275 125 -248 q -63 -301 9 -301 q -162 -289 -124 -301 q -220 -258 -199 -277 q -249 -216 -241 -239 q -256 -170 -256 -193 q -228 -100 -256 -130 q -153 -71 -199 -71 q -89 -90 -116 -71 q -43 -136 -62 -109 q -10 -195 -24 -163 q 13 -246 5 -228 q 57 -145 35 -207 q 100 15 78 -84 q 150 243 128 138 q 189 447 171 349 q 196 485 192 463 q 199 525 199 507 q 182 576 199 559 q 122 593 165 593 q 76 586 100 593 q 35 573 52 578 l 50 634 q 158 672 105 656 q 256 688 212 688 q 381 649 337 688 q 425 548 425 610 m 503 925 q 464 837 503 873 q 370 801 425 801 q 276 837 315 801 q 237 925 237 873 q 276 1013 237 977 q 370 1050 315 1050 q 464 1013 425 1050 q 503 925 503 977 z "},"k":{"ha":890,"x_min":43,"x_max":880,"o":"m 880 582 q 845 496 880 534 q 758 459 810 459 q 679 478 715 459 q 614 519 642 498 q 588 502 601 510 q 534 458 575 493 q 603 285 566 379 q 659 155 640 191 q 702 94 682 112 q 772 77 722 77 q 816 83 789 77 q 859 97 842 90 l 844 36 q 727 -5 777 7 q 637 -18 677 -18 q 590 -16 618 -18 q 540 -3 561 -13 q 491 31 513 9 q 448 100 469 52 q 406 202 418 167 q 371 299 393 238 l 326 257 l 268 0 l 43 0 l 243 863 q 247 885 245 875 q 248 902 248 895 q 240 941 248 926 q 216 964 232 955 q 178 976 199 972 q 130 982 157 979 l 142 1032 l 499 1050 l 507 1039 l 344 334 l 349 334 q 478 474 431 425 q 580 576 525 522 q 686 664 646 640 q 774 688 726 688 q 851 661 823 688 q 880 582 880 634 z "},"l":{"ha":492,"x_min":81,"x_max":506,"o":"m 506 1039 l 323 245 q 312 193 319 226 q 306 145 306 161 q 326 92 306 106 q 391 77 345 77 q 437 84 408 77 q 478 97 466 92 l 463 36 q 353 -4 396 9 q 256 -18 311 -18 q 128 21 175 -18 q 81 122 81 61 q 86 174 81 147 q 96 227 90 201 l 242 863 q 246 885 245 875 q 248 902 248 895 q 239 941 248 926 q 215 964 231 955 q 178 976 199 972 q 129 982 157 979 l 141 1032 l 498 1050 l 506 1039 z "},"m":{"ha":1392,"x_min":20,"x_max":1372,"o":"m 1372 104 l 1357 43 q 1250 2 1290 16 q 1157 -12 1210 -12 q 1031 29 1076 -12 q 987 129 987 69 q 988 171 987 145 q 1000 234 990 196 l 1048 414 q 1060 467 1056 444 q 1063 505 1063 490 q 1047 556 1063 538 q 994 574 1031 574 q 929 551 968 574 q 848 490 889 528 l 736 0 l 512 0 l 607 414 q 618 469 614 448 q 622 505 622 490 q 606 556 622 538 q 552 574 589 574 q 494 557 531 574 q 400 490 456 541 l 288 0 l 64 0 l 160 417 q 171 467 164 436 q 177 517 177 498 q 162 571 177 556 q 103 585 147 585 q 59 578 81 585 q 20 566 36 572 l 35 627 q 140 665 90 649 q 235 681 190 681 q 354 647 317 681 q 406 561 391 614 l 410 561 q 541 656 478 623 q 686 688 604 688 q 801 651 756 688 q 850 559 846 614 l 855 559 q 990 655 928 621 q 1133 688 1053 688 q 1251 647 1208 688 q 1293 547 1293 606 q 1291 503 1293 531 q 1280 443 1289 475 l 1228 252 q 1216 198 1221 229 q 1211 152 1211 168 q 1228 98 1211 113 q 1289 84 1245 84 q 1335 91 1309 84 q 1372 104 1360 98 z "},"n":{"ha":958,"x_min":20,"x_max":939,"o":"m 939 104 l 924 43 q 817 2 857 16 q 724 -12 777 -12 q 598 29 643 -12 q 553 129 553 69 q 555 171 553 145 q 566 234 557 196 l 615 414 q 626 467 623 444 q 630 505 630 490 q 614 556 630 538 q 562 574 599 574 q 496 556 538 574 q 400 490 453 538 l 288 0 l 64 0 l 160 417 q 171 467 164 436 q 177 517 177 497 q 161 571 177 556 q 103 585 145 585 q 59 578 81 585 q 20 566 36 572 l 35 627 q 140 665 90 649 q 235 681 190 681 q 354 649 315 681 q 407 561 394 618 l 412 561 q 549 655 478 621 q 700 688 620 688 q 818 647 775 688 q 860 547 860 606 q 858 503 860 531 q 846 443 855 475 l 795 252 q 783 198 788 229 q 777 152 777 168 q 794 98 777 113 q 855 84 812 84 q 901 91 876 84 q 939 104 927 98 z "},"o":{"ha":883,"x_min":45,"x_max":838,"o":"m 838 406 q 805 243 838 321 q 713 107 772 165 q 562 12 648 45 q 368 -22 475 -22 q 134 55 223 -22 q 45 265 45 132 q 79 433 45 355 q 173 568 113 510 q 319 657 233 624 q 507 690 406 690 q 749 615 661 690 q 838 406 838 540 m 599 483 q 572 600 599 562 q 494 637 545 637 q 399 595 442 637 q 328 473 355 553 q 294 327 304 406 q 284 187 284 249 q 311 68 284 105 q 390 31 338 31 q 486 77 446 31 q 551 189 527 122 q 587 333 574 254 q 599 483 599 412 z "},"p":{"ha":920,"x_min":-123,"x_max":876,"o":"m 876 429 q 844 255 876 338 q 756 113 812 173 q 627 16 699 50 q 468 -18 555 -18 q 363 -5 403 -18 q 294 31 323 7 l 253 -150 q 249 -169 251 -158 q 247 -185 247 -180 q 254 -214 247 -201 q 274 -233 260 -227 q 322 -246 289 -239 q 377 -254 355 -252 l 366 -301 l -123 -301 l -113 -254 q -68 -249 -95 -252 q -28 -241 -42 -245 q 7 -217 -5 -233 q 24 -174 19 -201 l 159 417 q 169 467 163 437 q 176 517 176 498 q 161 569 176 553 q 102 585 146 585 q 58 578 81 585 q 18 566 34 572 l 33 627 q 138 665 88 649 q 233 681 189 681 q 299 674 271 681 q 349 651 328 667 q 379 620 368 638 q 399 583 391 602 l 405 583 q 526 663 467 637 q 640 688 585 688 q 817 619 758 688 q 876 429 876 549 m 574 161 q 618 286 604 220 q 633 431 633 351 q 629 493 633 465 q 612 541 624 521 q 579 574 600 562 q 527 585 558 585 q 456 563 491 585 q 406 521 422 541 l 321 149 q 349 71 321 102 q 427 40 376 40 q 508 73 469 40 q 574 161 547 105 z "},"q":{"ha":903,"x_min":44,"x_max":858,"o":"m 496 66 l 491 66 q 454 40 478 57 q 407 12 429 22 q 349 -12 380 -2 q 281 -21 318 -21 q 104 48 163 -21 q 44 239 44 118 q 77 413 44 332 q 165 556 109 494 q 295 653 220 617 q 453 688 370 688 q 562 676 517 688 q 641 635 606 663 l 848 678 l 858 667 l 670 -150 q 666 -170 668 -159 q 664 -185 664 -181 q 671 -214 664 -201 q 691 -233 677 -227 q 738 -246 706 -239 q 791 -254 769 -252 l 780 -301 l 290 -301 l 301 -254 q 347 -249 318 -252 q 388 -241 375 -245 q 424 -217 412 -233 q 441 -174 436 -201 l 496 66 m 599 515 q 594 550 599 532 q 577 585 590 568 q 545 611 564 602 q 494 621 526 621 q 412 589 449 621 q 346 503 374 557 q 302 378 318 450 q 287 236 287 307 q 292 174 287 203 q 309 126 297 146 q 341 94 321 105 q 393 82 362 82 q 461 103 427 82 q 514 146 494 124 l 599 515 z "},"r":{"ha":741,"x_min":20,"x_max":750,"o":"m 750 547 q 741 488 750 517 q 715 439 732 460 q 673 405 695 416 q 612 394 652 394 q 532 419 562 394 q 503 475 503 444 q 512 526 503 505 q 538 589 520 547 q 460 543 493 570 q 398 480 428 515 l 291 0 l 66 0 l 160 417 q 171 467 164 436 q 177 517 177 497 q 162 571 177 557 q 103 585 146 585 q 59 578 81 585 q 20 566 36 572 l 35 627 q 140 665 90 649 q 235 681 190 681 q 354 649 315 681 q 407 561 394 618 l 412 561 q 526 660 479 632 q 626 688 572 688 q 717 652 684 688 q 750 547 750 616 z "},"s":{"ha":718,"x_min":7,"x_max":691,"o":"m 295 -22 q 154 -8 210 -22 q 65 27 98 5 q 20 74 32 49 q 7 120 7 98 q 37 189 7 159 q 115 218 66 218 q 183 197 156 218 q 229 144 211 176 q 258 80 246 115 q 274 28 269 45 q 390 61 351 28 q 429 151 429 94 q 417 193 429 176 q 386 222 406 210 q 336 246 366 235 q 275 268 305 258 q 145 345 193 296 q 98 467 98 394 q 118 549 98 511 q 180 620 138 587 q 287 670 222 651 q 437 688 351 688 q 533 682 489 688 q 615 660 577 676 q 671 617 651 644 q 691 554 691 591 q 663 490 691 517 q 589 463 635 463 q 524 484 550 463 q 481 532 498 504 q 456 590 465 560 q 440 641 446 621 q 354 607 393 638 q 315 528 315 575 q 324 484 315 500 q 349 456 333 467 q 393 434 366 444 q 460 410 420 423 q 599 332 552 377 q 646 212 646 286 q 623 118 646 163 q 558 43 600 73 q 450 -6 511 11 q 295 -22 389 -22 z "},"t":{"ha":579,"x_min":72,"x_max":620,"o":"m 277 -18 q 146 22 195 -18 q 98 123 98 62 q 101 170 98 148 q 112 228 104 193 l 196 589 l 72 589 l 88 659 l 215 659 l 264 864 l 484 864 l 436 659 l 620 659 l 604 589 l 420 589 l 338 228 q 329 182 333 209 q 324 146 324 155 q 346 93 324 108 q 411 78 367 78 q 469 86 432 78 q 521 100 506 94 l 506 39 q 386 -3 446 12 q 277 -18 326 -18 z "},"u":{"ha":951,"x_min":23,"x_max":935,"o":"m 545 108 l 540 108 q 404 12 469 43 q 255 -20 340 -20 q 139 22 180 -20 q 98 122 98 63 q 100 165 98 143 q 113 226 102 186 l 163 416 q 175 468 168 435 q 181 517 181 501 q 166 569 181 554 q 106 585 151 585 q 62 578 85 585 q 23 565 39 571 l 38 626 q 143 664 93 648 q 238 680 193 680 q 362 640 319 680 q 406 540 406 600 q 404 495 406 528 q 393 435 401 463 l 343 254 q 332 203 336 231 q 328 163 328 176 q 343 113 328 132 q 395 94 358 94 q 465 116 421 94 q 551 179 509 138 l 663 669 l 880 678 l 888 669 l 791 252 q 780 199 787 232 q 774 151 774 167 q 791 98 774 112 q 852 83 808 83 q 898 91 872 83 q 935 103 924 98 l 920 42 q 813 2 853 16 q 720 -12 773 -12 q 601 21 646 -12 q 545 108 556 55 z "},"v":{"ha":850,"x_min":23,"x_max":820,"o":"m 820 519 q 788 326 820 424 q 697 151 755 227 q 544 20 628 62 q 369 -22 460 -22 q 177 35 248 -22 q 106 196 106 91 q 117 266 106 229 q 144 353 127 303 q 169 438 157 396 q 181 517 181 479 q 165 569 181 553 q 106 585 149 585 q 62 578 85 585 q 23 565 39 571 l 38 626 q 143 664 93 648 q 238 680 193 680 q 362 640 319 680 q 406 540 406 600 q 394 446 406 496 q 370 357 382 397 q 346 276 358 322 q 333 203 333 231 q 361 111 333 146 q 450 77 389 77 q 610 145 543 77 q 678 331 678 214 q 677 356 678 342 q 671 387 675 370 q 642 420 664 402 q 606 452 621 437 q 571 499 586 472 q 556 568 556 526 q 570 627 556 604 q 604 663 584 649 q 643 682 620 675 q 685 688 665 688 q 784 643 748 688 q 820 519 820 598 z "},"w":{"ha":1297,"x_min":23,"x_max":1266,"o":"m 1266 519 q 1234 323 1266 420 q 1143 151 1201 226 q 999 26 1082 74 q 808 -22 916 -22 q 648 17 709 -22 q 564 128 587 56 q 422 15 492 49 q 269 -20 352 -20 q 144 29 190 -20 q 99 152 99 78 q 104 203 99 179 q 117 256 110 227 l 163 416 q 175 468 168 435 q 181 517 181 501 q 166 569 181 553 q 106 585 151 585 q 62 578 85 585 q 23 565 39 571 l 38 626 q 143 664 93 648 q 238 680 193 680 q 362 640 319 680 q 406 538 406 600 q 399 474 406 515 q 385 406 393 432 l 345 275 q 333 222 338 254 q 328 177 328 191 q 350 116 328 138 q 399 94 371 94 q 425 97 408 94 q 460 108 442 99 q 507 136 479 117 q 560 184 534 155 q 563 220 560 197 q 572 276 566 243 l 662 669 l 878 678 l 886 669 l 797 280 q 791 246 795 272 q 787 192 787 220 q 815 106 787 134 q 899 78 844 78 q 1058 147 991 78 q 1124 331 1124 216 q 1123 356 1124 342 q 1118 387 1122 370 q 1090 418 1110 402 q 1052 452 1069 435 q 1017 499 1032 471 q 1002 568 1002 528 q 1016 625 1002 602 q 1050 663 1029 648 q 1089 682 1065 675 q 1131 688 1113 688 q 1231 642 1196 688 q 1266 519 1266 596 z "},"x":{"ha":810,"x_min":-12,"x_max":826,"o":"m 826 587 q 788 493 826 528 q 696 458 751 458 q 632 467 664 458 q 578 483 601 475 q 546 450 567 475 q 498 389 525 425 q 538 242 523 286 q 566 153 553 198 q 600 97 578 117 q 671 77 623 77 q 715 83 688 77 q 758 97 741 90 l 743 36 q 626 -5 676 7 q 536 -18 576 -18 q 480 -13 508 -18 q 429 7 452 -7 q 387 44 404 22 q 357 106 370 66 q 342 163 349 132 q 329 220 336 195 q 300 176 309 191 q 275 136 292 162 q 182 19 221 54 q 87 -16 142 -16 q 17 12 46 -16 q -12 85 -12 40 q 25 180 -12 145 q 117 215 63 215 q 180 207 150 215 q 236 190 210 199 q 268 222 246 198 q 314 281 289 245 q 277 418 292 372 q 248 509 263 464 q 213 566 236 546 q 144 586 190 586 q 98 579 123 586 q 56 566 73 572 l 71 627 q 187 667 132 654 q 278 681 241 681 q 335 676 311 681 q 385 656 359 671 q 428 618 410 641 q 457 556 446 595 q 472 500 465 529 q 484 450 479 471 q 513 494 498 471 q 539 535 528 517 q 633 653 591 617 q 726 688 674 688 q 798 660 769 688 q 826 587 826 632 z "},"y":{"ha":930,"x_min":23,"x_max":885,"o":"m 545 109 l 540 109 q 399 12 463 39 q 256 -16 334 -16 q 139 26 181 -16 q 98 127 98 68 q 100 170 98 149 q 113 231 102 192 l 163 416 q 175 468 168 435 q 181 517 181 501 q 166 570 181 555 q 106 585 151 585 q 62 578 85 585 q 23 565 39 571 l 38 626 q 143 664 93 648 q 238 680 193 680 q 362 640 319 680 q 406 540 406 600 q 404 495 406 528 q 393 435 401 463 l 343 258 q 332 208 336 235 q 328 168 328 180 q 345 117 328 134 q 397 99 361 99 q 473 122 427 99 q 557 182 519 144 l 661 669 l 876 678 l 885 667 l 766 116 q 690 -88 739 -7 q 577 -216 642 -168 q 444 -281 515 -261 q 298 -301 372 -301 q 164 -289 217 -301 q 81 -256 111 -277 q 44 -214 54 -237 q 34 -168 34 -191 q 62 -98 34 -129 q 138 -68 90 -68 q 203 -87 174 -68 q 254 -135 232 -107 q 291 -194 275 -161 q 317 -246 308 -226 q 347 -238 329 -244 q 377 -223 365 -231 q 408 -200 395 -212 q 439 -165 422 -189 q 500 -52 473 -119 q 545 109 526 15 z "},"z":{"ha":718,"x_min":-18,"x_max":735,"o":"m 735 669 l 725 620 l 245 57 q 294 56 269 56 q 351 56 319 56 q 400 56 376 56 q 466 60 425 57 q 512 79 492 63 q 544 118 532 96 q 577 175 553 135 q 616 246 602 214 l 663 246 l 615 0 l -18 0 l -6 56 l 467 612 l 387 612 q 302 610 328 612 q 243 595 277 608 q 190 545 220 587 q 138 453 159 504 l 90 453 l 132 669 l 735 669 z "},"{":{"ha":694,"x_min":49,"x_max":793,"o":"m 527 -226 q 381 -219 452 -226 q 266 -193 310 -212 q 193 -135 219 -173 q 168 -35 168 -98 q 170 -3 168 -19 q 174 32 172 13 q 193 116 180 65 q 213 204 207 168 q 217 233 216 221 q 218 256 218 245 q 185 332 218 308 q 49 364 152 357 l 72 466 q 164 477 118 469 q 240 500 210 484 q 295 546 273 517 q 326 626 318 576 q 336 704 333 666 q 347 785 340 741 q 397 918 360 867 q 493 997 435 968 q 629 1034 551 1025 q 793 1042 707 1042 l 783 986 q 718 979 745 983 q 660 958 691 975 q 612 913 631 941 q 583 828 593 884 l 559 699 q 515 579 546 627 q 439 503 484 532 q 345 459 396 475 q 243 434 294 443 l 231 382 q 375 314 330 361 q 420 191 420 267 q 418 155 420 175 q 412 117 416 136 l 385 -12 q 382 -32 383 -21 q 382 -52 382 -43 q 396 -113 382 -91 q 431 -147 410 -135 q 483 -163 453 -159 q 537 -170 513 -168 l 527 -226 z "},"|":{"ha":538,"x_min":227,"x_max":342,"o":"m 342 -288 l 227 -288 l 227 1033 l 342 1033 l 342 -288 z "},"}":{"ha":694,"x_min":-83,"x_max":662,"o":"m 662 452 l 639 350 q 545 340 581 346 q 471 316 509 335 q 415 269 437 299 q 385 190 394 239 q 374 113 377 150 q 364 31 372 75 q 315 -101 351 -50 q 218 -181 278 -153 q 85 -218 159 -209 q -83 -227 12 -227 l -73 -170 q -7 -163 -40 -168 q 52 -142 25 -157 q 99 -96 78 -126 q 128 -12 119 -65 l 151 117 q 196 236 164 190 q 271 313 227 282 q 366 356 312 340 q 468 382 419 372 l 480 433 q 405 457 439 442 q 345 493 370 471 q 305 549 319 517 q 291 625 291 581 q 293 663 291 646 q 298 699 295 681 l 326 827 q 328 848 328 838 q 329 868 329 859 q 315 928 329 906 q 279 963 302 951 q 230 979 259 974 q 174 985 200 983 l 184 1042 q 332 1035 267 1042 q 445 1009 397 1029 q 517 951 492 989 q 543 850 543 913 q 542 819 543 838 q 536 784 540 800 q 518 703 530 746 q 498 612 507 659 q 494 583 495 596 q 492 559 492 570 q 534 478 492 500 q 662 452 576 456 z "},"~":{"ha":977,"x_min":113,"x_max":893,"o":"m 893 498 q 857 422 880 461 q 806 352 834 382 q 731 291 772 314 q 646 269 691 269 q 552 287 594 269 q 470 328 509 304 q 398 367 439 346 q 326 387 357 387 q 248 355 281 387 q 184 252 214 323 l 113 281 q 145 351 123 311 q 200 427 168 391 q 272 486 231 462 q 361 511 314 511 q 459 491 416 511 q 538 451 503 472 q 609 411 574 429 q 681 392 644 392 q 762 428 728 392 q 823 527 795 463 l 893 498 z "},"":{"ha":1053,"x_min":-118,"x_max":1023,"o":"m 605 387 l 546 738 l 326 387 l 605 387 m 496 0 l 508 50 q 617 67 578 55 q 656 93 656 79 q 654 114 656 105 q 651 134 653 123 l 617 323 l 286 323 q 244 257 269 298 q 203 187 220 216 q 173 124 177 141 q 168 102 168 107 q 200 69 168 82 q 298 50 232 56 l 286 0 l -118 0 l -106 50 q -57 56 -87 51 q -7 73 -27 62 q 47 111 22 87 q 94 169 72 135 q 347 560 231 380 q 614 976 462 739 l 748 976 q 834 473 800 672 q 895 141 869 275 q 908 104 898 121 q 939 73 918 87 q 979 56 956 62 q 1023 50 1002 51 l 1011 0 l 496 0 m 973 1154 q 942 1075 973 1109 q 867 1042 910 1042 q 791 1076 822 1042 q 760 1154 760 1109 q 791 1233 760 1200 q 867 1267 822 1267 q 942 1233 910 1267 q 973 1154 973 1200 m 610 1154 q 578 1075 610 1109 q 503 1042 546 1042 q 427 1075 458 1042 q 396 1154 396 1108 q 427 1233 396 1200 q 503 1267 458 1267 q 578 1233 546 1267 q 610 1154 610 1200 z "},"":{"ha":1053,"x_min":-118,"x_max":1023,"o":"m 605 387 l 546 738 l 326 387 l 605 387 m 496 0 l 508 50 q 617 67 578 55 q 656 93 656 79 q 654 114 656 105 q 651 134 653 123 l 617 323 l 286 323 q 244 257 269 298 q 203 187 220 216 q 173 124 177 141 q 168 102 168 107 q 200 69 168 82 q 298 50 232 56 l 286 0 l -118 0 l -106 50 q -57 56 -87 51 q -7 73 -27 62 q 47 111 22 87 q 94 169 72 135 q 340 550 231 380 q 602 957 450 720 q 513 1000 545 967 q 481 1084 481 1034 q 547 1216 481 1165 q 704 1267 613 1267 q 825 1232 777 1267 q 872 1137 872 1196 q 840 1036 872 1080 q 749 970 807 992 q 835 470 802 665 q 895 141 869 275 q 908 104 898 121 q 939 73 918 87 q 979 56 956 62 q 1023 50 1002 51 l 1011 0 l 496 0 m 769 1138 q 750 1196 769 1173 q 694 1219 731 1219 q 615 1182 645 1219 q 585 1084 585 1144 q 603 1023 585 1046 q 660 1000 622 1000 q 740 1039 711 1000 q 769 1138 769 1078 z "},"":{"ha":994,"x_min":59,"x_max":1065,"o":"m 437 -23 q 290 12 353 -14 q 180 81 228 38 q 91 207 123 132 q 59 374 59 281 q 105 608 59 498 q 234 804 151 718 q 430 938 314 887 q 675 988 545 988 q 835 969 754 988 q 956 925 916 950 l 1006 962 l 1065 962 l 990 611 l 930 611 q 849 845 917 765 q 673 926 781 926 q 528 879 595 926 q 410 735 462 832 q 346 550 368 655 q 324 352 324 444 q 390 141 324 216 q 566 66 456 66 q 746 120 663 66 q 905 277 829 174 l 958 241 q 878 140 924 190 q 773 54 832 90 q 651 -4 713 16 q 495 -25 588 -25 l 486 -65 q 593 -87 553 -65 q 633 -153 633 -109 q 610 -226 633 -197 q 546 -271 588 -255 q 444 -294 503 -288 q 298 -301 385 -301 l 311 -248 q 380 -248 343 -248 q 439 -241 416 -247 q 479 -223 465 -236 q 493 -187 493 -210 q 469 -158 493 -165 q 408 -151 445 -151 l 437 -23 z "},"":{"ha":1002,"x_min":-37,"x_max":1031,"o":"m 1031 962 l 975 717 l 923 717 q 877 835 913 781 q 801 898 841 889 q 746 904 782 903 q 686 905 710 905 l 553 905 l 467 528 l 559 528 q 638 539 610 528 q 692 571 667 551 q 737 627 711 587 q 773 696 762 667 l 825 696 l 732 294 l 680 294 l 680 319 q 674 382 680 350 q 659 427 667 414 q 612 461 641 453 q 545 470 583 470 l 453 470 l 391 202 q 382 158 387 182 q 378 124 378 134 q 407 70 378 81 q 512 58 435 58 q 654 67 610 58 q 722 93 699 75 q 819 197 762 127 q 897 300 876 267 l 946 300 l 859 0 l -37 0 l -26 50 q 25 54 -9 50 q 75 63 58 58 q 115 90 101 72 q 134 132 129 109 l 290 805 q 294 829 293 819 q 296 843 296 838 q 267 887 296 871 q 173 913 238 903 l 184 962 l 1031 962 m 869 1199 q 851 1152 869 1171 q 800 1120 833 1134 q 686 1077 762 1105 q 510 1007 610 1049 l 488 1035 q 594 1137 557 1101 q 670 1215 631 1173 q 719 1255 695 1243 q 770 1267 743 1267 q 841 1248 814 1267 q 869 1199 869 1230 z "},"":{"ha":1152,"x_min":-60,"x_max":1277,"o":"m 1277 962 l 1265 913 q 1210 906 1246 911 q 1139 879 1174 901 q 1089 816 1110 861 q 1048 685 1069 771 l 889 -5 l 775 -5 l 359 766 l 250 284 q 236 213 241 246 q 231 160 231 180 q 237 117 231 132 q 252 92 242 102 q 307 64 268 76 q 365 50 346 53 l 353 0 l -60 0 l -49 50 q 9 59 -31 52 q 77 83 49 66 q 127 145 107 102 q 168 277 148 189 l 272 730 q 278 759 275 745 q 280 785 280 773 q 275 824 280 805 q 258 858 271 842 q 211 893 239 881 q 146 913 183 906 l 158 962 l 513 962 l 877 284 l 967 678 q 981 749 977 722 q 985 800 985 777 q 980 843 985 827 q 963 871 974 860 q 910 898 948 886 q 852 913 873 909 l 864 962 l 1277 962 m 1034 1254 q 998 1189 1021 1225 q 945 1122 975 1153 q 878 1070 912 1090 q 803 1050 844 1050 q 726 1063 760 1050 q 669 1089 692 1076 q 617 1114 644 1102 q 563 1125 589 1125 q 506 1094 528 1125 q 456 1025 484 1063 l 408 1045 q 445 1107 420 1070 q 496 1173 469 1144 q 560 1225 524 1204 q 633 1247 596 1247 q 700 1236 668 1247 q 762 1211 732 1225 q 816 1184 793 1195 q 867 1173 838 1173 q 912 1179 895 1173 q 939 1197 928 1185 q 960 1229 950 1211 q 982 1270 969 1247 l 1034 1254 z "},"":{"ha":1139,"x_min":59,"x_max":1126,"o":"m 1126 593 q 1081 358 1126 471 q 952 160 1035 244 q 753 24 867 74 q 493 -26 638 -26 q 181 83 303 -26 q 59 370 59 193 q 109 612 59 498 q 245 810 158 726 q 446 941 331 894 q 688 989 561 989 q 1003 882 880 989 q 1126 593 1126 774 m 772 238 q 840 442 818 332 q 863 659 863 552 q 815 854 863 783 q 673 926 768 926 q 525 870 591 926 q 415 726 460 814 q 347 525 370 637 q 323 302 323 413 q 370 110 323 182 q 513 37 418 37 q 662 94 595 37 q 772 238 728 151 m 980 1154 q 948 1075 980 1109 q 873 1042 917 1042 q 798 1076 829 1042 q 766 1154 766 1109 q 798 1233 766 1200 q 873 1267 829 1267 q 948 1233 917 1267 q 980 1154 980 1200 m 616 1154 q 585 1075 616 1109 q 509 1042 553 1042 q 434 1075 465 1042 q 403 1154 403 1108 q 434 1233 403 1200 q 509 1267 465 1267 q 585 1233 553 1267 q 616 1154 616 1200 z "},"":{"ha":1158,"x_min":148,"x_max":1293,"o":"m 512 -26 q 242 42 336 -26 q 148 234 148 110 q 151 278 148 256 q 159 326 153 300 l 270 806 q 275 829 273 821 q 276 843 276 837 q 249 887 276 871 q 155 913 222 903 l 166 962 l 682 962 l 670 913 q 621 907 648 911 q 576 897 595 903 q 536 870 549 889 q 517 828 523 852 l 408 354 q 397 292 401 326 q 393 237 393 259 q 443 107 393 149 q 589 66 493 66 q 791 143 706 66 q 905 349 876 221 l 981 679 q 995 751 991 721 q 1000 801 1000 781 q 994 844 1000 827 q 977 871 988 861 q 921 898 960 886 q 865 913 882 910 l 876 962 l 1293 962 l 1282 913 q 1223 904 1261 911 q 1155 879 1185 897 q 1104 817 1125 862 q 1063 686 1084 772 l 980 324 q 815 65 941 156 q 512 -26 689 -26 m 1074 1154 q 1042 1075 1074 1109 q 967 1042 1010 1042 q 891 1076 922 1042 q 860 1154 860 1109 q 891 1233 860 1200 q 967 1267 922 1267 q 1042 1233 1010 1267 q 1074 1154 1074 1200 m 710 1154 q 678 1075 710 1109 q 603 1042 646 1042 q 528 1075 559 1042 q 496 1154 496 1108 q 527 1233 496 1200 q 603 1267 558 1267 q 678 1233 646 1267 q 710 1154 710 1200 z "},"":{"ha":917,"x_min":44,"x_max":901,"o":"m 515 85 l 510 85 q 465 47 486 64 q 411 14 444 31 q 351 -11 382 -1 q 281 -21 319 -21 q 104 48 163 -21 q 44 239 44 118 q 77 413 44 332 q 166 556 111 494 q 298 653 222 617 q 456 688 373 688 q 563 674 517 688 q 638 635 609 660 l 846 678 l 856 667 l 756 250 q 745 198 751 229 q 739 150 739 166 q 756 97 739 111 q 817 82 774 82 q 863 90 836 82 q 901 102 890 97 l 886 41 q 778 0 819 14 q 685 -14 738 -14 q 573 14 615 -14 q 515 85 532 41 m 596 515 q 592 550 596 530 q 578 585 588 570 q 546 611 566 602 q 497 621 526 621 q 415 588 452 621 q 348 503 377 556 q 303 379 319 450 q 287 236 287 309 q 292 174 287 203 q 309 126 297 146 q 341 94 321 105 q 393 82 362 82 q 455 101 425 82 q 509 146 484 119 l 596 515 m 701 990 q 687 941 701 960 q 642 903 673 922 q 537 841 609 881 q 374 747 465 802 l 346 772 q 438 899 406 852 q 494 979 471 946 q 550 1035 524 1021 q 616 1050 576 1050 q 674 1032 648 1050 q 701 990 701 1015 z "},"":{"ha":917,"x_min":44,"x_max":901,"o":"m 515 85 l 510 85 q 465 47 486 64 q 411 14 444 31 q 351 -11 382 -1 q 281 -21 319 -21 q 104 48 163 -21 q 44 239 44 118 q 77 413 44 332 q 166 556 111 494 q 298 653 222 617 q 456 688 373 688 q 563 674 517 688 q 638 635 609 660 l 846 678 l 856 667 l 756 250 q 745 198 751 229 q 739 150 739 166 q 756 97 739 111 q 817 82 774 82 q 863 90 836 82 q 901 102 890 97 l 886 41 q 778 0 819 14 q 685 -14 738 -14 q 573 14 615 -14 q 515 85 532 41 m 596 515 q 592 550 596 530 q 578 585 588 570 q 546 611 566 602 q 497 621 526 621 q 415 588 452 621 q 348 503 377 556 q 303 379 319 450 q 287 236 287 309 q 292 174 287 203 q 309 126 297 146 q 341 94 321 105 q 393 82 362 82 q 455 101 425 82 q 509 146 484 119 l 596 515 m 642 772 l 611 747 q 457 844 522 806 q 365 901 392 882 q 330 935 341 919 q 318 976 318 951 q 339 1025 318 1000 q 395 1050 361 1050 q 463 1034 438 1050 q 513 979 488 1017 q 566 894 533 949 q 642 772 599 838 z "},"":{"ha":917,"x_min":44,"x_max":901,"o":"m 515 85 l 510 85 q 465 47 486 64 q 411 14 444 31 q 351 -11 382 -1 q 281 -21 319 -21 q 104 48 163 -21 q 44 239 44 118 q 77 413 44 332 q 166 556 111 494 q 298 653 222 617 q 456 688 373 688 q 563 674 517 688 q 638 635 609 660 l 846 678 l 856 667 l 756 250 q 745 198 751 229 q 739 150 739 166 q 756 97 739 111 q 817 82 774 82 q 863 90 836 82 q 901 102 890 97 l 886 41 q 778 0 819 14 q 685 -14 738 -14 q 573 14 615 -14 q 515 85 532 41 m 596 515 q 592 550 596 530 q 578 585 588 570 q 546 611 566 602 q 497 621 526 621 q 415 588 452 621 q 348 503 377 556 q 303 379 319 450 q 287 236 287 309 q 292 174 287 203 q 309 126 297 146 q 341 94 321 105 q 393 82 362 82 q 455 101 425 82 q 509 146 484 119 l 596 515 m 736 768 l 700 748 l 511 920 l 269 748 l 234 768 q 351 917 313 869 q 429 1008 389 966 q 470 1040 448 1029 q 530 1050 492 1050 q 586 1040 570 1050 q 614 1011 602 1030 q 670 910 641 972 q 736 768 699 848 z "},"":{"ha":917,"x_min":44,"x_max":901,"o":"m 515 85 l 510 85 q 465 47 486 64 q 411 14 444 31 q 351 -11 382 -1 q 281 -21 319 -21 q 104 48 163 -21 q 44 239 44 118 q 77 413 44 332 q 166 556 111 494 q 298 653 222 617 q 456 688 373 688 q 563 674 517 688 q 638 635 609 660 l 846 678 l 856 667 l 756 250 q 745 198 751 229 q 739 150 739 166 q 756 97 739 111 q 817 82 774 82 q 863 90 836 82 q 901 102 890 97 l 886 41 q 778 0 819 14 q 685 -14 738 -14 q 573 14 615 -14 q 515 85 532 41 m 596 515 q 592 550 596 530 q 578 585 588 570 q 546 611 566 602 q 497 621 526 621 q 415 588 452 621 q 348 503 377 556 q 303 379 319 450 q 287 236 287 309 q 292 174 287 203 q 309 126 297 146 q 341 94 321 105 q 393 82 362 82 q 455 101 425 82 q 509 146 484 119 l 596 515 m 784 915 q 752 836 784 869 q 677 802 721 802 q 602 836 633 802 q 570 915 570 870 q 602 994 570 960 q 677 1027 633 1027 q 752 994 721 1027 q 784 915 784 960 m 448 915 q 416 836 448 869 q 341 802 385 802 q 266 836 297 802 q 235 915 235 869 q 266 994 235 960 q 341 1027 296 1027 q 416 994 385 1027 q 448 915 448 960 z "},"":{"ha":917,"x_min":44,"x_max":901,"o":"m 515 85 l 510 85 q 465 47 486 64 q 411 14 444 31 q 351 -11 382 -1 q 281 -21 319 -21 q 104 48 163 -21 q 44 239 44 118 q 77 413 44 332 q 166 556 111 494 q 298 653 222 617 q 456 688 373 688 q 563 674 517 688 q 638 635 609 660 l 846 678 l 856 667 l 756 250 q 745 198 751 229 q 739 150 739 166 q 756 97 739 111 q 817 82 774 82 q 863 90 836 82 q 901 102 890 97 l 886 41 q 778 0 819 14 q 685 -14 738 -14 q 573 14 615 -14 q 515 85 532 41 m 596 515 q 592 550 596 530 q 578 585 588 570 q 546 611 566 602 q 497 621 526 621 q 415 588 452 621 q 348 503 377 556 q 303 379 319 450 q 287 236 287 309 q 292 174 287 203 q 309 126 297 146 q 341 94 321 105 q 393 82 362 82 q 455 101 425 82 q 509 146 484 119 l 596 515 m 825 1006 q 789 941 812 977 q 735 875 766 905 q 669 822 703 842 q 593 802 635 802 q 516 815 550 802 q 459 842 482 829 q 407 866 435 854 q 353 878 380 878 q 296 847 318 878 q 247 777 275 816 l 199 798 q 235 860 211 823 q 287 926 260 897 q 351 978 315 956 q 424 1000 387 1000 q 490 988 458 1000 q 552 963 522 977 q 606 937 584 947 q 658 926 629 926 q 702 931 686 926 q 729 949 719 937 q 750 982 741 964 q 772 1023 760 1000 l 825 1006 z "},"":{"ha":917,"x_min":44,"x_max":901,"o":"m 515 85 l 510 85 q 465 47 486 64 q 411 14 444 31 q 351 -11 382 -1 q 281 -21 319 -21 q 104 48 163 -21 q 44 239 44 118 q 77 413 44 332 q 166 556 111 494 q 298 653 222 617 q 456 688 373 688 q 563 674 517 688 q 638 635 609 660 l 846 678 l 856 667 l 756 250 q 745 198 751 229 q 739 150 739 166 q 756 97 739 111 q 817 82 774 82 q 863 90 836 82 q 901 102 890 97 l 886 41 q 778 0 819 14 q 685 -14 738 -14 q 573 14 615 -14 q 515 85 532 41 m 596 515 q 592 550 596 530 q 578 585 588 570 q 546 611 566 602 q 497 621 526 621 q 415 588 452 621 q 348 503 377 556 q 303 379 319 450 q 287 236 287 309 q 292 174 287 203 q 309 126 297 146 q 341 94 321 105 q 393 82 362 82 q 455 101 425 82 q 509 146 484 119 l 596 515 m 500 749 q 378 784 423 749 q 332 879 332 819 q 398 1011 332 960 q 555 1063 464 1063 q 675 1028 628 1063 q 723 933 723 993 q 658 800 723 852 q 500 749 593 749 m 620 935 q 601 993 620 971 q 545 1015 583 1015 q 466 976 496 1015 q 435 879 435 937 q 454 819 435 841 q 511 796 473 796 q 591 836 562 796 q 620 935 620 876 z "},"":{"ha":744,"x_min":47,"x_max":733,"o":"m 317 -18 q 117 73 187 -5 q 47 270 47 150 q 75 426 47 352 q 161 559 103 499 q 298 652 214 616 q 486 688 382 688 q 670 644 606 688 q 733 523 733 600 q 726 476 733 502 q 706 433 720 450 q 669 399 689 411 q 609 388 649 388 q 527 414 556 388 q 497 469 497 440 q 511 536 497 503 q 547 606 526 569 q 523 624 541 613 q 474 635 504 635 q 342 539 395 635 q 290 301 290 443 q 330 138 290 193 q 443 82 370 82 q 567 111 517 82 q 669 210 617 140 l 718 168 q 573 30 663 82 q 375 -22 483 -22 l 366 -65 q 473 -87 433 -65 q 513 -153 513 -109 q 490 -226 513 -197 q 426 -271 468 -255 q 324 -294 383 -288 q 178 -301 264 -301 l 191 -248 q 260 -248 223 -248 q 319 -241 296 -247 q 359 -223 345 -236 q 373 -187 373 -210 q 349 -158 373 -165 q 288 -151 325 -151 l 317 -18 z "},"":{"ha":774,"x_min":47,"x_max":744,"o":"m 370 -22 q 228 0 289 -22 q 126 61 166 22 q 67 153 87 100 q 47 268 47 205 q 77 423 47 348 q 166 559 107 498 q 307 652 222 616 q 496 688 393 688 q 681 650 617 688 q 744 534 744 611 q 689 407 744 460 q 540 328 634 353 q 413 296 465 305 q 284 278 360 286 q 292 211 286 248 q 313 147 299 174 q 359 99 329 117 q 435 81 389 81 q 571 112 515 81 q 677 210 627 142 l 727 168 q 571 30 666 81 q 370 -22 475 -22 m 524 515 q 503 603 524 572 q 444 634 481 634 q 346 549 392 634 q 286 334 299 464 q 366 346 326 338 q 428 363 405 353 q 501 421 479 386 q 524 515 524 456 m 685 990 q 671 941 685 960 q 627 903 657 922 q 522 841 593 881 q 359 747 450 802 l 330 772 q 422 899 390 852 q 479 979 455 946 q 534 1035 508 1021 q 600 1050 561 1050 q 659 1032 633 1050 q 685 990 685 1015 z "},"":{"ha":774,"x_min":47,"x_max":744,"o":"m 370 -22 q 228 0 289 -22 q 126 61 166 22 q 67 153 87 100 q 47 268 47 205 q 77 423 47 348 q 166 559 107 498 q 307 652 222 616 q 496 688 393 688 q 681 650 617 688 q 744 534 744 611 q 689 407 744 460 q 540 328 634 353 q 413 296 465 305 q 284 278 360 286 q 292 211 286 248 q 313 147 299 174 q 359 99 329 117 q 435 81 389 81 q 571 112 515 81 q 677 210 627 142 l 727 168 q 571 30 666 81 q 370 -22 475 -22 m 524 515 q 503 603 524 572 q 444 634 481 634 q 346 549 392 634 q 286 334 299 464 q 366 346 326 338 q 428 363 405 353 q 501 421 479 386 q 524 515 524 456 m 615 772 l 584 747 q 430 844 495 806 q 338 901 365 882 q 302 935 314 919 q 291 976 291 951 q 312 1025 291 1000 q 368 1050 334 1050 q 436 1034 411 1050 q 486 979 461 1017 q 539 894 506 949 q 615 772 572 838 z "},"":{"ha":774,"x_min":47,"x_max":744,"o":"m 370 -22 q 228 0 289 -22 q 126 61 166 22 q 67 153 87 100 q 47 268 47 205 q 77 423 47 348 q 166 559 107 498 q 307 652 222 616 q 496 688 393 688 q 681 650 617 688 q 744 534 744 611 q 689 407 744 460 q 540 328 634 353 q 413 296 465 305 q 284 278 360 286 q 292 211 286 248 q 313 147 299 174 q 359 99 329 117 q 435 81 389 81 q 571 112 515 81 q 677 210 627 142 l 727 168 q 571 30 666 81 q 370 -22 475 -22 m 524 515 q 503 603 524 572 q 444 634 481 634 q 346 549 392 634 q 286 334 299 464 q 366 346 326 338 q 428 363 405 353 q 501 421 479 386 q 524 515 524 456 m 709 768 l 673 748 l 484 920 l 241 748 l 207 768 q 323 917 286 869 q 402 1008 361 966 q 443 1040 421 1029 q 503 1050 465 1050 q 558 1040 543 1050 q 587 1011 574 1030 q 643 910 614 972 q 709 768 672 848 z "},"":{"ha":774,"x_min":47,"x_max":750,"o":"m 370 -22 q 228 0 289 -22 q 126 61 166 22 q 67 153 87 100 q 47 268 47 205 q 77 423 47 348 q 166 559 107 498 q 307 652 222 616 q 496 688 393 688 q 681 650 617 688 q 744 534 744 611 q 689 407 744 460 q 540 328 634 353 q 413 296 465 305 q 284 278 360 286 q 292 211 286 248 q 313 147 299 174 q 359 99 329 117 q 435 81 389 81 q 571 112 515 81 q 677 210 627 142 l 727 168 q 571 30 666 81 q 370 -22 475 -22 m 524 515 q 503 603 524 572 q 444 634 481 634 q 346 549 392 634 q 286 334 299 464 q 366 346 326 338 q 428 363 405 353 q 501 421 479 386 q 524 515 524 456 m 750 915 q 719 836 750 869 q 644 802 687 802 q 568 836 599 802 q 536 915 536 870 q 568 994 536 960 q 644 1027 599 1027 q 719 994 687 1027 q 750 915 750 960 m 414 915 q 382 836 414 869 q 307 802 351 802 q 232 836 263 802 q 201 915 201 869 q 232 994 201 960 q 307 1027 262 1027 q 382 994 351 1027 q 414 915 414 960 z "},"":{"ha":508,"x_min":26,"x_max":517,"o":"m 484 97 l 469 36 q 361 -4 401 9 q 269 -18 321 -18 q 142 21 187 -18 q 97 122 97 61 q 100 171 97 146 q 111 227 104 195 l 167 425 q 179 478 174 453 q 184 525 184 504 q 169 578 184 563 q 109 593 153 593 q 65 586 87 593 q 26 573 42 579 l 41 634 q 146 672 96 656 q 241 688 196 688 q 365 649 321 688 q 409 548 409 610 q 406 503 409 535 q 395 443 403 470 l 339 245 q 327 191 332 222 q 321 145 321 161 q 339 92 321 106 q 400 77 357 77 q 446 84 420 77 q 484 97 472 92 m 517 990 q 504 941 517 960 q 459 903 490 922 q 354 841 426 881 q 191 747 282 802 l 163 772 q 255 899 222 852 q 311 979 288 946 q 367 1035 340 1021 q 433 1050 393 1050 q 491 1032 465 1050 q 517 990 517 1015 z "},"":{"ha":508,"x_min":26,"x_max":484,"o":"m 484 97 l 469 36 q 361 -4 401 9 q 269 -18 321 -18 q 142 21 187 -18 q 97 122 97 61 q 100 171 97 146 q 111 227 104 195 l 167 425 q 179 478 174 453 q 184 525 184 504 q 169 578 184 563 q 109 593 153 593 q 65 586 87 593 q 26 573 42 579 l 41 634 q 146 672 96 656 q 241 688 196 688 q 365 649 321 688 q 409 548 409 610 q 406 503 409 535 q 395 443 403 470 l 339 245 q 327 191 332 222 q 321 145 321 161 q 339 92 321 106 q 400 77 357 77 q 446 84 420 77 q 484 97 472 92 m 418 772 l 387 747 q 233 844 298 806 q 141 901 168 882 q 106 935 117 919 q 94 976 94 951 q 116 1025 94 1000 q 172 1050 137 1050 q 239 1034 214 1050 q 290 979 264 1017 q 342 894 309 949 q 418 772 375 838 z "},"":{"ha":508,"x_min":26,"x_max":506,"o":"m 484 97 l 469 36 q 361 -4 401 9 q 269 -18 321 -18 q 142 21 187 -18 q 97 122 97 61 q 100 171 97 146 q 111 227 104 195 l 167 425 q 179 478 174 453 q 184 525 184 504 q 169 578 184 563 q 109 593 153 593 q 65 586 87 593 q 26 573 42 579 l 41 634 q 146 672 96 656 q 241 688 196 688 q 365 649 321 688 q 409 548 409 610 q 406 503 409 535 q 395 443 403 470 l 339 245 q 327 191 332 222 q 321 145 321 161 q 339 92 321 106 q 400 77 357 77 q 446 84 420 77 q 484 97 472 92 m 506 768 l 469 748 l 303 920 l 72 748 l 37 768 q 145 909 98 848 q 219 1008 191 970 q 259 1041 235 1031 q 320 1050 283 1050 q 377 1040 359 1050 q 404 1009 394 1029 q 447 912 423 970 q 506 768 471 853 z "},"":{"ha":508,"x_min":26,"x_max":571,"o":"m 484 97 l 469 36 q 361 -4 401 9 q 269 -18 321 -18 q 142 21 187 -18 q 97 122 97 61 q 100 171 97 146 q 111 227 104 195 l 167 425 q 179 478 174 453 q 184 525 184 504 q 169 578 184 563 q 109 593 153 593 q 65 586 87 593 q 26 573 42 579 l 41 634 q 146 672 96 656 q 241 688 196 688 q 365 649 321 688 q 409 548 409 610 q 406 503 409 535 q 395 443 403 470 l 339 245 q 327 191 332 222 q 321 145 321 161 q 339 92 321 106 q 400 77 357 77 q 446 84 420 77 q 484 97 472 92 m 571 915 q 539 836 571 869 q 465 802 508 802 q 389 836 420 802 q 357 915 357 870 q 389 994 357 960 q 465 1027 420 1027 q 539 994 508 1027 q 571 915 571 960 m 260 915 q 228 836 260 869 q 153 802 196 802 q 77 836 109 802 q 46 915 46 869 q 77 994 46 960 q 153 1027 108 1027 q 228 994 196 1027 q 260 915 260 960 z "},"":{"ha":958,"x_min":20,"x_max":939,"o":"m 939 104 l 924 43 q 817 2 857 16 q 724 -12 777 -12 q 598 29 643 -12 q 553 129 553 69 q 555 171 553 145 q 566 234 557 196 l 615 414 q 626 467 623 444 q 630 505 630 490 q 614 556 630 538 q 562 574 599 574 q 496 556 538 574 q 400 490 453 538 l 288 0 l 64 0 l 160 417 q 171 467 164 436 q 177 517 177 497 q 161 571 177 556 q 103 585 145 585 q 59 578 81 585 q 20 566 36 572 l 35 627 q 140 665 90 649 q 235 681 190 681 q 354 649 315 681 q 407 561 394 618 l 412 561 q 549 655 478 621 q 700 688 620 688 q 818 647 775 688 q 860 547 860 606 q 858 503 860 531 q 846 443 855 475 l 795 252 q 783 198 788 229 q 777 152 777 168 q 794 98 777 113 q 855 84 812 84 q 901 91 876 84 q 939 104 927 98 m 857 1006 q 821 941 844 977 q 767 875 798 905 q 701 822 734 842 q 625 802 667 802 q 548 815 582 802 q 491 842 514 829 q 439 866 467 854 q 385 878 412 878 q 328 847 350 878 q 279 777 307 816 l 231 798 q 267 860 243 823 q 319 926 292 897 q 382 978 347 956 q 456 1000 418 1000 q 522 988 490 1000 q 584 963 554 977 q 638 937 616 947 q 690 926 661 926 q 734 931 718 926 q 761 949 751 937 q 782 982 772 964 q 804 1023 791 1000 l 857 1006 z "},"":{"ha":883,"x_min":45,"x_max":838,"o":"m 838 406 q 805 243 838 321 q 713 107 772 165 q 562 12 648 45 q 368 -22 475 -22 q 134 55 223 -22 q 45 265 45 132 q 79 433 45 355 q 173 568 113 510 q 319 657 233 624 q 507 690 406 690 q 749 615 661 690 q 838 406 838 540 m 599 483 q 572 600 599 562 q 494 637 545 637 q 399 595 442 637 q 328 473 355 553 q 294 327 304 406 q 284 187 284 249 q 311 68 284 105 q 390 31 338 31 q 486 77 446 31 q 551 189 527 122 q 587 333 574 254 q 599 483 599 412 m 718 990 q 704 941 718 960 q 659 903 690 922 q 554 841 626 881 q 391 747 482 802 l 363 772 q 455 899 422 852 q 511 979 488 946 q 567 1035 541 1021 q 633 1050 593 1050 q 691 1032 665 1050 q 718 990 718 1015 z "},"":{"ha":883,"x_min":45,"x_max":838,"o":"m 838 406 q 805 243 838 321 q 713 107 772 165 q 562 12 648 45 q 368 -22 475 -22 q 134 55 223 -22 q 45 265 45 132 q 79 433 45 355 q 173 568 113 510 q 319 657 233 624 q 507 690 406 690 q 749 615 661 690 q 838 406 838 540 m 599 483 q 572 600 599 562 q 494 637 545 637 q 399 595 442 637 q 328 473 355 553 q 294 327 304 406 q 284 187 284 249 q 311 68 284 105 q 390 31 338 31 q 486 77 446 31 q 551 189 527 122 q 587 333 574 254 q 599 483 599 412 m 670 772 l 639 747 q 485 844 550 806 q 393 901 420 882 q 357 935 369 919 q 346 976 346 951 q 367 1025 346 1000 q 423 1050 389 1050 q 491 1034 466 1050 q 541 979 516 1017 q 594 894 561 949 q 670 772 627 838 z "},"":{"ha":883,"x_min":45,"x_max":838,"o":"m 838 406 q 805 243 838 321 q 713 107 772 165 q 562 12 648 45 q 368 -22 475 -22 q 134 55 223 -22 q 45 265 45 132 q 79 433 45 355 q 173 568 113 510 q 319 657 233 624 q 507 690 406 690 q 749 615 661 690 q 838 406 838 540 m 599 483 q 572 600 599 562 q 494 637 545 637 q 399 595 442 637 q 328 473 355 553 q 294 327 304 406 q 284 187 284 249 q 311 68 284 105 q 390 31 338 31 q 486 77 446 31 q 551 189 527 122 q 587 333 574 254 q 599 483 599 412 m 761 768 l 724 748 l 536 920 l 293 748 l 258 768 q 375 917 337 869 q 454 1008 413 966 q 495 1040 473 1029 q 555 1050 517 1050 q 610 1040 594 1050 q 639 1011 626 1030 q 694 910 665 972 q 761 768 724 848 z "},"":{"ha":883,"x_min":45,"x_max":838,"o":"m 838 406 q 805 243 838 321 q 713 107 772 165 q 562 12 648 45 q 368 -22 475 -22 q 134 55 223 -22 q 45 265 45 132 q 79 433 45 355 q 173 568 113 510 q 319 657 233 624 q 507 690 406 690 q 749 615 661 690 q 838 406 838 540 m 599 483 q 572 600 599 562 q 494 637 545 637 q 399 595 442 637 q 328 473 355 553 q 294 327 304 406 q 284 187 284 249 q 311 68 284 105 q 390 31 338 31 q 486 77 446 31 q 551 189 527 122 q 587 333 574 254 q 599 483 599 412 m 802 915 q 770 836 802 869 q 695 802 739 802 q 619 836 650 802 q 588 915 588 870 q 619 994 588 960 q 695 1027 650 1027 q 770 994 739 1027 q 802 915 802 960 m 466 915 q 434 836 466 869 q 359 802 402 802 q 283 836 315 802 q 252 915 252 869 q 283 994 252 960 q 359 1027 314 1027 q 434 994 402 1027 q 466 915 466 960 z "},"":{"ha":883,"x_min":45,"x_max":840,"o":"m 838 406 q 805 243 838 321 q 713 107 772 165 q 562 12 648 45 q 368 -22 475 -22 q 134 55 223 -22 q 45 265 45 132 q 79 433 45 355 q 173 568 113 510 q 319 657 233 624 q 507 690 406 690 q 749 615 661 690 q 838 406 838 540 m 599 483 q 572 600 599 562 q 494 637 545 637 q 399 595 442 637 q 328 473 355 553 q 294 327 304 406 q 284 187 284 249 q 311 68 284 105 q 390 31 338 31 q 486 77 446 31 q 551 189 527 122 q 587 333 574 254 q 599 483 599 412 m 840 1006 q 804 941 827 977 q 751 875 781 905 q 684 822 718 842 q 609 802 650 802 q 532 815 566 802 q 475 842 498 829 q 423 866 450 854 q 369 878 395 878 q 312 847 334 878 q 262 777 290 816 l 214 798 q 251 860 227 823 q 302 926 275 897 q 366 978 330 956 q 439 1000 402 1000 q 506 988 474 1000 q 568 963 538 977 q 622 937 600 947 q 673 926 644 926 q 718 931 701 926 q 745 949 734 937 q 766 982 756 964 q 788 1023 775 1000 l 840 1006 z "},"":{"ha":951,"x_min":23,"x_max":935,"o":"m 545 108 l 540 108 q 404 12 469 43 q 255 -20 340 -20 q 139 22 180 -20 q 98 122 98 63 q 100 165 98 143 q 113 226 102 186 l 163 416 q 175 468 168 435 q 181 517 181 501 q 166 569 181 554 q 106 585 151 585 q 62 578 85 585 q 23 565 39 571 l 38 626 q 143 664 93 648 q 238 680 193 680 q 362 640 319 680 q 406 540 406 600 q 404 495 406 528 q 393 435 401 463 l 343 254 q 332 203 336 231 q 328 163 328 176 q 343 113 328 132 q 395 94 358 94 q 465 116 421 94 q 551 179 509 138 l 663 669 l 880 678 l 888 669 l 791 252 q 780 199 787 232 q 774 151 774 167 q 791 98 774 112 q 852 83 808 83 q 898 91 872 83 q 935 103 924 98 l 920 42 q 813 2 853 16 q 720 -12 773 -12 q 601 21 646 -12 q 545 108 556 55 m 746 990 q 732 941 746 960 q 688 903 718 922 q 583 841 654 881 q 420 747 511 802 l 391 772 q 484 899 451 852 q 540 979 516 946 q 595 1035 569 1021 q 661 1050 622 1050 q 720 1032 694 1050 q 746 990 746 1015 z "},"":{"ha":951,"x_min":23,"x_max":935,"o":"m 545 108 l 540 108 q 404 12 469 43 q 255 -20 340 -20 q 139 22 180 -20 q 98 122 98 63 q 100 165 98 143 q 113 226 102 186 l 163 416 q 175 468 168 435 q 181 517 181 501 q 166 569 181 554 q 106 585 151 585 q 62 578 85 585 q 23 565 39 571 l 38 626 q 143 664 93 648 q 238 680 193 680 q 362 640 319 680 q 406 540 406 600 q 404 495 406 528 q 393 435 401 463 l 343 254 q 332 203 336 231 q 328 163 328 176 q 343 113 328 132 q 395 94 358 94 q 465 116 421 94 q 551 179 509 138 l 663 669 l 880 678 l 888 669 l 791 252 q 780 199 787 232 q 774 151 774 167 q 791 98 774 112 q 852 83 808 83 q 898 91 872 83 q 935 103 924 98 l 920 42 q 813 2 853 16 q 720 -12 773 -12 q 601 21 646 -12 q 545 108 556 55 m 652 772 l 621 747 q 467 844 532 806 q 375 901 402 882 q 340 935 351 919 q 328 976 328 951 q 350 1025 328 1000 q 406 1050 371 1050 q 473 1034 448 1050 q 524 979 498 1017 q 576 894 543 949 q 652 772 609 838 z "},"":{"ha":951,"x_min":23,"x_max":935,"o":"m 545 108 l 540 108 q 404 12 469 43 q 255 -20 340 -20 q 139 22 180 -20 q 98 122 98 63 q 100 165 98 143 q 113 226 102 186 l 163 416 q 175 468 168 435 q 181 517 181 501 q 166 569 181 554 q 106 585 151 585 q 62 578 85 585 q 23 565 39 571 l 38 626 q 143 664 93 648 q 238 680 193 680 q 362 640 319 680 q 406 540 406 600 q 404 495 406 528 q 393 435 401 463 l 343 254 q 332 203 336 231 q 328 163 328 176 q 343 113 328 132 q 395 94 358 94 q 465 116 421 94 q 551 179 509 138 l 663 669 l 880 678 l 888 669 l 791 252 q 780 199 787 232 q 774 151 774 167 q 791 98 774 112 q 852 83 808 83 q 898 91 872 83 q 935 103 924 98 l 920 42 q 813 2 853 16 q 720 -12 773 -12 q 601 21 646 -12 q 545 108 556 55 m 769 768 l 732 748 l 544 920 l 301 748 l 267 768 q 383 917 345 869 q 462 1008 421 966 q 503 1040 481 1029 q 563 1050 525 1050 q 618 1040 602 1050 q 647 1011 634 1030 q 703 910 673 972 q 769 768 732 848 z "},"":{"ha":951,"x_min":23,"x_max":935,"o":"m 545 108 l 540 108 q 404 12 469 43 q 255 -20 340 -20 q 139 22 180 -20 q 98 122 98 63 q 100 165 98 143 q 113 226 102 186 l 163 416 q 175 468 168 435 q 181 517 181 501 q 166 569 181 554 q 106 585 151 585 q 62 578 85 585 q 23 565 39 571 l 38 626 q 143 664 93 648 q 238 680 193 680 q 362 640 319 680 q 406 540 406 600 q 404 495 406 528 q 393 435 401 463 l 343 254 q 332 203 336 231 q 328 163 328 176 q 343 113 328 132 q 395 94 358 94 q 465 116 421 94 q 551 179 509 138 l 663 669 l 880 678 l 888 669 l 791 252 q 780 199 787 232 q 774 151 774 167 q 791 98 774 112 q 852 83 808 83 q 898 91 872 83 q 935 103 924 98 l 920 42 q 813 2 853 16 q 720 -12 773 -12 q 601 21 646 -12 q 545 108 556 55 m 811 915 q 780 836 811 869 q 705 802 748 802 q 629 836 660 802 q 597 915 597 870 q 629 994 597 960 q 705 1027 660 1027 q 780 994 748 1027 q 811 915 811 960 m 475 915 q 444 836 475 869 q 368 802 412 802 q 293 836 324 802 q 262 915 262 869 q 293 994 262 960 q 368 1027 323 1027 q 444 994 412 1027 q 475 915 475 960 z "},"":{"ha":669,"x_min":151,"x_max":692,"o":"m 692 724 q 669 672 692 690 q 616 655 646 655 q 554 668 597 655 q 442 690 511 682 q 389 358 412 511 q 363 189 367 206 q 342 145 356 161 q 295 128 328 128 q 255 141 271 128 q 239 174 239 153 q 242 192 239 180 q 255 238 245 205 q 311 420 277 313 q 391 690 345 528 q 275 670 335 684 q 201 655 214 655 q 165 670 178 655 q 151 705 151 684 q 175 757 151 741 q 229 773 198 773 q 290 759 242 773 q 400 735 338 744 q 407 856 408 804 q 410 926 406 908 q 434 969 415 951 q 480 987 453 987 q 521 975 506 987 q 536 943 536 963 q 530 914 536 930 q 512 873 524 897 q 484 811 500 847 q 453 735 467 776 q 575 759 526 744 q 644 773 625 773 q 679 760 666 773 q 692 724 692 747 z "},"":{"ha":583,"x_min":114,"x_max":580,"o":"m 580 766 q 515 606 580 671 q 347 541 450 541 q 178 607 243 541 q 114 766 114 672 q 180 926 114 863 q 347 990 246 990 q 515 925 450 990 q 580 766 580 861 m 458 760 q 427 886 458 843 q 346 928 397 928 q 265 884 294 928 q 236 768 236 840 q 265 646 236 690 q 349 602 294 602 q 426 644 395 602 q 458 760 458 686 z "},"":{"ha":841,"x_min":77,"x_max":806,"o":"m 762 178 q 710 113 739 145 q 645 56 681 81 q 566 14 610 32 q 463 -13 522 -5 l 421 -203 l 354 -203 l 395 -14 q 161 60 244 -12 q 77 262 77 132 q 208 556 77 430 q 551 692 338 683 l 589 865 l 656 865 l 618 692 q 704 673 669 687 q 762 641 740 659 q 794 604 783 625 q 806 562 806 583 q 770 482 806 516 q 671 448 735 448 q 615 471 642 448 q 585 540 587 494 l 484 80 q 612 113 558 80 q 718 213 667 146 l 762 178 m 419 92 l 538 636 q 466 610 504 632 q 394 543 429 587 q 339 434 361 500 q 317 280 317 368 q 346 157 317 203 q 419 92 374 110 z "},"":{"ha":958,"x_min":6,"x_max":957,"o":"m 692 930 q 660 926 678 930 q 614 899 641 921 q 571 841 591 878 q 536 736 550 803 q 516 619 526 690 q 496 501 506 548 l 763 501 l 746 426 l 486 426 q 405 278 453 326 q 275 191 357 231 l 275 180 l 842 180 l 800 0 l 6 0 l 36 127 q 144 180 103 149 q 207 251 184 211 q 239 335 229 290 q 254 426 250 379 l 118 426 l 135 501 l 264 501 q 274 578 267 528 q 287 667 281 628 q 431 897 309 804 q 722 990 553 990 q 890 941 823 990 q 957 816 957 891 q 926 721 957 758 q 843 685 895 685 q 756 714 789 685 q 724 792 724 744 q 734 855 724 821 q 756 922 745 890 q 726 929 743 927 q 692 930 709 930 z "},"":{"ha":783,"x_min":26,"x_max":779,"o":"m 541 410 q 528 459 541 437 q 491 500 515 481 q 434 534 467 517 q 362 570 401 551 q 297 503 322 543 q 272 422 272 462 q 286 369 272 392 q 323 328 300 346 q 380 293 347 310 q 450 259 414 276 q 520 329 499 292 q 541 410 541 365 m 71 -111 q 36 -66 45 -90 q 26 -21 26 -41 q 50 40 26 16 q 114 64 73 64 q 165 48 144 64 q 201 7 186 33 q 224 -44 214 -16 q 244 -101 235 -73 q 250 -101 248 -101 q 256 -102 253 -102 q 380 -71 336 -102 q 423 21 423 -41 q 411 65 423 46 q 375 101 399 84 q 317 134 352 117 q 244 168 282 151 q 127 250 165 203 q 89 357 89 296 q 139 495 89 439 q 311 592 190 551 q 222 662 248 621 q 196 750 196 703 q 298 919 196 852 q 553 986 399 986 q 664 974 619 986 q 735 939 709 961 q 769 896 759 920 q 779 850 779 873 q 757 790 779 815 q 691 764 735 764 q 640 780 660 764 q 604 821 619 796 q 579 875 587 850 q 561 930 572 900 q 555 930 559 930 q 550 930 552 930 q 432 899 479 930 q 384 809 384 868 q 397 763 384 783 q 434 728 410 743 q 496 694 458 712 q 568 661 534 676 q 685 580 646 626 q 724 472 724 534 q 673 335 724 392 q 502 237 623 278 q 582 175 553 214 q 612 84 612 135 q 514 -88 612 -18 q 252 -157 416 -157 q 140 -144 184 -157 q 71 -111 96 -131 z "},"":{"ha":608,"x_min":87,"x_max":520,"o":"m 520 413 q 457 260 520 323 q 304 197 393 197 q 151 260 214 197 q 87 413 87 323 q 151 566 87 503 q 304 629 214 629 q 457 566 393 629 q 520 413 520 503 z "},"":{"ha":864,"x_min":133,"x_max":958,"o":"m 958 962 l 943 897 l 793 897 l 545 -160 l 471 -160 l 719 897 l 602 897 l 354 -160 l 279 -160 l 425 450 l 399 450 q 266 472 319 450 q 184 528 214 494 q 144 603 155 563 q 133 680 133 642 q 156 785 133 736 q 222 876 178 834 q 329 938 265 914 q 471 962 393 962 l 958 962 z "},"":{"ha":911,"x_min":-313,"x_max":913,"o":"m 199 690 q 254 846 217 776 q 370 970 291 917 q 499 1033 435 1015 q 634 1051 563 1051 q 738 1040 686 1051 q 827 1007 789 1029 q 890 951 867 984 q 913 870 913 918 q 891 778 913 819 q 834 707 869 736 q 756 659 799 678 q 673 633 714 640 l 673 625 q 742 602 709 618 q 804 558 775 587 q 849 492 832 530 q 867 397 867 453 q 752 112 867 231 q 481 -7 637 -7 q 391 -3 436 -7 q 329 6 346 2 l 341 64 q 365 60 348 63 q 401 56 381 56 q 496 90 454 56 q 567 175 538 123 q 612 297 597 231 q 627 437 627 363 q 597 556 627 512 q 501 600 567 600 l 482 600 l 496 660 l 522 660 q 587 673 555 660 q 644 715 619 687 q 686 784 671 745 q 701 885 701 823 q 678 967 701 939 q 612 995 655 995 q 503 936 543 995 q 432 736 462 878 l 284 41 q 136 -201 253 -101 q -117 -301 18 -301 q -217 -289 -179 -301 q -277 -258 -256 -277 q -306 -216 -298 -239 q -313 -170 -313 -193 q -286 -102 -313 -134 q -210 -71 -258 -71 q -146 -90 -173 -71 q -100 -136 -119 -109 q -67 -195 -81 -163 q -44 -246 -52 -228 q 11 -151 -14 -212 q 56 15 35 -89 l 199 690 z "},"":{"ha":1308,"x_min":68,"x_max":1267,"o":"m 1267 408 q 1092 -15 1267 160 q 668 -191 916 -191 q 244 -15 420 -191 q 68 408 68 160 q 244 832 68 656 q 668 1007 420 1007 q 1092 832 916 1007 q 1267 408 1267 656 m 1201 408 q 1046 790 1201 632 q 668 948 892 948 q 290 790 444 948 q 135 408 135 632 q 290 26 135 184 q 668 -132 444 -132 q 1046 26 892 -132 q 1201 408 1201 184 m 1081 98 l 836 98 q 729 255 770 198 q 629 380 687 311 l 606 380 l 606 198 q 611 171 606 181 q 635 152 616 160 q 660 143 644 149 q 688 138 675 138 l 688 98 l 361 98 l 361 138 q 392 142 374 139 q 420 149 410 145 q 443 168 437 157 q 448 195 448 179 l 448 627 q 444 653 448 644 q 420 672 440 663 q 389 683 407 677 q 361 690 371 688 l 361 729 l 710 729 q 890 692 828 729 q 951 580 951 655 q 910 470 951 509 q 799 410 869 431 q 861 330 825 378 q 953 214 898 282 q 990 176 966 197 q 1032 147 1014 154 q 1057 141 1040 144 q 1081 138 1074 138 l 1081 98 m 776 567 q 741 656 776 630 q 640 682 705 682 l 606 682 l 606 427 l 639 427 q 741 460 706 427 q 776 567 776 494 z "},"":{"ha":1308,"x_min":68,"x_max":1267,"o":"m 1267 408 q 1092 -15 1267 160 q 668 -191 916 -191 q 244 -15 420 -191 q 68 408 68 160 q 244 832 68 656 q 668 1007 420 1007 q 1092 832 916 1007 q 1267 408 1267 656 m 1201 408 q 1046 790 1201 632 q 668 948 892 948 q 290 790 444 948 q 135 408 135 632 q 290 26 135 184 q 668 -132 444 -132 q 1046 26 892 -132 q 1201 408 1201 184 m 958 258 q 917 187 942 220 q 855 130 892 153 q 776 91 817 104 q 676 78 734 78 q 545 100 608 78 q 436 163 481 122 q 363 265 390 205 q 337 401 337 324 q 438 648 337 552 q 691 743 538 743 q 787 730 745 743 q 858 701 829 716 l 882 736 l 926 736 l 928 485 l 882 485 q 806 640 847 591 q 697 690 764 690 q 574 617 617 690 q 532 418 532 544 q 578 222 532 291 q 713 153 624 153 q 828 185 781 153 q 913 283 876 218 l 958 258 z "},"":{"ha":1316,"x_min":154,"x_max":1360,"o":"m 1360 497 l 1105 497 l 1105 535 q 1135 538 1120 536 q 1156 543 1150 540 q 1171 556 1167 549 q 1175 574 1175 563 l 1175 872 l 1160 872 l 1013 512 l 971 512 l 829 879 l 814 879 l 814 637 q 818 583 814 601 q 833 554 823 564 q 861 543 839 549 q 900 535 882 536 l 900 497 l 680 497 l 680 535 q 712 540 690 536 q 744 551 734 543 q 760 576 755 560 q 764 634 764 591 l 764 861 q 758 889 764 878 q 744 907 753 900 q 719 919 734 916 q 684 924 703 923 l 684 962 l 913 962 l 1029 656 l 1124 905 q 1135 936 1130 919 q 1141 962 1139 952 l 1360 962 l 1360 924 q 1330 922 1345 924 q 1305 916 1315 920 q 1294 905 1297 912 q 1290 888 1290 897 l 1290 574 q 1293 557 1290 565 q 1305 545 1295 549 q 1329 539 1311 543 q 1360 535 1348 536 l 1360 497 m 614 825 l 582 825 q 554 881 575 847 q 514 918 534 914 q 495 920 507 920 q 468 921 482 921 l 441 921 l 441 576 q 445 559 441 568 q 458 546 448 550 q 481 539 464 544 q 511 535 498 535 l 511 497 l 258 497 l 258 535 q 288 538 272 536 q 310 543 304 541 q 324 556 321 547 q 327 572 327 564 l 327 921 l 307 921 q 281 921 297 921 q 254 918 264 920 q 214 881 235 915 q 186 825 193 847 l 154 825 l 154 962 l 614 962 l 614 825 z "},"":{"ha":694,"x_min":285,"x_max":640,"o":"m 640 990 q 626 941 640 960 q 581 903 612 922 q 476 841 548 881 q 313 747 404 802 l 285 772 q 377 899 345 852 q 433 979 410 946 q 489 1035 463 1021 q 555 1050 515 1050 q 613 1032 587 1050 q 640 990 640 1015 z "},"":{"ha":694,"x_min":167,"x_max":716,"o":"m 716 915 q 685 836 716 869 q 610 802 653 802 q 534 836 565 802 q 503 915 503 870 q 534 994 503 960 q 610 1027 565 1027 q 685 994 653 1027 q 716 915 716 960 m 380 915 q 349 836 380 869 q 273 802 317 802 q 198 836 229 802 q 167 915 167 869 q 198 994 167 960 q 273 1027 229 1027 q 349 994 317 1027 q 380 915 380 960 z "},"":{"ha":977,"x_min":140,"x_max":866,"o":"m 866 194 l 501 194 l 442 0 l 328 0 l 387 194 l 140 194 l 140 304 l 420 304 l 472 475 l 140 475 l 140 585 l 505 585 l 566 786 l 681 786 l 620 585 l 866 585 l 866 475 l 586 475 l 534 304 l 866 304 l 866 194 z "},"":{"ha":1493,"x_min":-148,"x_max":1522,"o":"m 1437 300 l 1350 0 l 461 0 l 473 50 q 526 55 492 51 q 574 64 559 59 q 615 93 602 75 q 633 134 629 111 l 695 403 l 363 403 q 250 259 296 318 q 193 186 204 200 q 150 121 157 138 q 142 98 142 104 q 155 77 142 85 q 186 62 168 68 q 226 54 204 58 q 263 50 248 51 l 252 0 l -148 0 l -136 50 q -84 58 -111 52 q -41 73 -58 64 q 21 112 -6 90 q 75 169 48 135 q 370 530 232 360 q 656 883 507 700 q 598 903 636 896 q 530 913 559 911 l 542 962 l 1522 962 l 1466 717 l 1414 717 q 1375 827 1409 766 q 1292 898 1340 887 q 1237 904 1273 903 q 1177 905 1201 905 l 1051 905 l 964 528 l 1049 528 q 1122 538 1090 528 q 1183 572 1154 548 q 1228 627 1202 587 q 1264 696 1253 667 l 1316 696 l 1223 294 l 1171 294 q 1167 368 1174 327 q 1149 426 1160 410 q 1100 462 1128 454 q 1036 470 1071 470 l 951 470 l 886 187 q 878 147 880 165 q 875 117 875 129 q 904 69 875 80 q 1006 58 932 58 q 1150 69 1107 58 q 1214 96 1192 79 q 1311 199 1255 131 q 1388 300 1367 268 l 1437 300 m 710 467 l 811 905 l 765 905 l 415 467 l 710 467 z "},"":{"ha":1139,"x_min":59,"x_max":1126,"o":"m 864 718 l 338 170 q 402 72 358 106 q 513 37 447 37 q 662 93 595 37 q 773 235 729 149 q 842 433 817 322 q 866 659 866 545 q 865 687 866 671 q 864 718 865 704 m 321 248 l 847 795 q 779 895 823 863 q 673 926 735 926 q 526 871 591 926 q 413 728 460 817 q 343 527 368 640 q 319 302 319 415 q 320 272 319 287 q 321 248 321 258 m 170 95 q 89 216 118 146 q 59 370 59 286 q 109 612 59 498 q 245 810 158 726 q 446 941 331 894 q 688 989 561 989 q 834 969 766 989 q 960 911 903 949 l 1068 1023 l 1118 977 l 1013 869 q 1097 746 1067 817 q 1126 593 1126 676 q 1081 358 1126 471 q 952 160 1035 244 q 753 24 867 74 q 493 -26 638 -26 q 347 -6 417 -26 q 222 52 277 14 l 111 -64 l 60 -18 l 170 95 z "},"":{"ha":1109,"x_min":66,"x_max":1074,"o":"m 1074 391 q 995 153 1074 250 q 804 57 916 57 q 658 103 726 57 q 545 242 591 149 q 453 104 507 150 q 327 58 399 58 q 139 149 212 58 q 66 390 66 241 q 145 628 66 532 q 335 724 224 724 q 481 679 417 724 q 594 538 546 633 q 686 677 629 631 q 814 723 742 723 q 1001 631 929 723 q 1074 391 1074 539 m 993 390 q 943 518 993 471 q 823 564 894 564 q 706 543 756 564 q 622 487 656 522 q 724 286 675 352 q 844 220 773 220 q 952 268 912 220 q 993 390 993 315 m 518 294 q 411 499 459 438 q 296 560 363 560 q 187 512 227 560 q 146 393 146 465 q 197 263 146 310 q 318 216 248 216 q 435 238 384 216 q 518 294 486 259 z "},"":{"ha":977,"x_min":126,"x_max":880,"o":"m 880 0 l 126 0 l 126 111 l 447 111 l 447 378 l 126 378 l 126 489 l 447 489 l 447 810 l 559 810 l 559 489 l 880 489 l 880 378 l 559 378 l 559 111 l 880 111 l 880 0 z "},"":{"ha":977,"x_min":157,"x_max":855,"o":"m 855 186 l 157 471 l 157 568 l 855 852 l 855 726 l 319 519 l 855 313 l 855 186 m 855 0 l 157 0 l 157 111 l 855 111 l 855 0 z "},"":{"ha":977,"x_min":151,"x_max":850,"o":"m 850 471 l 151 186 l 151 313 l 688 519 l 151 726 l 151 852 l 850 568 l 850 471 m 850 0 l 151 0 l 151 111 l 850 111 l 850 0 z "},"":{"ha":1017,"x_min":72,"x_max":1154,"o":"m 1154 962 l 1142 913 q 1103 905 1122 911 q 1063 888 1084 899 q 1004 849 1030 871 q 943 789 977 826 q 790 616 884 724 q 618 417 696 508 l 612 394 l 907 394 l 889 318 l 597 318 l 560 158 q 556 139 558 150 q 554 118 554 127 q 563 88 554 100 q 584 71 571 77 q 629 58 597 64 q 683 49 661 51 l 671 0 l 143 0 l 155 49 q 211 54 174 50 q 262 64 248 58 q 304 94 290 75 q 323 136 318 113 l 364 318 l 72 318 l 90 394 l 383 394 l 387 409 q 316 610 358 492 q 248 794 274 727 q 217 854 234 831 q 176 891 199 878 q 138 906 160 901 q 99 913 117 912 l 111 962 l 628 962 l 616 913 q 580 912 603 913 q 534 907 557 911 q 498 896 514 904 q 483 873 483 887 q 487 844 483 863 q 505 779 490 825 q 542 671 518 738 q 602 507 566 605 q 745 672 694 614 q 829 772 795 730 q 884 843 873 827 q 895 871 895 860 q 871 900 895 890 q 789 913 848 909 l 801 962 l 1154 962 z "},"":{"ha":940,"x_min":-45,"x_max":924,"o":"m 540 179 l 652 669 l 868 678 l 876 669 l 780 252 q 769 199 775 232 q 762 151 762 167 q 780 98 762 112 q 840 83 797 83 q 886 91 861 83 q 924 103 912 98 l 909 42 q 802 2 842 16 q 709 -12 762 -12 q 589 21 634 -12 q 533 108 545 55 l 528 108 q 426 15 486 48 q 320 -18 367 -18 q 242 -7 272 -18 q 189 29 212 3 l 181 29 q 177 -6 179 19 q 176 -45 176 -31 q 181 -100 176 -66 q 186 -159 186 -134 q 149 -263 186 -225 q 48 -301 112 -301 q -18 -279 8 -301 q -45 -214 -45 -256 q -15 -116 -45 -180 q 24 -30 16 -52 q 50 39 41 9 q 66 99 60 68 l 198 669 l 413 678 l 421 669 l 320 233 q 314 200 317 219 q 312 171 312 181 q 329 111 312 130 q 385 92 347 92 q 454 106 423 92 q 540 179 485 121 z "},"":{"ha":899,"x_min":75,"x_max":849,"o":"m 758 865 q 826 738 804 810 q 849 586 849 665 q 827 395 849 494 q 749 201 806 296 q 593 34 683 91 q 391 -24 503 -24 q 160 57 246 -24 q 75 274 75 138 q 101 411 75 347 q 172 524 127 475 q 272 595 215 570 q 387 621 329 621 q 534 588 478 621 q 618 502 589 556 q 621 546 620 521 q 623 595 623 571 q 613 721 623 659 q 581 831 604 784 q 518 905 557 878 q 420 932 479 932 q 402 931 413 932 q 377 928 391 930 q 394 868 388 897 q 400 800 400 840 q 368 725 400 752 q 282 697 336 697 q 201 729 231 697 q 172 809 172 761 q 257 939 172 888 q 466 990 342 990 q 639 956 566 990 q 758 865 712 922 m 542 162 q 579 278 566 219 q 599 386 593 337 q 560 496 593 455 q 472 536 527 536 q 353 446 405 536 q 301 231 301 355 q 306 157 301 187 q 324 95 310 126 q 358 51 336 68 q 410 34 379 34 q 485 72 450 34 q 542 162 520 109 z "},"":{"ha":1013,"x_min":31,"x_max":1004,"o":"m 1004 96 l 901 -281 l 31 -281 l 31 -218 l 503 315 l 41 894 l 41 962 l 898 962 l 928 669 l 873 669 q 781 819 819 769 q 713 881 743 869 q 654 895 691 890 q 566 900 618 900 l 323 900 l 688 448 l 688 427 l 237 -82 l 751 -82 q 821 -64 789 -82 q 876 -19 852 -46 q 918 41 898 7 q 953 112 938 75 l 1004 96 z "},"":{"ha":1295,"x_min":68,"x_max":1257,"o":"m 1257 -281 l 736 -281 l 736 -228 q 786 -223 753 -227 q 831 -216 819 -220 q 865 -189 856 -205 q 875 -146 875 -172 l 875 894 l 450 894 l 450 -139 q 460 -180 450 -162 q 494 -209 470 -199 q 537 -220 506 -214 q 589 -228 569 -227 l 589 -281 l 68 -281 l 68 -228 q 118 -223 85 -227 q 166 -214 151 -220 q 200 -188 191 -205 q 210 -145 210 -170 l 210 894 l 68 894 l 68 962 l 1257 962 l 1257 894 l 1116 894 l 1116 -139 q 1124 -180 1116 -163 q 1159 -209 1133 -197 q 1206 -221 1175 -216 q 1257 -228 1237 -227 l 1257 -281 z "},"":{"ha":872,"x_min":8,"x_max":887,"o":"m 846 1001 q 879 953 871 979 q 887 903 887 928 q 856 830 887 862 q 779 799 825 799 q 687 847 718 799 q 656 996 656 896 q 650 997 652 997 q 645 996 648 996 q 580 927 603 996 q 557 731 557 859 l 557 114 q 532 -65 557 23 q 456 -204 507 -153 q 351 -277 409 -252 q 245 -301 293 -301 q 121 -288 168 -301 q 49 -252 74 -274 q 16 -205 24 -231 q 8 -155 8 -179 q 38 -83 8 -117 q 117 -50 68 -50 q 210 -99 180 -50 q 239 -247 239 -148 q 245 -248 243 -248 q 250 -248 248 -248 q 314 -183 290 -248 q 338 22 338 -118 l 338 635 q 362 818 338 738 q 439 953 387 899 q 545 1025 486 1001 q 650 1050 604 1050 q 775 1036 728 1050 q 846 1001 823 1023 z "},"":{"ha":766,"x_min":108,"x_max":820,"o":"m 820 516 l 806 463 q 716 431 751 442 q 638 419 682 419 q 544 443 579 419 q 496 498 508 466 l 491 498 q 406 438 452 463 q 304 413 360 413 q 156 470 204 413 q 108 624 108 526 q 209 881 108 774 q 448 988 309 988 q 534 977 498 988 q 596 945 570 966 l 771 980 l 779 971 l 699 636 q 689 594 694 620 q 684 555 684 568 q 698 512 684 524 q 749 500 712 500 q 785 505 764 500 q 820 516 806 510 m 560 844 q 557 873 560 857 q 547 901 555 888 q 523 922 538 913 q 481 930 507 930 q 361 839 410 930 q 313 625 313 748 q 333 529 313 559 q 398 500 353 500 q 451 518 427 500 q 492 555 475 536 l 560 844 z "},"":{"ha":766,"x_min":113,"x_max":767,"o":"m 767 758 q 659 512 767 612 q 378 411 551 411 q 185 474 258 411 q 113 644 113 536 q 219 889 113 791 q 494 988 326 988 q 699 924 631 988 q 767 758 767 860 m 530 584 q 559 698 550 637 q 568 817 568 759 q 548 906 568 876 q 483 937 528 937 q 403 903 438 937 q 347 810 368 869 q 320 695 328 761 q 312 584 312 629 q 334 490 312 517 q 398 462 355 462 q 478 497 445 462 q 530 584 511 533 z "},"":{"ha":1219,"x_min":-11,"x_max":1208,"o":"m 1208 296 l 1061 0 l 585 0 l 600 66 q 720 194 663 130 q 819 330 777 258 q 883 481 861 402 q 906 671 906 561 q 898 766 906 721 q 866 847 889 810 q 808 904 844 883 q 716 926 772 926 q 631 910 667 926 q 561 865 595 895 q 505 799 530 838 q 462 720 481 761 q 411 554 427 641 q 395 414 395 467 q 419 223 395 294 q 481 66 443 153 l 466 0 l 23 0 l -11 303 l 38 317 q 55 268 44 294 q 81 219 66 241 q 119 181 96 197 q 172 166 142 166 l 348 166 l 348 180 q 267 257 307 217 q 201 334 227 298 q 158 420 174 373 q 142 525 142 468 q 182 697 142 615 q 299 846 222 780 q 482 949 372 910 q 722 989 592 989 q 914 962 830 989 q 1054 890 998 936 q 1139 785 1109 846 q 1168 654 1168 724 q 1144 509 1168 574 q 1071 388 1120 444 q 954 282 1025 335 q 798 180 882 229 l 798 166 l 964 166 q 1063 206 1014 166 q 1162 311 1113 245 l 1208 296 z "},"":{"ha":1190,"x_min":16,"x_max":1148,"o":"m 848 634 q 749 549 792 634 q 692 333 706 465 q 770 346 732 338 q 832 363 809 353 q 908 425 888 388 q 928 515 928 463 q 907 603 928 572 q 848 634 886 634 m 900 688 q 1084 650 1020 688 q 1148 534 1148 612 q 1095 408 1148 460 q 944 328 1041 355 q 818 295 869 305 q 690 277 766 286 q 696 210 690 248 q 717 147 703 173 q 763 99 733 117 q 839 81 793 81 q 975 112 919 81 q 1082 210 1031 142 l 1131 168 q 975 30 1070 81 q 774 -22 880 -22 q 595 14 666 -22 q 491 111 524 51 l 486 111 q 435 64 466 90 q 372 22 405 39 q 291 -10 332 1 q 190 -22 249 -22 q 64 18 113 -22 q 16 125 16 58 q 32 211 16 175 q 75 273 47 246 q 134 315 100 298 q 202 344 168 332 q 364 389 281 372 q 488 414 446 407 l 506 491 q 511 516 508 501 q 513 548 513 532 q 494 612 513 590 q 435 634 474 634 q 378 625 401 634 q 347 611 355 616 q 350 584 347 600 q 353 545 353 568 q 348 511 353 533 q 331 474 342 488 q 291 444 316 456 q 218 431 267 431 q 143 453 169 431 q 117 513 117 474 q 151 588 117 555 q 235 643 184 621 q 345 677 285 665 q 456 688 404 688 q 582 674 524 688 q 677 629 640 661 q 781 671 724 654 q 900 688 838 688 m 471 172 q 466 211 467 186 q 464 254 464 235 q 467 308 464 286 q 475 353 470 330 q 389 333 431 346 q 315 298 346 319 q 263 243 282 277 q 244 163 244 210 q 268 102 244 121 q 321 83 291 83 q 397 104 356 83 q 471 172 437 126 z "},"":{"ha":883,"x_min":8,"x_max":865,"o":"m 546 170 q 585 302 570 227 q 602 450 600 376 l 284 142 q 316 62 290 92 q 390 31 342 31 q 483 71 444 31 q 546 170 522 110 m 333 496 q 296 362 309 436 q 281 222 284 289 l 598 530 q 567 607 591 576 q 494 637 543 637 q 406 603 448 637 q 333 496 364 570 m 123 71 q 65 158 85 109 q 45 265 45 208 q 79 433 45 355 q 173 568 113 510 q 319 657 233 624 q 507 690 406 690 q 625 675 574 690 q 711 640 675 661 l 821 745 l 865 703 l 760 602 q 818 514 799 563 q 838 406 838 465 q 805 243 838 321 q 713 107 772 165 q 562 12 648 45 q 368 -22 475 -22 q 261 -7 311 -22 q 171 32 210 7 l 53 -82 l 8 -41 l 123 71 z "},"":{"ha":762,"x_min":35,"x_max":673,"o":"m 673 859 q 634 770 673 808 q 542 732 595 732 q 451 770 490 732 q 412 859 412 808 q 451 948 412 911 q 542 985 490 985 q 634 948 595 985 q 673 859 673 911 m 656 176 q 560 37 656 94 q 328 -20 464 -20 q 119 46 203 -20 q 35 223 35 113 q 152 471 35 375 q 461 580 269 566 l 481 672 l 539 672 l 487 408 q 296 341 368 399 q 223 176 223 283 q 258 74 223 110 q 355 38 293 38 q 405 45 381 38 q 452 67 429 53 q 438 119 445 89 q 431 174 431 149 q 462 251 431 222 q 547 279 494 279 q 626 250 596 279 q 656 176 656 220 z "},"":{"ha":523,"x_min":81,"x_max":511,"o":"m 511 856 q 472 767 511 804 q 380 729 433 729 q 289 767 328 729 q 250 856 250 804 q 289 944 250 907 q 380 981 328 981 q 472 944 433 981 q 511 856 511 907 m 363 648 q 355 376 355 489 q 355 215 355 262 q 354 152 355 181 q 347 104 352 122 q 288 12 332 43 q 188 -20 243 -20 q 112 8 142 -20 q 81 77 81 36 q 91 132 81 104 q 123 212 100 160 q 204 392 149 268 q 311 648 260 516 l 363 648 z "},"":{"ha":977,"x_min":126,"x_max":873,"o":"m 873 34 l 758 34 l 758 355 l 126 355 l 126 465 l 873 465 l 873 34 z "},"":{"ha":977,"x_min":79,"x_max":1183,"o":"m 1183 1169 l 507 -85 l 420 -85 l 214 556 l 79 556 l 79 640 l 361 640 l 526 138 l 1080 1169 l 1183 1169 z "},"":{"ha":804,"x_min":-157,"x_max":848,"o":"m 484 433 q 461 309 475 390 q 425 140 446 229 q 374 -9 408 63 q 287 -136 340 -81 q 166 -220 233 -190 q 6 -250 99 -250 q -115 -219 -72 -250 q -157 -132 -157 -187 q -127 -59 -157 -90 q -46 -28 -98 -28 q 37 -66 8 -28 q 95 -187 66 -104 q 155 -76 134 -166 q 189 77 176 15 q 227 274 208 170 q 256 433 247 378 l 108 433 l 125 509 l 269 509 q 315 647 282 579 q 400 769 349 715 q 524 855 451 822 q 685 888 597 888 q 806 857 764 888 q 848 774 848 825 q 842 736 848 757 q 823 702 836 716 q 790 676 808 685 q 736 667 771 667 q 685 677 705 667 q 651 707 665 688 q 622 758 635 728 q 595 825 609 788 q 540 736 561 805 q 503 562 519 667 l 494 509 l 688 509 l 671 433 l 484 433 z "},"":{"ha":977,"x_min":127,"x_max":880,"o":"m 880 642 q 847 574 869 611 q 793 505 825 537 q 722 451 760 471 q 635 431 685 431 q 544 445 585 431 q 467 477 503 459 q 399 509 438 492 q 330 525 361 525 q 253 496 283 525 q 194 406 222 468 l 127 436 q 160 503 138 467 q 213 570 182 539 q 284 622 243 600 q 371 644 326 644 q 465 628 424 644 q 540 596 506 613 q 607 564 576 578 q 676 549 637 549 q 757 583 728 549 q 812 671 785 616 l 880 642 m 880 357 q 847 289 869 326 q 793 220 825 252 q 722 166 760 186 q 635 146 685 146 q 544 160 585 146 q 467 193 503 174 q 399 224 438 208 q 330 240 361 240 q 253 212 283 240 q 194 121 222 183 l 127 151 q 160 218 138 182 q 213 286 182 254 q 284 337 243 315 q 371 359 326 359 q 465 343 424 359 q 540 311 506 328 q 607 279 576 293 q 676 264 637 264 q 757 298 728 264 q 812 387 785 331 l 880 357 z "},"":{"ha":1033,"x_min":-71,"x_max":945,"o":"m 936 0 l -71 0 l -62 39 l 604 976 l 735 976 l 945 39 l 936 0 m 680 132 l 539 761 l 96 132 l 680 132 z "},"":{"ha":848,"x_min":104,"x_max":831,"o":"m 420 94 l 378 65 q 233 186 296 134 q 135 272 169 239 q 112 303 120 286 q 104 340 104 320 q 122 411 104 382 q 180 468 140 441 q 308 552 242 509 q 506 675 374 595 l 534 646 l 269 361 l 420 94 m 718 94 l 676 65 q 530 186 594 134 q 433 272 467 239 q 410 303 418 286 q 402 340 402 320 q 420 411 402 382 q 477 468 437 441 q 606 552 540 509 q 804 675 672 595 l 831 646 l 566 361 l 718 94 z "},"":{"ha":848,"x_min":32,"x_max":759,"o":"m 759 400 q 740 329 759 361 q 684 272 722 297 q 545 182 637 242 q 357 65 452 122 l 330 94 l 595 378 l 444 646 l 485 675 q 631 553 566 607 q 728 468 695 500 q 751 437 743 454 q 759 400 759 420 m 461 400 q 443 329 461 361 q 386 272 424 297 q 247 182 340 242 q 60 65 155 122 l 32 94 l 297 378 l 146 646 l 187 675 q 333 553 269 607 q 431 468 397 500 q 453 437 446 454 q 461 400 461 420 z "},"":{"ha":1308,"x_min":78,"x_max":1210,"o":"m 1210 107 q 1172 18 1210 55 q 1080 -20 1133 -20 q 988 18 1027 -20 q 950 107 950 55 q 988 197 950 159 q 1080 235 1027 235 q 1172 197 1133 235 q 1210 107 1210 159 m 774 107 q 735 18 774 55 q 644 -20 697 -20 q 552 18 591 -20 q 514 107 514 55 q 552 197 514 159 q 644 235 591 235 q 735 197 697 235 q 774 107 774 159 m 338 107 q 299 18 338 55 q 208 -20 261 -20 q 116 18 155 -20 q 78 107 78 55 q 116 197 78 159 q 208 235 155 235 q 299 197 261 235 q 338 107 338 159 z "},"":{"ha":1053,"x_min":-118,"x_max":1023,"o":"m 605 387 l 546 738 l 326 387 l 605 387 m 496 0 l 508 50 q 617 67 578 55 q 656 93 656 79 q 654 114 656 105 q 651 134 653 123 l 617 323 l 286 323 q 244 257 269 298 q 203 187 220 216 q 173 124 177 141 q 168 102 168 107 q 200 69 168 82 q 298 50 232 56 l 286 0 l -118 0 l -106 50 q -57 56 -87 51 q -7 73 -27 62 q 47 111 22 87 q 94 169 72 135 q 347 560 231 380 q 614 976 462 739 l 748 976 q 834 473 800 672 q 895 141 869 275 q 908 104 898 121 q 939 73 918 87 q 979 56 956 62 q 1023 50 1002 51 l 1011 0 l 496 0 m 825 1035 l 798 1007 q 630 1080 698 1053 q 532 1120 562 1107 q 486 1149 503 1133 q 469 1187 469 1164 q 495 1244 469 1222 q 570 1267 522 1267 q 619 1255 597 1267 q 663 1215 640 1242 q 733 1135 693 1180 q 825 1035 774 1090 z "},"":{"ha":1053,"x_min":-118,"x_max":1023,"o":"m 605 387 l 546 738 l 326 387 l 605 387 m 496 0 l 508 50 q 617 67 578 55 q 656 93 656 79 q 654 114 656 105 q 651 134 653 123 l 617 323 l 286 323 q 244 257 269 298 q 203 187 220 216 q 173 124 177 141 q 168 102 168 107 q 200 69 168 82 q 298 50 232 56 l 286 0 l -118 0 l -106 50 q -57 56 -87 51 q -7 73 -27 62 q 47 111 22 87 q 94 169 72 135 q 347 560 231 380 q 614 976 462 739 l 748 976 q 834 473 800 672 q 895 141 869 275 q 908 104 898 121 q 939 73 918 87 q 979 56 956 62 q 1023 50 1002 51 l 1011 0 l 496 0 m 1021 1254 q 985 1189 1008 1225 q 932 1122 962 1153 q 865 1070 899 1090 q 790 1050 831 1050 q 713 1063 747 1050 q 656 1089 679 1076 q 604 1114 631 1102 q 550 1125 576 1125 q 493 1094 515 1125 q 444 1025 471 1063 l 395 1045 q 432 1107 408 1070 q 484 1173 456 1144 q 547 1225 511 1204 q 621 1247 583 1247 q 687 1236 655 1247 q 749 1211 719 1225 q 803 1184 781 1195 q 854 1173 825 1173 q 899 1179 882 1173 q 926 1197 916 1185 q 947 1229 937 1211 q 969 1270 956 1247 l 1021 1254 z "},"":{"ha":1139,"x_min":59,"x_max":1126,"o":"m 1126 593 q 1081 358 1126 471 q 952 160 1035 244 q 753 24 867 74 q 493 -26 638 -26 q 181 83 303 -26 q 59 370 59 193 q 109 612 59 498 q 245 810 158 726 q 446 941 331 894 q 688 989 561 989 q 1003 882 880 989 q 1126 593 1126 774 m 772 238 q 840 442 818 332 q 863 659 863 552 q 815 854 863 783 q 673 926 768 926 q 525 870 591 926 q 415 726 460 814 q 347 525 370 637 q 323 302 323 413 q 370 110 323 182 q 513 37 418 37 q 662 94 595 37 q 772 238 728 151 m 1021 1254 q 985 1189 1008 1225 q 931 1122 962 1153 q 865 1070 899 1090 q 789 1050 831 1050 q 712 1063 746 1050 q 655 1089 678 1076 q 603 1114 631 1102 q 549 1125 576 1125 q 492 1094 514 1125 q 443 1025 471 1063 l 395 1045 q 431 1107 407 1070 q 483 1173 456 1144 q 547 1225 511 1204 q 620 1247 583 1247 q 686 1236 654 1247 q 748 1211 718 1225 q 802 1184 780 1195 q 854 1173 825 1173 q 898 1179 882 1173 q 925 1197 915 1185 q 946 1229 937 1211 q 968 1270 956 1247 l 1021 1254 z "},"":{"ha":1535,"x_min":59,"x_max":1565,"o":"m 1565 962 l 1508 717 l 1457 717 q 1412 835 1447 781 q 1335 898 1377 888 q 1280 904 1316 903 q 1220 905 1244 905 l 1094 905 l 1006 528 l 1092 528 q 1165 538 1133 528 q 1225 571 1198 548 q 1270 627 1244 587 q 1307 696 1296 667 l 1358 696 l 1265 294 l 1214 294 q 1210 368 1217 327 q 1192 426 1203 410 q 1146 461 1173 452 q 1079 470 1118 470 l 994 470 l 928 187 q 920 147 923 165 q 918 117 918 129 q 947 69 918 80 q 1049 58 976 58 q 1184 68 1136 58 q 1257 96 1232 78 q 1354 199 1298 131 q 1430 300 1411 267 l 1480 300 l 1392 0 l 512 0 q 361 18 441 0 q 214 78 281 35 q 100 197 141 124 q 59 368 59 270 q 112 620 59 507 q 267 814 164 732 q 479 923 355 884 q 734 962 602 962 l 1565 962 m 851 902 q 789 904 828 903 q 728 904 751 904 q 552 856 629 904 q 421 719 475 808 q 349 536 373 641 q 325 338 325 432 q 388 132 325 205 q 567 58 452 58 q 608 59 583 58 q 657 60 634 59 l 851 902 z "},"":{"ha":1295,"x_min":45,"x_max":1265,"o":"m 1265 534 q 1211 407 1265 460 q 1061 328 1156 353 q 934 297 987 307 q 806 278 882 286 q 814 210 807 248 q 834 147 821 172 q 880 99 850 117 q 956 81 910 81 q 1092 112 1036 81 q 1199 210 1148 142 l 1249 168 q 1092 30 1187 81 q 892 -22 997 -22 q 751 3 812 -22 q 650 66 690 28 q 520 2 591 26 q 368 -22 450 -22 q 134 55 223 -22 q 45 265 45 132 q 79 433 45 355 q 173 568 113 510 q 319 657 233 624 q 507 690 406 690 q 651 665 589 690 q 753 604 712 641 q 873 664 804 640 q 1017 688 941 688 q 1202 650 1139 688 q 1265 534 1265 611 m 1045 515 q 1024 603 1045 572 q 966 634 1003 634 q 870 554 916 634 q 808 334 824 475 q 887 346 848 338 q 949 363 926 353 q 1023 421 1000 386 q 1045 515 1045 456 m 599 483 q 572 600 599 562 q 494 637 545 637 q 402 598 445 637 q 328 473 359 560 q 294 327 304 406 q 284 187 284 249 q 311 68 284 105 q 390 31 338 31 q 486 77 446 31 q 551 189 527 122 q 587 333 574 254 q 599 483 599 412 z "},"":{"ha":977,"x_min":66,"x_max":926,"o":"m 901 334 l 66 334 l 92 444 l 926 444 l 901 334 z "},"":{"ha":1289,"x_min":66,"x_max":1238,"o":"m 1213 334 l 66 334 l 92 444 l 1238 444 l 1213 334 z "},"":{"ha":721,"x_min":135,"x_max":798,"o":"m 463 987 q 392 950 432 973 q 329 905 353 926 q 280 850 302 880 q 245 780 258 819 l 283 780 q 372 758 342 780 q 401 695 401 735 q 357 601 401 644 q 254 559 314 559 q 163 593 191 559 q 135 682 135 627 q 225 886 135 788 q 444 1035 315 983 l 463 987 m 798 987 q 727 950 766 973 q 663 905 687 926 q 614 850 636 880 q 580 780 592 819 l 618 780 q 706 758 677 780 q 735 695 735 735 q 692 601 735 644 q 589 559 648 559 q 497 593 526 559 q 469 682 469 627 q 559 886 469 788 q 779 1035 649 983 l 798 987 z "},"":{"ha":721,"x_min":137,"x_max":800,"o":"m 465 915 q 375 711 465 808 q 156 562 286 613 l 137 610 q 208 647 168 623 q 271 692 248 670 q 320 747 298 716 q 355 817 342 777 l 317 817 q 229 839 258 817 q 199 901 199 861 q 243 995 199 953 q 346 1038 286 1038 q 437 1003 409 1038 q 465 915 465 969 m 800 915 q 710 711 800 808 q 490 562 620 613 l 471 610 q 542 647 503 623 q 606 692 582 670 q 655 747 633 716 q 689 817 677 777 l 651 817 q 563 839 592 817 q 534 901 534 861 q 577 995 534 953 q 680 1038 621 1038 q 771 1003 743 1038 q 800 915 800 969 z "},"":{"ha":373,"x_min":128,"x_max":456,"o":"m 456 987 q 386 950 425 973 q 322 905 346 926 q 273 850 295 880 q 239 780 251 819 l 277 780 q 365 758 336 780 q 394 695 394 735 q 351 601 394 644 q 248 559 307 559 q 156 593 184 559 q 128 682 128 627 q 218 886 128 788 q 437 1035 308 983 l 456 987 z "},"":{"ha":373,"x_min":130,"x_max":458,"o":"m 458 915 q 368 711 458 808 q 149 562 278 613 l 130 610 q 200 647 161 623 q 264 692 240 670 q 313 747 291 716 q 347 817 335 777 l 309 817 q 221 839 250 817 q 192 901 192 861 q 235 995 192 953 q 338 1038 279 1038 q 430 1003 401 1038 q 458 915 458 969 z "},"":{"ha":977,"x_min":126,"x_max":880,"o":"m 613 666 q 581 586 613 619 q 503 553 548 553 q 425 586 458 553 q 393 666 393 619 q 425 746 393 713 q 503 779 458 779 q 581 746 548 779 q 613 666 613 713 m 880 334 l 126 334 l 126 445 l 880 445 l 880 334 m 613 113 q 581 33 613 66 q 503 0 548 0 q 425 33 458 0 q 393 113 393 66 q 425 193 393 159 q 503 226 458 226 q 581 193 548 226 q 613 113 613 159 z "},"":{"ha":997,"x_min":95,"x_max":932,"o":"m 932 444 l 513 -27 l 95 444 l 513 915 l 932 444 m 785 444 l 513 751 l 242 444 l 513 137 l 785 444 z "},"":{"ha":930,"x_min":23,"x_max":885,"o":"m 545 109 l 540 109 q 399 12 463 39 q 256 -16 334 -16 q 139 26 181 -16 q 98 127 98 68 q 100 170 98 149 q 113 231 102 192 l 163 416 q 175 468 168 435 q 181 517 181 501 q 166 570 181 555 q 106 585 151 585 q 62 578 85 585 q 23 565 39 571 l 38 626 q 143 664 93 648 q 238 680 193 680 q 362 640 319 680 q 406 540 406 600 q 404 495 406 528 q 393 435 401 463 l 343 258 q 332 208 336 235 q 328 168 328 180 q 345 117 328 134 q 397 99 361 99 q 473 122 427 99 q 557 182 519 144 l 661 669 l 876 678 l 885 667 l 766 116 q 690 -88 739 -7 q 577 -216 642 -168 q 444 -281 515 -261 q 298 -301 372 -301 q 164 -289 217 -301 q 81 -256 111 -277 q 44 -214 54 -237 q 34 -168 34 -191 q 62 -98 34 -129 q 138 -68 90 -68 q 203 -87 174 -68 q 254 -135 232 -107 q 291 -194 275 -161 q 317 -246 308 -226 q 347 -238 329 -244 q 377 -223 365 -231 q 408 -200 395 -212 q 439 -165 422 -189 q 500 -52 473 -119 q 545 109 526 15 m 811 915 q 780 836 811 869 q 705 802 748 802 q 629 836 660 802 q 597 915 597 870 q 629 994 597 960 q 705 1027 660 1027 q 780 994 748 1027 q 811 915 811 960 m 475 915 q 444 836 475 869 q 368 802 412 802 q 293 836 324 802 q 262 915 262 869 q 293 994 262 960 q 368 1027 323 1027 q 444 994 412 1027 q 475 915 475 960 z "},"":{"ha":1017,"x_min":85,"x_max":1200,"o":"m 1200 962 l 1189 913 q 1146 905 1166 910 q 1101 886 1126 899 q 1042 847 1068 869 q 982 787 1016 824 q 859 651 899 696 q 711 479 819 606 q 640 381 652 410 q 612 283 627 353 l 583 157 q 578 135 580 146 q 576 120 576 125 q 583 91 576 104 q 607 71 589 79 q 654 58 623 64 q 706 50 686 52 l 694 0 l 158 0 l 170 50 q 225 55 189 51 q 277 64 262 59 q 317 94 303 75 q 337 137 332 113 l 377 310 q 385 343 381 329 q 388 369 388 358 q 380 406 388 383 q 361 463 373 428 q 299 638 321 578 q 241 792 278 698 q 210 851 228 827 q 170 890 192 876 q 130 906 154 901 q 85 913 106 911 l 96 962 l 634 962 l 623 913 q 518 902 553 911 q 484 873 484 892 q 490 839 484 865 q 515 752 496 812 q 555 632 529 706 q 613 471 581 559 q 770 654 699 570 q 868 771 842 738 q 926 848 918 833 q 933 869 933 863 q 901 900 933 890 q 823 913 869 910 l 834 962 l 1200 962 m 1014 1154 q 982 1075 1014 1109 q 907 1042 951 1042 q 831 1076 863 1042 q 800 1154 800 1109 q 831 1233 800 1200 q 907 1267 863 1267 q 982 1233 951 1267 q 1014 1154 1014 1200 m 650 1154 q 618 1075 650 1109 q 543 1042 587 1042 q 468 1075 499 1042 q 437 1154 437 1108 q 468 1233 437 1200 q 543 1267 498 1267 q 618 1233 587 1267 q 650 1154 650 1200 z "},"":{"ha":132,"x_min":-336,"x_max":509,"o":"m 509 969 l -231 0 l -336 0 l 401 969 l 509 969 z "},"":{"ha":994,"x_min":-3,"x_max":1065,"o":"m 1065 962 l 990 611 l 930 611 q 856 845 917 765 q 687 926 794 926 q 591 894 645 926 q 495 807 537 862 q 444 722 468 771 q 401 614 419 672 l 652 614 l 604 536 l 379 536 q 367 483 373 509 q 358 431 361 456 l 541 431 l 492 353 l 351 353 l 351 345 q 408 133 351 200 q 566 66 464 66 q 744 120 659 66 q 905 277 829 174 l 958 241 q 878 140 924 190 q 773 54 832 90 q 646 -5 711 15 q 489 -26 581 -26 q 198 74 305 -26 q 86 353 90 173 l -3 353 l 45 431 l 92 431 q 102 483 96 457 q 118 536 109 509 l 39 536 l 87 614 l 150 614 q 210 722 177 674 q 281 807 243 770 q 473 940 366 891 q 689 988 581 988 q 842 969 768 988 q 956 925 916 950 l 1006 962 l 1065 962 z "},"":{"ha":550,"x_min":103,"x_max":539,"o":"m 425 94 l 384 65 q 242 180 315 121 q 134 272 168 239 q 111 303 119 286 q 103 340 103 320 q 121 411 103 382 q 178 468 138 441 q 318 557 229 501 q 511 675 408 612 l 539 646 l 281 361 l 425 94 z "},"":{"ha":550,"x_min":26,"x_max":463,"o":"m 463 400 q 444 329 463 361 q 387 272 425 297 q 245 182 341 242 q 54 65 149 121 l 26 94 l 285 378 l 140 646 l 182 675 q 324 560 250 620 q 432 468 398 500 q 455 437 447 454 q 463 400 463 420 z "},"":{"ha":975,"x_min":-295,"x_max":954,"o":"m 420 589 q 362 298 387 421 q 302 41 337 175 q 247 -89 286 -25 q 155 -198 208 -152 q 34 -274 99 -247 q -99 -301 -31 -301 q -199 -289 -161 -301 q -259 -258 -237 -277 q -288 -216 -280 -239 q -295 -170 -295 -193 q -267 -101 -295 -131 q -191 -71 -239 -71 q -128 -90 -155 -71 q -82 -136 -101 -109 q -48 -195 -63 -163 q -26 -246 -34 -228 q 27 -152 3 -215 q 75 15 52 -90 l 196 589 l 64 589 l 81 659 l 211 659 l 218 682 q 282 838 238 770 q 404 961 326 906 q 523 1024 452 998 q 689 1050 594 1050 q 807 1037 763 1050 q 876 1006 851 1024 q 913 961 903 986 q 924 909 924 935 q 891 826 924 859 q 802 794 858 794 q 703 839 739 794 q 663 988 667 884 q 605 973 633 985 q 544 930 576 962 q 489 850 515 902 q 447 720 464 798 l 434 659 l 726 659 l 899 678 l 907 668 l 810 245 q 799 194 805 226 q 792 145 792 161 q 810 92 792 106 q 871 77 827 77 q 917 84 891 77 q 954 97 943 92 l 939 36 q 832 -4 872 9 q 739 -18 792 -18 q 613 21 658 -18 q 568 122 568 61 q 572 172 568 145 q 582 227 576 199 l 648 515 q 650 527 649 519 q 652 545 652 535 q 646 570 652 558 q 628 589 641 583 l 420 589 z "},"":{"ha":1000,"x_min":-295,"x_max":1014,"o":"m 420 589 q 362 298 387 421 q 302 41 337 175 q 247 -89 286 -25 q 155 -198 208 -152 q 34 -274 99 -247 q -99 -301 -31 -301 q -199 -289 -161 -301 q -259 -258 -237 -277 q -288 -216 -280 -239 q -295 -170 -295 -193 q -267 -101 -295 -131 q -191 -71 -239 -71 q -128 -90 -155 -71 q -82 -136 -101 -109 q -48 -195 -63 -163 q -26 -246 -34 -228 q 27 -152 3 -215 q 75 15 52 -90 l 196 589 l 64 589 l 81 659 l 211 659 l 216 681 q 279 833 235 762 q 401 961 322 905 q 524 1023 450 996 q 694 1050 598 1050 q 817 1039 760 1050 q 900 1021 874 1028 l 1006 1050 l 1014 1039 l 831 245 q 820 193 827 226 q 814 145 814 161 q 833 92 814 106 q 899 77 853 77 q 945 84 916 77 q 986 97 974 92 l 971 36 q 861 -4 904 9 q 764 -18 819 -18 q 636 21 683 -18 q 590 122 590 61 q 594 174 590 147 q 604 227 599 201 l 749 857 q 753 882 752 868 q 754 902 754 897 q 729 965 754 943 q 677 988 704 988 q 613 978 642 988 q 547 934 584 968 q 490 851 516 904 q 446 716 463 798 l 433 659 l 605 659 l 589 589 l 420 589 z "},"":{"ha":669,"x_min":79,"x_max":692,"o":"m 621 400 q 597 348 621 365 q 543 332 574 332 q 477 347 528 332 q 372 370 426 363 q 365 249 363 300 q 362 179 366 197 q 339 135 355 151 q 292 118 322 118 q 251 130 267 118 q 235 161 235 142 q 241 190 235 177 q 258 228 246 203 q 287 292 268 250 q 319 370 307 334 q 202 348 260 363 q 128 332 143 332 q 93 345 106 332 q 79 380 79 358 q 102 432 79 414 q 156 450 125 450 q 224 435 172 450 q 329 414 276 420 q 331 477 333 446 q 334 539 330 507 l 339 566 q 365 629 349 598 q 390 690 380 661 q 275 670 332 684 q 201 655 218 655 q 165 670 178 655 q 151 705 151 684 q 175 756 151 740 q 229 773 198 773 q 294 758 242 773 q 400 735 346 742 q 407 856 408 804 q 410 926 406 908 q 434 969 415 951 q 479 987 452 987 q 520 975 505 987 q 536 943 536 963 q 532 917 536 931 q 514 877 527 903 q 485 814 501 851 q 453 735 468 777 q 575 759 526 744 q 644 773 625 773 q 679 760 666 773 q 692 725 692 747 q 669 673 692 690 q 616 655 646 655 q 554 668 597 655 q 443 690 511 682 q 440 628 438 658 q 437 566 441 598 l 431 539 q 407 475 421 507 q 382 414 392 444 q 504 436 454 423 q 571 450 553 450 q 607 435 593 450 q 621 400 621 420 z "},"":{"ha":469,"x_min":115,"x_max":382,"o":"m 382 370 q 343 277 382 317 q 249 238 303 238 q 154 277 194 238 q 115 370 115 316 q 154 464 115 425 q 249 504 194 504 q 343 464 303 504 q 382 370 382 424 z "},"":{"ha":373,"x_min":-62,"x_max":266,"o":"m 266 98 q 176 -106 266 -8 q -43 -255 86 -203 l -62 -207 q 8 -170 -31 -193 q 72 -125 48 -146 q 121 -70 99 -100 q 155 0 143 -39 l 117 0 q 29 22 58 0 q 0 85 0 45 q 43 179 0 136 q 146 221 87 221 q 238 187 210 221 q 266 98 266 153 z "},"":{"ha":721,"x_min":-62,"x_max":600,"o":"m 266 98 q 176 -106 266 -8 q -43 -255 86 -203 l -62 -207 q 8 -170 -31 -193 q 72 -125 48 -146 q 121 -70 99 -100 q 155 0 143 -39 l 117 0 q 29 22 58 0 q 0 85 0 45 q 43 179 0 136 q 146 221 87 221 q 238 187 210 221 q 266 98 266 153 m 600 98 q 510 -106 600 -8 q 291 -255 420 -203 l 272 -207 q 343 -170 303 -193 q 406 -125 382 -146 q 455 -70 433 -100 q 490 0 477 -39 l 452 0 q 363 22 393 0 q 334 85 334 45 q 378 179 334 136 q 481 221 421 221 q 572 187 544 221 q 600 98 600 153 z "},"":{"ha":1829,"x_min":93,"x_max":1758,"o":"m 668 777 q 577 569 668 654 q 357 483 486 483 q 192 542 256 483 q 127 696 127 601 q 219 905 127 820 q 438 990 311 990 q 604 931 540 990 q 668 777 668 872 m 495 827 q 480 912 495 882 q 429 942 465 942 q 336 856 372 942 q 300 642 300 769 q 316 560 300 589 q 368 531 332 531 q 459 615 422 531 q 495 827 495 700 m 1147 270 q 1057 62 1147 148 q 837 -24 966 -24 q 671 35 736 -24 q 607 190 607 94 q 699 398 607 313 q 918 484 791 484 q 1083 425 1019 484 q 1147 270 1147 366 m 975 320 q 960 406 975 376 q 909 435 945 435 q 816 349 852 435 q 780 136 780 262 q 795 54 780 83 q 847 24 811 24 q 938 109 902 24 q 975 320 975 193 m 1183 968 l 198 0 l 93 0 l 1076 968 l 1183 968 m 1758 270 q 1667 62 1758 148 q 1447 -24 1576 -24 q 1282 35 1346 -24 q 1217 190 1217 94 q 1309 398 1217 313 q 1528 484 1401 484 q 1694 425 1630 484 q 1758 270 1758 366 m 1585 320 q 1570 406 1585 376 q 1519 435 1555 435 q 1426 349 1462 435 q 1390 136 1390 262 q 1406 54 1390 83 q 1457 24 1421 24 q 1549 109 1512 24 q 1585 320 1585 193 z "},"":{"ha":1053,"x_min":-118,"x_max":1023,"o":"m 605 387 l 546 738 l 326 387 l 605 387 m 496 0 l 508 50 q 617 67 578 55 q 656 93 656 79 q 654 114 656 105 q 651 134 653 123 l 617 323 l 286 323 q 244 257 269 298 q 203 187 220 216 q 173 124 177 141 q 168 102 168 107 q 200 69 168 82 q 298 50 232 56 l 286 0 l -118 0 l -106 50 q -57 56 -87 51 q -7 73 -27 62 q 47 111 22 87 q 94 169 72 135 q 347 560 231 380 q 614 976 462 739 l 748 976 q 834 473 800 672 q 895 141 869 275 q 908 104 898 121 q 939 73 918 87 q 979 56 956 62 q 1023 50 1002 51 l 1011 0 l 496 0 m 917 1026 l 894 1006 l 683 1144 l 422 1006 l 401 1026 q 534 1160 490 1118 q 599 1225 577 1202 q 640 1257 618 1246 q 700 1267 662 1267 q 754 1257 737 1267 q 784 1228 770 1248 q 828 1162 806 1196 q 917 1026 850 1128 z "},"":{"ha":1002,"x_min":-37,"x_max":1031,"o":"m 1031 962 l 975 717 l 923 717 q 877 835 913 781 q 801 898 841 889 q 746 904 782 903 q 686 905 710 905 l 553 905 l 467 528 l 559 528 q 638 539 610 528 q 692 571 667 551 q 737 627 711 587 q 773 696 762 667 l 825 696 l 732 294 l 680 294 l 680 319 q 674 382 680 350 q 659 427 667 414 q 612 461 641 453 q 545 470 583 470 l 453 470 l 391 202 q 382 158 387 182 q 378 124 378 134 q 407 70 378 81 q 512 58 435 58 q 654 67 610 58 q 722 93 699 75 q 819 197 762 127 q 897 300 876 267 l 946 300 l 859 0 l -37 0 l -26 50 q 25 54 -9 50 q 75 63 58 58 q 115 90 101 72 q 134 132 129 109 l 290 805 q 294 829 293 819 q 296 843 296 838 q 267 887 296 871 q 173 913 238 903 l 184 962 l 1031 962 m 888 1026 l 865 1006 l 654 1144 l 393 1006 l 372 1026 q 505 1160 461 1118 q 570 1225 548 1202 q 611 1257 589 1246 q 671 1267 633 1267 q 725 1257 708 1267 q 755 1228 741 1248 q 799 1162 777 1196 q 888 1026 821 1128 z "},"":{"ha":1053,"x_min":-118,"x_max":1023,"o":"m 605 387 l 546 738 l 326 387 l 605 387 m 496 0 l 508 50 q 617 67 578 55 q 656 93 656 79 q 654 114 656 105 q 651 134 653 123 l 617 323 l 286 323 q 244 257 269 298 q 203 187 220 216 q 173 124 177 141 q 168 102 168 107 q 200 69 168 82 q 298 50 232 56 l 286 0 l -118 0 l -106 50 q -57 56 -87 51 q -7 73 -27 62 q 47 111 22 87 q 94 169 72 135 q 347 560 231 380 q 614 976 462 739 l 748 976 q 834 473 800 672 q 895 141 869 275 q 908 104 898 121 q 939 73 918 87 q 979 56 956 62 q 1023 50 1002 51 l 1011 0 l 496 0 m 909 1199 q 892 1152 909 1171 q 841 1120 874 1134 q 727 1077 803 1105 q 551 1007 651 1049 l 528 1035 q 635 1137 598 1101 q 711 1215 672 1173 q 760 1255 736 1243 q 810 1267 784 1267 q 882 1248 854 1267 q 909 1199 909 1230 z "},"":{"ha":1002,"x_min":-37,"x_max":1031,"o":"m 1031 962 l 975 717 l 923 717 q 877 835 913 781 q 801 898 841 889 q 746 904 782 903 q 686 905 710 905 l 553 905 l 467 528 l 559 528 q 638 539 610 528 q 692 571 667 551 q 737 627 711 587 q 773 696 762 667 l 825 696 l 732 294 l 680 294 l 680 319 q 674 382 680 350 q 659 427 667 414 q 612 461 641 453 q 545 470 583 470 l 453 470 l 391 202 q 382 158 387 182 q 378 124 378 134 q 407 70 378 81 q 512 58 435 58 q 654 67 610 58 q 722 93 699 75 q 819 197 762 127 q 897 300 876 267 l 946 300 l 859 0 l -37 0 l -26 50 q 25 54 -9 50 q 75 63 58 58 q 115 90 101 72 q 134 132 129 109 l 290 805 q 294 829 293 819 q 296 843 296 838 q 267 887 296 871 q 173 913 238 903 l 184 962 l 1031 962 m 916 1154 q 884 1075 916 1109 q 809 1042 852 1042 q 733 1076 764 1042 q 702 1154 702 1109 q 733 1233 702 1200 q 809 1267 764 1267 q 884 1233 852 1267 q 916 1154 916 1200 m 552 1154 q 520 1075 552 1109 q 445 1042 488 1042 q 370 1075 401 1042 q 338 1154 338 1108 q 369 1233 338 1200 q 445 1267 400 1267 q 520 1233 488 1267 q 552 1154 552 1200 z "},"":{"ha":1002,"x_min":-37,"x_max":1031,"o":"m 1031 962 l 975 717 l 923 717 q 877 835 913 781 q 801 898 841 889 q 746 904 782 903 q 686 905 710 905 l 553 905 l 467 528 l 559 528 q 638 539 610 528 q 692 571 667 551 q 737 627 711 587 q 773 696 762 667 l 825 696 l 732 294 l 680 294 l 680 319 q 674 382 680 350 q 659 427 667 414 q 612 461 641 453 q 545 470 583 470 l 453 470 l 391 202 q 382 158 387 182 q 378 124 378 134 q 407 70 378 81 q 512 58 435 58 q 654 67 610 58 q 722 93 699 75 q 819 197 762 127 q 897 300 876 267 l 946 300 l 859 0 l -37 0 l -26 50 q 25 54 -9 50 q 75 63 58 58 q 115 90 101 72 q 134 132 129 109 l 290 805 q 294 829 293 819 q 296 843 296 838 q 267 887 296 871 q 173 913 238 903 l 184 962 l 1031 962 m 743 1035 l 717 1007 q 549 1080 616 1053 q 450 1120 481 1107 q 405 1149 422 1133 q 387 1187 387 1164 q 414 1244 387 1222 q 489 1267 441 1267 q 537 1255 516 1267 q 582 1215 559 1242 q 652 1135 612 1180 q 743 1035 692 1090 z "},"":{"ha":619,"x_min":-41,"x_max":714,"o":"m -41 0 l -30 50 q 24 54 -10 50 q 76 64 58 58 q 116 91 102 73 q 136 132 130 109 l 291 805 q 296 829 294 819 q 297 843 297 838 q 266 887 297 871 q 169 913 234 903 l 180 962 l 714 962 l 703 913 q 647 906 681 911 q 596 896 613 901 q 555 868 568 887 q 536 827 542 850 l 381 153 q 377 132 378 142 q 375 116 375 121 q 407 69 375 82 q 504 50 438 56 l 492 0 l -41 0 m 686 1199 q 668 1152 686 1171 q 617 1120 650 1134 q 503 1077 579 1105 q 327 1007 427 1049 l 304 1035 q 411 1137 374 1101 q 487 1215 448 1173 q 536 1255 512 1243 q 587 1267 560 1267 q 658 1248 631 1267 q 686 1199 686 1230 z "},"":{"ha":619,"x_min":-41,"x_max":714,"o":"m -41 0 l -30 50 q 24 54 -10 50 q 76 64 58 58 q 116 91 102 73 q 136 132 130 109 l 291 805 q 296 829 294 819 q 297 843 297 838 q 266 887 297 871 q 169 913 234 903 l 180 962 l 714 962 l 703 913 q 647 906 681 911 q 596 896 613 901 q 555 868 568 887 q 536 827 542 850 l 381 153 q 377 132 378 142 q 375 116 375 121 q 407 69 375 82 q 504 50 438 56 l 492 0 l -41 0 m 700 1026 l 677 1006 l 466 1144 l 205 1006 l 184 1026 q 317 1160 273 1118 q 382 1225 360 1202 q 423 1257 401 1246 q 483 1267 445 1267 q 537 1257 520 1267 q 567 1228 553 1248 q 611 1162 589 1196 q 700 1026 633 1128 z "},"":{"ha":626,"x_min":-41,"x_max":746,"o":"m -41 0 l -30 50 q 24 54 -10 50 q 76 64 58 58 q 116 91 102 73 q 136 132 130 109 l 291 805 q 296 829 294 819 q 297 843 297 838 q 266 887 297 871 q 169 913 234 903 l 180 962 l 714 962 l 703 913 q 647 906 681 911 q 596 896 613 901 q 555 868 568 887 q 536 827 542 850 l 381 153 q 377 132 378 142 q 375 116 375 121 q 407 69 375 82 q 504 50 438 56 l 492 0 l -41 0 m 746 1153 q 714 1074 746 1107 q 640 1040 683 1040 q 564 1074 595 1040 q 532 1153 532 1108 q 564 1232 532 1198 q 640 1265 595 1265 q 714 1232 683 1265 q 746 1153 746 1198 m 410 1153 q 378 1074 410 1107 q 303 1040 347 1040 q 228 1074 259 1040 q 197 1153 197 1107 q 228 1232 197 1198 q 303 1265 258 1265 q 378 1232 347 1265 q 410 1153 410 1198 z "},"":{"ha":619,"x_min":-41,"x_max":714,"o":"m -41 0 l -30 50 q 24 54 -10 50 q 76 64 58 58 q 116 91 102 73 q 136 132 130 109 l 291 805 q 296 829 294 819 q 297 843 297 838 q 266 887 297 871 q 169 913 234 903 l 180 962 l 714 962 l 703 913 q 647 906 681 911 q 596 896 613 901 q 555 868 568 887 q 536 827 542 850 l 381 153 q 377 132 378 142 q 375 116 375 121 q 407 69 375 82 q 504 50 438 56 l 492 0 l -41 0 m 624 1035 l 597 1007 q 429 1080 497 1053 q 331 1120 361 1107 q 285 1149 302 1133 q 268 1187 268 1164 q 295 1244 268 1222 q 370 1267 321 1267 q 418 1255 397 1267 q 463 1215 439 1242 q 533 1135 492 1180 q 624 1035 573 1090 z "},"":{"ha":1139,"x_min":59,"x_max":1126,"o":"m 1126 593 q 1081 358 1126 471 q 952 160 1035 244 q 753 24 867 74 q 493 -26 638 -26 q 181 83 303 -26 q 59 370 59 193 q 109 612 59 498 q 245 810 158 726 q 446 941 331 894 q 688 989 561 989 q 1003 882 880 989 q 1126 593 1126 774 m 772 238 q 840 442 818 332 q 863 659 863 552 q 815 854 863 783 q 673 926 768 926 q 525 870 591 926 q 415 726 460 814 q 347 525 370 637 q 323 302 323 413 q 370 110 323 182 q 513 37 418 37 q 662 94 595 37 q 772 238 728 151 m 882 1199 q 865 1152 882 1171 q 814 1120 847 1134 q 700 1077 776 1105 q 524 1007 624 1049 l 501 1035 q 608 1137 571 1101 q 684 1215 645 1173 q 733 1255 709 1243 q 783 1267 757 1267 q 855 1248 827 1267 q 882 1199 882 1230 z "},"":{"ha":1139,"x_min":59,"x_max":1126,"o":"m 1126 593 q 1081 358 1126 471 q 952 160 1035 244 q 753 24 867 74 q 493 -26 638 -26 q 181 83 303 -26 q 59 370 59 193 q 109 612 59 498 q 245 810 158 726 q 446 941 331 894 q 688 989 561 989 q 1003 882 880 989 q 1126 593 1126 774 m 772 238 q 840 442 818 332 q 863 659 863 552 q 815 854 863 783 q 673 926 768 926 q 525 870 591 926 q 415 726 460 814 q 347 525 370 637 q 323 302 323 413 q 370 110 323 182 q 513 37 418 37 q 662 94 595 37 q 772 238 728 151 m 935 1026 l 911 1006 l 701 1144 l 440 1006 l 418 1026 q 551 1160 508 1118 q 616 1225 595 1202 q 657 1257 635 1246 q 718 1267 680 1267 q 771 1257 755 1267 q 802 1228 788 1248 q 846 1162 824 1196 q 935 1026 867 1128 z "},"":{"ha":1139,"x_min":59,"x_max":1126,"o":"m 1126 593 q 1081 358 1126 471 q 952 160 1035 244 q 753 24 867 74 q 493 -26 638 -26 q 181 83 303 -26 q 59 370 59 193 q 109 612 59 498 q 245 810 158 726 q 446 941 331 894 q 688 989 561 989 q 1003 882 880 989 q 1126 593 1126 774 m 772 238 q 840 442 818 332 q 863 659 863 552 q 815 854 863 783 q 673 926 768 926 q 525 870 591 926 q 415 726 460 814 q 347 525 370 637 q 323 302 323 413 q 370 110 323 182 q 513 37 418 37 q 662 94 595 37 q 772 238 728 151 m 865 1035 l 839 1007 q 671 1080 739 1053 q 572 1120 603 1107 q 527 1149 544 1133 q 509 1187 509 1164 q 536 1244 509 1222 q 611 1267 563 1267 q 660 1255 638 1267 q 704 1215 681 1242 q 774 1135 734 1180 q 865 1035 814 1090 z "},"":{"ha":1158,"x_min":148,"x_max":1293,"o":"m 512 -26 q 242 42 336 -26 q 148 234 148 110 q 151 278 148 256 q 159 326 153 300 l 270 806 q 275 829 273 821 q 276 843 276 837 q 249 887 276 871 q 155 913 222 903 l 166 962 l 682 962 l 670 913 q 621 907 648 911 q 576 897 595 903 q 536 870 549 889 q 517 828 523 852 l 408 354 q 397 292 401 326 q 393 237 393 259 q 443 107 393 149 q 589 66 493 66 q 791 143 706 66 q 905 349 876 221 l 981 679 q 995 751 991 721 q 1000 801 1000 781 q 994 844 1000 827 q 977 871 988 861 q 921 898 960 886 q 865 913 882 910 l 876 962 l 1293 962 l 1282 913 q 1223 904 1261 911 q 1155 879 1185 897 q 1104 817 1125 862 q 1063 686 1084 772 l 980 324 q 815 65 941 156 q 512 -26 689 -26 m 957 1199 q 939 1152 957 1171 q 888 1120 922 1134 q 774 1077 850 1105 q 598 1007 699 1049 l 576 1035 q 683 1137 646 1101 q 758 1215 720 1173 q 807 1255 783 1243 q 858 1267 831 1267 q 929 1248 902 1267 q 957 1199 957 1230 z "},"":{"ha":1158,"x_min":148,"x_max":1293,"o":"m 512 -26 q 242 42 336 -26 q 148 234 148 110 q 151 278 148 256 q 159 326 153 300 l 270 806 q 275 829 273 821 q 276 843 276 837 q 249 887 276 871 q 155 913 222 903 l 166 962 l 682 962 l 670 913 q 621 907 648 911 q 576 897 595 903 q 536 870 549 889 q 517 828 523 852 l 408 354 q 397 292 401 326 q 393 237 393 259 q 443 107 393 149 q 589 66 493 66 q 791 143 706 66 q 905 349 876 221 l 981 679 q 995 751 991 721 q 1000 801 1000 781 q 994 844 1000 827 q 977 871 988 861 q 921 898 960 886 q 865 913 882 910 l 876 962 l 1293 962 l 1282 913 q 1223 904 1261 911 q 1155 879 1185 897 q 1104 817 1125 862 q 1063 686 1084 772 l 980 324 q 815 65 941 156 q 512 -26 689 -26 m 1019 1026 l 996 1006 l 785 1144 l 524 1006 l 503 1026 q 635 1160 592 1118 q 701 1225 679 1202 q 742 1257 720 1246 q 802 1267 764 1267 q 856 1257 839 1267 q 886 1228 872 1248 q 930 1162 908 1196 q 1019 1026 951 1128 z "},"":{"ha":1158,"x_min":148,"x_max":1293,"o":"m 512 -26 q 242 42 336 -26 q 148 234 148 110 q 151 278 148 256 q 159 326 153 300 l 270 806 q 275 829 273 821 q 276 843 276 837 q 249 887 276 871 q 155 913 222 903 l 166 962 l 682 962 l 670 913 q 621 907 648 911 q 576 897 595 903 q 536 870 549 889 q 517 828 523 852 l 408 354 q 397 292 401 326 q 393 237 393 259 q 443 107 393 149 q 589 66 493 66 q 791 143 706 66 q 905 349 876 221 l 981 679 q 995 751 991 721 q 1000 801 1000 781 q 994 844 1000 827 q 977 871 988 861 q 921 898 960 886 q 865 913 882 910 l 876 962 l 1293 962 l 1282 913 q 1223 904 1261 911 q 1155 879 1185 897 q 1104 817 1125 862 q 1063 686 1084 772 l 980 324 q 815 65 941 156 q 512 -26 689 -26 m 888 1035 l 862 1007 q 694 1080 762 1053 q 595 1120 626 1107 q 550 1149 567 1133 q 532 1187 532 1164 q 559 1244 532 1222 q 634 1267 586 1267 q 683 1255 661 1267 q 727 1215 704 1242 q 797 1135 757 1180 q 888 1035 838 1090 z "},"":{"ha":508,"x_min":26,"x_max":484,"o":"m 484 97 l 469 36 q 361 -4 401 9 q 269 -18 321 -18 q 142 21 187 -18 q 97 122 97 61 q 100 171 97 146 q 111 227 104 195 l 167 425 q 179 478 174 453 q 184 525 184 504 q 169 578 184 563 q 109 593 153 593 q 65 586 87 593 q 26 573 42 579 l 41 634 q 146 672 96 656 q 241 688 196 688 q 365 649 321 688 q 409 548 409 610 q 406 503 409 535 q 395 443 403 470 l 339 245 q 327 191 332 222 q 321 145 321 161 q 339 92 321 106 q 400 77 357 77 q 446 84 420 77 q 484 97 472 92 z "},"":{"ha":694,"x_min":173,"x_max":675,"o":"m 675 768 l 639 748 l 450 920 l 208 748 l 173 768 q 290 917 252 869 q 368 1008 328 966 q 409 1040 387 1029 q 469 1050 431 1050 q 525 1040 509 1050 q 553 1011 541 1030 q 609 910 580 972 q 675 768 638 848 z "},"":{"ha":694,"x_min":129,"x_max":755,"o":"m 755 1006 q 719 941 742 977 q 665 875 696 905 q 599 822 633 842 q 524 802 565 802 q 446 815 480 802 q 389 842 412 829 q 337 866 365 854 q 283 878 310 878 q 227 847 248 878 q 177 777 205 816 l 129 798 q 165 860 141 823 q 217 926 190 897 q 281 978 245 956 q 354 1000 317 1000 q 420 988 389 1000 q 482 963 452 977 q 536 937 514 947 q 588 926 559 926 q 632 931 616 926 q 659 949 649 937 q 680 982 671 964 q 703 1023 690 1000 l 755 1006 z "},"":{"ha":694,"x_min":191,"x_max":721,"o":"m 698 846 l 191 846 l 214 962 l 721 962 l 698 846 z "},"":{"ha":694,"x_min":242,"x_max":691,"o":"m 691 1039 q 586 839 651 907 q 420 770 520 770 q 286 830 330 770 q 242 1001 242 890 q 243 1022 242 1012 q 243 1039 243 1031 l 294 1050 q 305 988 298 1018 q 327 936 312 958 q 368 900 343 913 q 441 887 393 887 q 517 900 486 887 q 570 934 548 912 q 612 987 593 956 q 645 1050 630 1018 l 691 1039 z "},"":{"ha":694,"x_min":342,"x_max":570,"o":"m 570 915 q 537 834 570 867 q 456 801 504 801 q 376 834 409 801 q 342 915 342 867 q 376 996 342 962 q 456 1029 409 1029 q 537 996 504 1029 q 570 915 570 962 z "},"":{"ha":694,"x_min":227,"x_max":617,"o":"m 395 749 q 272 784 317 749 q 227 879 227 819 q 292 1011 227 960 q 449 1063 358 1063 q 570 1028 522 1063 q 617 933 617 993 q 552 800 617 852 q 395 749 488 749 m 514 935 q 495 993 514 971 q 439 1015 477 1015 q 360 976 390 1015 q 330 879 330 937 q 348 819 330 841 q 405 796 367 796 q 485 836 456 796 q 514 935 514 876 z "},"":{"ha":694,"x_min":155,"x_max":489,"o":"m 402 -271 q 300 -294 359 -288 q 155 -301 241 -301 l 167 -248 q 236 -248 199 -248 q 295 -241 273 -247 q 335 -223 321 -236 q 349 -187 349 -210 q 325 -158 349 -165 q 264 -151 301 -151 l 300 12 l 359 12 l 342 -65 q 449 -87 409 -65 q 489 -153 489 -109 q 467 -226 489 -197 q 402 -271 444 -255 z "},"":{"ha":694,"x_min":130,"x_max":759,"o":"m 677 907 q 581 847 638 882 q 424 742 524 812 l 404 766 q 510 897 469 841 q 575 983 551 953 q 645 1042 616 1034 q 701 1050 673 1050 q 741 1036 724 1050 q 759 1002 759 1021 q 733 950 759 974 q 677 907 707 926 m 403 907 q 307 847 364 882 q 150 742 250 812 l 130 766 q 236 897 195 841 q 301 983 277 953 q 371 1042 342 1034 q 427 1050 399 1050 q 467 1035 450 1050 q 485 1001 485 1021 q 459 950 485 973 q 403 907 433 926 z "},"":{"ha":694,"x_min":189,"x_max":462,"o":"m 448 -301 q 261 -277 333 -301 q 189 -192 189 -252 q 244 -76 189 -128 q 404 26 300 -24 l 462 26 q 368 -83 398 -33 q 338 -172 338 -133 q 368 -224 338 -206 q 458 -249 397 -242 l 448 -301 z "},"":{"ha":694,"x_min":172,"x_max":674,"o":"m 674 1031 q 562 888 610 950 q 479 791 513 825 q 433 757 454 765 q 378 749 412 749 q 322 759 339 749 q 294 788 306 769 q 238 892 270 825 q 172 1031 205 960 l 208 1051 l 395 879 l 640 1051 l 674 1031 z "},"":{"ha":952,"x_min":-37,"x_max":939,"o":"m 939 309 l 849 0 l -37 0 l -26 50 q 25 55 -9 50 q 75 64 58 59 q 115 91 102 73 q 134 132 129 109 l 199 414 l 75 368 l 52 427 l 216 488 l 290 805 q 294 829 293 819 q 296 843 296 838 q 267 887 296 871 q 173 913 238 903 l 184 962 l 713 962 l 702 913 q 646 906 680 911 q 595 896 612 901 q 553 868 566 887 q 535 827 541 848 l 479 583 l 669 654 l 692 595 l 462 509 l 388 187 q 380 149 383 168 q 378 120 378 130 q 407 70 378 81 q 524 58 435 58 q 632 66 578 58 q 712 96 686 75 q 806 194 754 130 q 890 309 857 257 l 939 309 z "},"":{"ha":492,"x_min":29,"x_max":515,"o":"m 323 245 q 312 193 319 226 q 306 145 306 161 q 326 92 306 106 q 391 77 345 77 q 437 84 408 77 q 478 97 466 92 l 463 36 q 353 -4 396 9 q 256 -18 311 -18 q 128 21 175 -18 q 81 122 81 61 q 86 174 81 147 q 96 227 90 201 l 140 416 l 43 380 l 29 448 l 157 492 l 242 863 q 246 885 245 875 q 248 902 248 895 q 239 941 248 926 q 215 964 231 955 q 178 976 199 972 q 129 982 157 979 l 141 1032 l 498 1050 l 506 1039 l 399 574 l 500 611 l 515 544 l 381 496 l 323 245 z "},"":{"ha":907,"x_min":-29,"x_max":930,"o":"m 390 -26 q 229 -6 310 -26 q 87 47 148 14 l 28 0 l -29 0 l 43 348 l 101 348 q 131 242 109 297 q 187 145 153 188 q 273 72 221 101 q 393 43 326 43 q 550 91 491 43 q 609 216 609 138 q 575 304 609 267 q 467 370 542 342 q 375 402 420 387 q 291 435 331 418 q 172 530 212 469 q 132 661 132 591 q 161 783 132 724 q 245 888 190 842 q 377 961 298 933 q 551 988 456 988 q 707 965 629 988 q 821 922 784 943 l 871 962 l 930 962 l 860 634 l 802 634 q 776 743 793 692 q 730 834 760 793 q 660 897 702 873 q 557 920 617 920 q 419 874 475 920 q 364 758 364 828 q 397 673 364 709 q 503 609 431 636 q 591 577 545 593 q 679 543 637 560 q 803 454 758 510 q 848 321 848 398 q 815 185 848 249 q 722 75 782 121 q 575 0 659 26 q 390 -26 491 -26 m 857 1247 q 733 1124 783 1172 q 658 1051 683 1076 q 617 1020 636 1029 q 557 1010 597 1010 q 502 1020 518 1010 q 473 1048 486 1029 q 429 1113 450 1082 q 340 1247 408 1145 l 363 1267 l 574 1133 l 835 1267 l 857 1247 z "},"":{"ha":718,"x_min":7,"x_max":713,"o":"m 295 -22 q 154 -8 210 -22 q 65 27 98 5 q 20 74 32 49 q 7 120 7 98 q 37 189 7 159 q 115 218 66 218 q 183 197 156 218 q 229 144 211 176 q 258 80 246 115 q 274 28 269 45 q 390 61 351 28 q 429 151 429 94 q 417 193 429 176 q 386 222 406 210 q 336 246 366 235 q 275 268 305 258 q 145 345 193 296 q 98 467 98 394 q 118 549 98 511 q 180 620 138 587 q 287 670 222 651 q 437 688 351 688 q 533 682 489 688 q 615 660 577 676 q 671 617 651 644 q 691 554 691 591 q 663 490 691 517 q 589 463 635 463 q 524 484 550 463 q 481 532 498 504 q 456 590 465 560 q 440 641 446 621 q 354 607 393 638 q 315 528 315 575 q 324 484 315 500 q 349 456 333 467 q 393 434 366 444 q 460 410 420 423 q 599 332 552 377 q 646 212 646 286 q 623 118 646 163 q 558 43 600 73 q 450 -6 511 11 q 295 -22 389 -22 m 713 1031 q 601 888 650 950 q 518 791 552 825 q 473 757 494 765 q 417 749 452 749 q 362 759 378 749 q 333 788 345 769 q 277 892 309 825 q 211 1031 245 960 l 248 1051 l 435 879 l 679 1051 l 713 1031 z "},"":{"ha":958,"x_min":-66,"x_max":1060,"o":"m 1060 962 l 1050 921 l 246 59 l 476 59 q 634 70 590 59 q 702 104 677 81 q 798 209 747 146 q 887 325 849 271 l 938 325 l 830 0 l -66 0 l -56 41 l 748 903 l 551 903 q 457 900 486 903 q 399 884 428 896 q 318 823 368 873 q 187 669 268 772 l 132 669 l 230 962 l 1060 962 m 903 1247 q 780 1124 829 1172 q 705 1051 730 1076 q 664 1020 683 1029 q 604 1010 644 1010 q 549 1020 565 1010 q 519 1048 533 1029 q 476 1113 496 1082 q 387 1247 455 1145 l 410 1267 l 621 1133 l 882 1267 l 903 1247 z "},"":{"ha":718,"x_min":-18,"x_max":735,"o":"m 735 669 l 725 620 l 245 57 q 294 56 269 56 q 351 56 319 56 q 400 56 376 56 q 466 60 425 57 q 512 79 492 63 q 544 118 532 96 q 577 175 553 135 q 616 246 602 214 l 663 246 l 615 0 l -18 0 l -6 56 l 467 612 l 387 612 q 302 610 328 612 q 243 595 277 608 q 190 545 220 587 q 138 453 159 504 l 90 453 l 132 669 l 735 669 m 712 1031 q 600 888 648 950 q 517 791 551 825 q 471 757 492 765 q 416 749 450 749 q 360 759 377 749 q 332 788 344 769 q 276 892 308 825 q 210 1031 243 960 l 246 1051 l 433 879 l 677 1051 l 712 1031 z "},"":{"ha":538,"x_min":227,"x_max":342,"o":"m 342 490 l 227 490 l 227 1033 l 342 1033 l 342 490 m 342 -288 l 227 -288 l 227 262 l 342 262 l 342 -288 z "},"":{"ha":1158,"x_min":-37,"x_max":1143,"o":"m 982 884 q 1100 762 1057 838 q 1143 583 1143 686 q 1092 345 1143 454 q 948 159 1041 236 q 734 41 856 82 q 465 0 612 0 l -37 0 l -26 50 q 25 54 -9 50 q 75 63 58 58 q 115 90 101 72 q 134 132 129 109 l 212 467 l 79 467 l 95 535 l 227 535 l 290 805 q 294 829 293 819 q 296 843 296 838 q 267 887 296 871 q 173 913 238 903 l 184 962 l 677 962 q 834 944 753 962 q 982 884 914 926 m 876 617 q 816 826 876 749 q 636 904 756 904 q 589 903 612 904 q 552 901 566 902 l 468 535 l 674 535 l 659 467 l 452 467 l 386 179 q 381 154 384 169 q 379 134 379 140 q 411 75 379 91 q 499 58 442 58 q 663 107 591 58 q 781 237 734 156 q 852 415 829 319 q 876 617 876 512 z "},"":{"ha":885,"x_min":45,"x_max":862,"o":"m 862 560 q 829 332 862 440 q 735 147 796 224 q 584 23 672 67 q 379 -22 496 -22 q 136 57 227 -22 q 45 269 45 136 q 77 431 45 353 q 163 566 108 508 q 295 657 218 624 q 461 691 372 691 q 570 669 526 691 q 637 606 614 648 l 644 608 q 646 644 644 623 q 647 682 647 665 q 636 773 647 726 q 604 859 625 820 l 439 767 l 409 823 l 570 911 q 526 960 549 939 q 479 1000 503 982 l 523 1050 q 585 1017 545 1040 q 665 965 625 994 l 819 1050 l 848 994 l 714 922 q 825 756 789 847 q 862 560 862 665 m 604 465 q 579 585 604 542 q 496 628 555 628 q 398 586 439 628 q 330 474 356 545 q 295 337 306 412 q 284 210 284 262 q 312 75 284 119 q 395 31 340 31 q 483 71 443 31 q 551 178 524 111 q 591 318 578 246 q 604 465 604 389 z "},"":{"ha":1017,"x_min":85,"x_max":1200,"o":"m 1200 962 l 1189 913 q 1146 905 1166 910 q 1101 886 1126 899 q 1042 847 1068 869 q 982 787 1016 824 q 859 651 899 696 q 711 479 819 606 q 640 381 652 410 q 612 283 627 353 l 583 157 q 578 135 580 146 q 576 120 576 125 q 583 91 576 104 q 607 71 589 79 q 654 58 623 64 q 706 50 686 52 l 694 0 l 158 0 l 170 50 q 225 55 189 51 q 277 64 262 59 q 317 94 303 75 q 337 137 332 113 l 377 310 q 385 343 381 329 q 388 369 388 358 q 380 406 388 383 q 361 463 373 428 q 299 638 321 578 q 241 792 278 698 q 210 851 228 827 q 170 890 192 876 q 130 906 154 901 q 85 913 106 911 l 96 962 l 634 962 l 623 913 q 518 902 553 911 q 484 873 484 892 q 490 839 484 865 q 515 752 496 812 q 555 632 529 706 q 613 471 581 559 q 770 654 699 570 q 868 771 842 738 q 926 848 918 833 q 933 869 933 863 q 901 900 933 890 q 823 913 869 910 l 834 962 l 1200 962 m 909 1199 q 892 1152 909 1171 q 841 1120 874 1134 q 727 1077 803 1105 q 551 1007 651 1049 l 528 1035 q 635 1137 598 1101 q 711 1215 672 1173 q 760 1255 736 1243 q 810 1267 784 1267 q 882 1248 854 1267 q 909 1199 909 1230 z "},"":{"ha":930,"x_min":23,"x_max":885,"o":"m 545 109 l 540 109 q 399 12 463 39 q 256 -16 334 -16 q 139 26 181 -16 q 98 127 98 68 q 100 170 98 149 q 113 231 102 192 l 163 416 q 175 468 168 435 q 181 517 181 501 q 166 570 181 555 q 106 585 151 585 q 62 578 85 585 q 23 565 39 571 l 38 626 q 143 664 93 648 q 238 680 193 680 q 362 640 319 680 q 406 540 406 600 q 404 495 406 528 q 393 435 401 463 l 343 258 q 332 208 336 235 q 328 168 328 180 q 345 117 328 134 q 397 99 361 99 q 473 122 427 99 q 557 182 519 144 l 661 669 l 876 678 l 885 667 l 766 116 q 690 -88 739 -7 q 577 -216 642 -168 q 444 -281 515 -261 q 298 -301 372 -301 q 164 -289 217 -301 q 81 -256 111 -277 q 44 -214 54 -237 q 34 -168 34 -191 q 62 -98 34 -129 q 138 -68 90 -68 q 203 -87 174 -68 q 254 -135 232 -107 q 291 -194 275 -161 q 317 -246 308 -226 q 347 -238 329 -244 q 377 -223 365 -231 q 408 -200 395 -212 q 439 -165 422 -189 q 500 -52 473 -119 q 545 109 526 15 m 741 990 q 727 941 741 960 q 683 903 713 922 q 578 841 650 881 q 415 747 506 802 l 387 772 q 479 899 446 852 q 535 979 511 946 q 591 1035 564 1021 q 656 1050 617 1050 q 715 1032 689 1050 q 741 990 741 1015 z "},"":{"ha":983,"x_min":-37,"x_max":993,"o":"m 993 563 q 952 413 993 479 q 848 306 911 347 q 706 242 784 264 q 546 221 628 221 l 396 221 l 380 153 q 375 132 377 142 q 374 116 374 121 q 399 71 374 85 q 494 50 424 57 l 483 0 l -37 0 l -26 50 q 25 55 -9 50 q 75 64 58 59 q 115 91 101 73 q 134 132 129 109 l 290 805 q 294 829 293 819 q 296 843 296 838 q 267 887 296 871 q 173 913 238 903 l 184 962 l 705 962 l 693 913 q 642 906 672 911 q 595 896 612 901 q 553 868 566 887 q 535 827 541 849 l 524 776 l 663 776 q 910 725 828 776 q 993 563 993 673 m 724 567 q 686 676 724 640 q 556 713 648 713 l 509 713 l 410 284 l 461 284 q 585 307 533 284 q 666 369 636 330 q 710 458 696 408 q 724 567 724 508 z "},"":{"ha":899,"x_min":-144,"x_max":855,"o":"m 855 429 q 823 255 855 338 q 735 113 791 173 q 606 16 677 50 q 447 -18 534 -18 q 342 -5 382 -18 q 273 31 302 7 l 232 -150 q 228 -169 230 -158 q 226 -185 226 -180 q 233 -214 226 -201 q 253 -233 240 -227 q 301 -246 268 -239 q 356 -254 334 -252 l 345 -301 l -144 -301 l -133 -254 q -88 -249 -115 -252 q -49 -241 -60 -245 q -14 -217 -26 -233 q 4 -174 -2 -201 l 243 863 q 247 885 245 875 q 248 902 248 895 q 240 941 248 926 q 216 964 232 955 q 178 976 199 972 q 130 982 157 979 l 142 1032 l 498 1050 l 506 1039 l 403 600 l 408 600 q 506 664 451 639 q 618 688 561 688 q 796 619 736 688 q 855 429 855 549 m 612 431 q 608 493 612 465 q 591 541 603 521 q 558 573 578 562 q 506 585 537 585 q 435 563 470 585 q 385 521 401 541 l 300 149 q 328 71 300 102 q 406 40 355 40 q 487 73 448 40 q 553 161 526 105 q 597 286 583 220 q 612 431 612 351 z "},"":{"ha":977,"x_min":126,"x_max":880,"o":"m 880 334 l 126 334 l 126 445 l 880 445 l 880 334 z "},"":{"ha":977,"x_min":165,"x_max":840,"o":"m 840 130 l 762 52 l 503 313 l 243 52 l 165 130 l 426 390 l 165 649 l 243 728 l 503 467 l 762 728 l 840 649 l 579 390 l 840 130 z "},"":{"ha":766,"x_min":140,"x_max":599,"o":"m 566 332 l 140 332 l 152 380 q 203 385 167 381 q 252 393 239 389 q 279 411 267 398 q 296 443 292 423 l 385 839 l 252 839 l 264 895 l 292 895 q 372 905 336 895 q 433 928 409 914 q 476 955 457 941 q 508 983 495 969 l 599 983 q 577 902 587 943 q 559 829 567 861 l 479 486 q 473 456 477 475 q 469 433 469 437 q 474 412 469 420 q 490 397 479 404 q 531 387 500 392 q 577 380 561 381 l 566 332 z "},"":{"ha":766,"x_min":102,"x_max":736,"o":"m 431 934 q 399 930 416 934 q 368 920 383 926 q 383 880 375 901 q 391 827 391 858 q 366 769 391 792 q 300 747 341 747 q 239 773 262 747 q 216 836 216 799 q 286 941 216 894 q 467 988 357 988 q 665 945 593 988 q 736 825 736 901 q 710 717 736 763 q 642 640 684 671 q 554 588 602 609 q 467 553 506 568 q 367 516 424 538 q 269 478 309 494 l 267 470 l 693 470 l 661 332 l 102 332 l 126 435 q 258 520 163 465 q 386 595 354 574 q 441 636 412 612 q 492 690 471 661 q 528 756 515 722 q 542 835 542 789 q 513 910 542 887 q 431 934 484 934 z "},"":{"ha":766,"x_min":120,"x_max":730,"o":"m 460 401 q 496 459 484 424 q 508 545 508 494 q 482 609 508 589 q 405 630 456 630 l 345 630 l 361 695 l 403 695 q 509 736 470 695 q 547 852 547 777 q 518 912 547 890 q 446 934 490 934 q 411 930 431 934 q 376 921 391 926 q 390 881 382 902 q 397 830 397 861 q 375 773 397 795 q 311 751 352 751 q 250 777 273 751 q 227 840 227 802 q 304 943 227 899 q 482 988 381 988 q 603 975 554 988 q 681 940 652 961 q 720 895 709 919 q 730 850 730 871 q 721 800 730 828 q 692 750 712 772 q 632 706 669 726 q 533 674 595 686 l 533 667 q 591 657 564 664 q 644 634 619 650 q 683 595 669 618 q 698 534 698 572 q 605 370 698 433 q 378 307 512 307 q 191 350 262 307 q 120 456 120 393 q 142 520 120 494 q 205 546 165 546 q 270 523 245 546 q 294 465 294 500 q 287 416 294 437 q 273 378 279 395 q 307 366 287 371 q 342 361 326 361 q 407 371 374 361 q 460 401 440 380 z "},"":{"ha":1488,"x_min":92,"x_max":1459,"o":"m 517 332 l 92 332 l 104 380 q 155 385 119 381 q 203 393 191 389 q 231 411 219 398 q 248 443 243 423 l 337 839 l 203 839 l 216 895 l 243 895 q 324 905 288 895 q 385 928 361 914 q 428 955 409 941 q 460 983 447 969 l 551 983 q 529 902 539 943 q 511 829 519 861 l 431 486 q 425 456 429 475 q 420 433 420 437 q 426 412 420 420 q 442 397 431 404 q 483 387 452 392 q 529 380 513 381 l 517 332 m 1164 969 l 425 0 l 319 0 l 1057 969 l 1164 969 m 1155 602 q 1123 597 1139 602 q 1092 588 1107 593 q 1106 547 1099 569 q 1114 495 1114 526 q 1089 437 1114 460 q 1024 414 1065 414 q 963 440 986 414 q 939 504 939 467 q 1010 609 939 562 q 1191 656 1080 656 q 1388 612 1317 656 q 1459 493 1459 569 q 1434 385 1459 431 q 1366 307 1408 339 q 1277 256 1325 277 q 1190 221 1230 235 q 1090 184 1147 205 q 992 146 1033 162 l 990 138 l 1417 138 l 1385 0 l 826 0 l 850 102 q 982 188 886 133 q 1109 262 1078 242 q 1165 304 1136 279 q 1215 358 1194 329 q 1252 424 1238 390 q 1265 503 1265 457 q 1236 578 1265 555 q 1155 602 1207 602 z "},"":{"ha":1488,"x_min":99,"x_max":1407,"o":"m 524 332 l 99 332 l 111 380 q 161 385 125 381 q 210 393 197 389 q 238 411 226 398 q 254 443 250 423 l 344 839 l 210 839 l 223 895 l 250 895 q 331 905 294 895 q 392 928 368 914 q 435 955 416 941 q 467 983 454 969 l 557 983 q 536 902 546 943 q 517 829 526 861 l 438 486 q 431 456 435 475 q 427 433 427 437 q 432 412 427 420 q 449 397 437 404 q 489 387 459 392 q 536 380 519 381 l 524 332 m 1177 969 l 438 0 l 332 0 l 1070 969 l 1177 969 m 1407 253 l 1383 153 l 1278 153 l 1240 -14 l 1083 -14 l 1122 153 l 783 153 l 806 252 l 1249 654 l 1394 654 l 1301 253 l 1407 253 m 1211 541 l 890 253 l 1145 253 l 1211 541 z "},"":{"ha":1488,"x_min":100,"x_max":1440,"o":"m 440 401 q 476 459 464 424 q 488 545 488 494 q 462 609 488 589 q 385 630 436 630 l 325 630 l 340 695 l 382 695 q 488 736 450 695 q 527 852 527 777 q 498 912 527 890 q 426 934 469 934 q 390 930 410 934 q 355 921 370 926 q 370 881 362 902 q 377 830 377 861 q 354 773 377 795 q 291 751 332 751 q 230 777 253 751 q 206 840 206 802 q 283 943 206 899 q 462 988 361 988 q 583 975 534 988 q 661 940 632 961 q 700 895 689 919 q 710 850 710 871 q 701 800 710 828 q 671 750 692 772 q 612 706 648 726 q 513 674 575 686 l 513 667 q 571 657 543 664 q 624 634 599 650 q 663 595 648 618 q 677 534 677 572 q 585 370 677 433 q 358 307 492 307 q 171 350 242 307 q 100 456 100 393 q 122 520 100 494 q 184 546 144 546 q 250 523 225 546 q 274 465 274 500 q 267 416 274 437 q 252 378 259 395 q 286 366 267 371 q 322 361 306 361 q 387 371 354 361 q 440 401 420 380 m 1263 969 l 524 0 l 418 0 l 1156 969 l 1263 969 m 1440 253 l 1417 153 l 1312 153 l 1274 -14 l 1117 -14 l 1156 153 l 817 153 l 840 252 l 1282 654 l 1428 654 l 1335 253 l 1440 253 m 1245 541 l 924 253 l 1179 253 l 1245 541 z "},"":{"ha":958,"x_min":-22,"x_max":1051,"o":"m 1051 962 l 991 705 l 939 705 q 894 832 931 772 q 818 898 857 892 q 764 903 798 901 q 703 905 731 905 l 562 905 l 479 549 l 575 549 q 664 564 633 549 q 708 590 695 578 q 752 641 728 606 q 787 703 777 675 l 838 703 l 751 328 l 699 328 q 700 336 699 331 q 700 347 700 342 q 692 407 700 378 q 675 448 684 435 q 636 478 662 467 q 561 490 610 490 l 465 490 l 422 304 l 615 304 l 600 236 l 408 236 l 388 153 q 384 132 385 142 q 382 116 382 121 q 407 71 382 85 q 503 50 432 57 l 491 0 l -22 0 l -11 50 q 40 55 6 50 q 90 64 73 59 q 130 91 116 73 q 149 132 144 108 l 174 236 l 21 236 l 36 304 l 189 304 l 303 799 q 310 828 308 819 q 311 843 311 837 q 282 887 311 871 q 189 913 254 903 l 200 962 l 1051 962 z "},"":{"ha":1121,"x_min":59,"x_max":1147,"o":"m 492 -26 q 321 0 399 -26 q 184 77 242 26 q 92 201 125 127 q 59 366 59 274 q 107 615 59 501 q 240 812 155 728 q 441 942 324 895 q 694 988 558 988 q 857 968 776 988 q 979 925 938 948 l 1029 962 l 1088 962 l 1013 611 l 954 611 q 870 847 939 768 q 692 926 801 926 q 537 874 605 926 q 422 741 469 823 q 351 550 376 661 q 326 331 326 439 q 378 118 326 197 q 533 39 431 39 q 629 57 589 39 q 701 102 670 75 l 744 286 q 748 308 747 298 q 750 325 750 319 q 715 369 750 353 q 614 395 680 385 l 626 444 l 1147 444 l 1135 395 q 1086 388 1114 393 q 1042 378 1059 382 q 1000 350 1013 369 q 982 309 987 332 l 955 192 q 944 138 948 162 q 935 86 939 114 q 728 7 857 41 q 492 -26 600 -26 m 959 1256 q 859 1100 928 1162 q 680 1038 790 1038 q 542 1090 591 1038 q 492 1225 492 1143 q 493 1242 492 1234 q 494 1256 494 1250 l 544 1267 q 586 1186 549 1217 q 703 1155 622 1155 q 830 1183 779 1155 q 913 1267 881 1212 l 959 1256 z "},"":{"ha":902,"x_min":7,"x_max":858,"o":"m 509 71 l 503 71 q 464 42 486 58 q 416 15 441 26 q 357 -8 385 0 q 289 -16 330 -16 q 107 54 171 -16 q 44 243 44 123 q 77 415 44 335 q 165 557 109 496 q 295 653 220 618 q 453 688 370 688 q 561 675 514 688 q 642 635 608 663 l 848 678 l 858 667 l 743 116 q 667 -88 715 -7 q 555 -216 619 -168 q 419 -282 490 -264 q 271 -301 349 -301 q 135 -289 187 -301 q 54 -256 82 -276 q 17 -214 27 -237 q 7 -168 7 -191 q 35 -99 7 -130 q 111 -68 62 -68 q 177 -87 148 -68 q 227 -135 205 -107 q 264 -193 247 -160 q 290 -246 281 -226 q 352 -229 321 -241 q 411 -182 382 -216 q 463 -92 438 -150 q 509 71 488 -35 m 600 515 q 595 550 600 532 q 578 585 591 568 q 546 611 565 602 q 494 621 527 621 q 413 590 450 621 q 347 505 376 558 q 303 384 319 453 q 287 240 287 314 q 293 180 287 208 q 313 131 298 153 q 350 98 327 109 q 401 87 372 87 q 469 108 434 87 q 525 151 504 128 l 600 515 m 772 1039 q 667 839 732 907 q 501 770 602 770 q 367 830 411 770 q 323 1001 323 890 q 324 1022 323 1012 q 325 1039 325 1031 l 375 1050 q 386 988 379 1018 q 408 936 393 958 q 450 900 425 913 q 522 887 475 887 q 598 900 567 887 q 652 934 629 912 q 693 987 675 956 q 726 1050 711 1018 l 772 1039 z "},"":{"ha":626,"x_min":-41,"x_max":714,"o":"m -41 0 l -30 50 q 24 54 -10 50 q 76 64 58 58 q 116 91 102 73 q 136 132 130 109 l 291 805 q 296 829 294 819 q 297 843 297 838 q 266 887 297 871 q 169 913 234 903 l 180 962 l 714 962 l 703 913 q 647 906 681 911 q 596 896 613 901 q 555 868 568 887 q 536 827 542 850 l 381 153 q 377 132 378 142 q 375 116 375 121 q 407 69 375 82 q 504 50 438 56 l 492 0 l -41 0 m 576 1153 q 543 1072 576 1105 q 463 1039 510 1039 q 382 1072 415 1039 q 349 1153 349 1105 q 382 1234 349 1200 q 463 1267 415 1267 q 543 1234 510 1267 q 576 1153 576 1200 z "},"":{"ha":907,"x_min":-29,"x_max":930,"o":"m 351 -25 q 207 -1 274 -21 q 87 47 140 18 l 28 0 l -29 0 l 43 348 l 101 348 q 131 242 109 297 q 187 145 153 188 q 273 72 221 101 q 393 43 326 43 q 550 91 491 43 q 609 216 609 138 q 575 304 609 267 q 467 370 542 342 q 375 402 420 387 q 291 435 331 418 q 172 530 212 469 q 132 661 132 591 q 161 783 132 724 q 245 888 190 842 q 377 961 298 933 q 551 988 456 988 q 707 965 629 988 q 821 922 784 943 l 871 962 l 930 962 l 860 634 l 802 634 q 776 743 793 692 q 730 834 760 793 q 660 897 702 873 q 557 920 617 920 q 419 874 475 920 q 364 758 364 828 q 397 673 364 709 q 503 609 431 636 q 591 577 545 593 q 679 543 637 560 q 803 454 758 510 q 848 321 848 398 q 815 185 848 249 q 722 75 782 121 q 583 3 663 29 q 410 -25 503 -24 l 401 -65 q 507 -87 467 -65 q 547 -153 547 -109 q 525 -226 547 -197 q 460 -271 503 -255 q 358 -294 418 -288 q 213 -301 299 -301 l 225 -248 q 294 -248 258 -248 q 353 -241 331 -247 q 394 -223 380 -236 q 408 -187 408 -210 q 384 -158 408 -165 q 323 -151 359 -151 l 351 -25 z "},"":{"ha":718,"x_min":7,"x_max":691,"o":"m 270 -22 q 142 -6 190 -20 q 65 27 95 7 q 20 74 32 49 q 7 120 7 98 q 37 189 7 159 q 115 218 66 218 q 183 197 156 218 q 229 144 211 176 q 258 80 246 115 q 274 28 269 45 q 390 61 351 28 q 429 151 429 94 q 417 193 429 176 q 386 222 406 210 q 336 246 366 235 q 275 268 305 258 q 145 345 193 296 q 98 467 98 394 q 118 549 98 511 q 180 620 138 587 q 287 670 222 651 q 437 688 351 688 q 533 682 489 688 q 615 660 577 676 q 671 617 651 644 q 691 554 691 591 q 663 490 691 517 q 589 463 635 463 q 524 484 550 463 q 481 532 498 504 q 456 590 465 560 q 440 641 446 621 q 354 607 393 638 q 315 528 315 575 q 324 484 315 500 q 349 456 333 467 q 393 434 366 444 q 460 410 420 423 q 599 332 552 377 q 646 212 646 286 q 623 118 646 163 q 558 43 600 73 q 462 -2 516 14 q 329 -22 408 -18 l 319 -65 q 426 -87 386 -65 q 466 -153 466 -109 q 444 -226 466 -197 q 379 -271 421 -255 q 277 -294 336 -288 q 132 -301 218 -301 l 144 -248 q 213 -248 176 -248 q 272 -241 250 -247 q 312 -223 298 -236 q 326 -187 326 -210 q 302 -158 326 -165 q 241 -151 278 -151 l 270 -22 z "},"":{"ha":994,"x_min":59,"x_max":1065,"o":"m 489 -26 q 317 2 396 -26 q 180 81 237 29 q 91 207 123 132 q 59 374 59 281 q 105 608 59 498 q 234 804 151 718 q 430 938 314 887 q 675 988 545 988 q 835 969 754 988 q 956 925 916 950 l 1006 962 l 1065 962 l 990 611 l 930 611 q 849 845 917 765 q 673 926 781 926 q 528 879 595 926 q 410 735 462 832 q 346 550 368 655 q 324 352 324 444 q 390 141 324 216 q 566 66 456 66 q 746 120 663 66 q 905 277 829 174 l 958 241 q 878 140 924 190 q 773 54 832 90 q 646 -5 711 15 q 489 -26 581 -26 m 869 1199 q 851 1152 869 1171 q 800 1120 833 1134 q 686 1077 762 1105 q 510 1007 610 1049 l 488 1035 q 594 1137 557 1101 q 670 1215 631 1173 q 719 1255 695 1243 q 770 1267 743 1267 q 841 1248 814 1267 q 869 1199 869 1230 z "},"":{"ha":744,"x_min":47,"x_max":733,"o":"m 378 -22 q 135 56 222 -22 q 47 270 47 134 q 75 426 47 352 q 161 559 103 499 q 298 652 214 616 q 486 688 382 688 q 670 644 606 688 q 733 523 733 600 q 726 476 733 502 q 706 433 720 450 q 669 399 689 411 q 609 388 649 388 q 527 414 556 388 q 497 469 497 440 q 511 536 497 503 q 547 606 526 569 q 523 624 541 613 q 474 635 504 635 q 342 539 395 635 q 290 301 290 443 q 330 138 290 193 q 443 82 370 82 q 567 111 517 82 q 669 210 617 140 l 718 168 q 571 30 663 82 q 378 -22 479 -22 m 673 990 q 660 941 673 960 q 615 903 646 922 q 510 841 582 881 q 347 747 438 802 l 319 772 q 411 899 378 852 q 467 979 444 946 q 523 1035 496 1021 q 589 1050 549 1050 q 647 1032 621 1050 q 673 990 673 1015 z "},"":{"ha":994,"x_min":59,"x_max":1065,"o":"m 489 -26 q 317 2 396 -26 q 180 81 237 29 q 91 207 123 132 q 59 374 59 281 q 105 608 59 498 q 234 804 151 718 q 430 938 314 887 q 675 988 545 988 q 835 969 754 988 q 956 925 916 950 l 1006 962 l 1065 962 l 990 611 l 930 611 q 849 845 917 765 q 673 926 781 926 q 528 879 595 926 q 410 735 462 832 q 346 550 368 655 q 324 352 324 444 q 390 141 324 216 q 566 66 456 66 q 746 120 663 66 q 905 277 829 174 l 958 241 q 878 140 924 190 q 773 54 832 90 q 646 -5 711 15 q 489 -26 581 -26 m 959 1247 q 835 1124 885 1172 q 760 1051 785 1076 q 719 1020 739 1029 q 659 1010 700 1010 q 605 1020 621 1010 q 575 1048 589 1029 q 531 1113 552 1082 q 443 1247 511 1145 l 466 1267 l 676 1133 l 937 1267 l 959 1247 z "},"":{"ha":744,"x_min":47,"x_max":758,"o":"m 378 -22 q 135 56 222 -22 q 47 270 47 134 q 75 426 47 352 q 161 559 103 499 q 298 652 214 616 q 486 688 382 688 q 670 644 606 688 q 733 523 733 600 q 726 476 733 502 q 706 433 720 450 q 669 399 689 411 q 609 388 649 388 q 527 414 556 388 q 497 469 497 440 q 511 536 497 503 q 547 606 526 569 q 523 624 541 613 q 474 635 504 635 q 342 539 395 635 q 290 301 290 443 q 330 138 290 193 q 443 82 370 82 q 567 111 517 82 q 669 210 617 140 l 718 168 q 571 30 663 82 q 378 -22 479 -22 m 758 1031 q 645 888 694 950 q 562 791 596 825 q 517 757 538 765 q 461 749 496 749 q 406 759 422 749 q 377 788 389 769 q 321 892 353 825 q 255 1031 289 960 l 292 1051 l 479 879 l 723 1051 l 758 1031 z "},"":{"ha":920,"x_min":44,"x_max":1046,"o":"m 519 85 l 514 85 q 469 47 490 64 q 413 14 447 31 q 351 -12 381 -3 q 281 -21 321 -21 q 104 48 163 -21 q 44 239 44 118 q 165 553 44 422 q 452 684 286 684 q 557 670 514 684 q 627 635 600 657 l 661 783 l 393 783 l 408 846 l 675 846 q 682 881 680 869 q 684 899 684 892 q 672 937 684 922 q 640 962 661 953 q 596 975 621 970 q 543 982 572 979 l 555 1032 l 935 1050 l 943 1039 l 898 846 l 1046 846 l 1031 783 l 883 783 l 760 250 q 749 198 755 231 q 743 150 743 166 q 760 97 743 111 q 821 82 777 82 q 866 90 840 82 q 904 102 893 97 l 889 41 q 782 0 822 14 q 689 -14 742 -14 q 577 14 619 -14 q 519 85 536 41 m 598 514 q 594 549 598 531 q 576 583 589 567 q 545 610 564 600 q 493 620 526 620 q 347 501 406 620 q 287 236 287 382 q 292 174 287 203 q 309 126 297 146 q 341 94 321 105 q 393 82 362 82 q 457 101 425 82 q 513 146 488 119 l 598 514 z "},"":{"ha":977,"x_min":140,"x_max":1143,"o":"m 1143 1169 l 1124 1088 l 140 1088 l 159 1169 l 1143 1169 z "},"":{"ha":469,"x_min":115,"x_max":382,"o":"m 382 370 q 343 277 382 317 q 249 238 303 238 q 154 277 194 238 q 115 370 115 316 q 154 464 115 425 q 249 504 194 504 q 343 464 303 504 q 382 370 382 424 z "},"":{"ha":1053,"x_min":-118,"x_max":1023,"o":"m 605 387 l 546 738 l 326 387 l 605 387 m 496 0 l 508 50 q 617 67 578 55 q 656 93 656 79 q 654 114 656 105 q 651 134 653 123 l 617 323 l 286 323 q 244 257 269 298 q 203 187 220 216 q 173 124 177 141 q 168 102 168 107 q 200 69 168 82 q 298 50 232 56 l 286 0 l -118 0 l -106 50 q -57 56 -87 51 q -7 73 -27 62 q 47 111 22 87 q 94 169 72 135 q 347 560 231 380 q 614 976 462 739 l 748 976 q 834 473 800 672 q 895 141 869 275 q 908 104 898 121 q 939 73 918 87 q 979 56 956 62 q 1023 50 1002 51 l 1011 0 l 496 0 m 951 1256 q 851 1100 920 1162 q 672 1038 782 1038 q 533 1090 583 1038 q 484 1225 484 1143 q 485 1242 484 1234 q 486 1256 486 1250 l 536 1267 q 577 1186 541 1217 q 695 1155 614 1155 q 822 1183 770 1155 q 905 1267 873 1212 l 951 1256 z "},"":{"ha":917,"x_min":44,"x_max":901,"o":"m 515 85 l 510 85 q 465 47 486 64 q 411 14 444 31 q 351 -11 382 -1 q 281 -21 319 -21 q 104 48 163 -21 q 44 239 44 118 q 77 413 44 332 q 166 556 111 494 q 298 653 222 617 q 456 688 373 688 q 563 674 517 688 q 638 635 609 660 l 846 678 l 856 667 l 756 250 q 745 198 751 229 q 739 150 739 166 q 756 97 739 111 q 817 82 774 82 q 863 90 836 82 q 901 102 890 97 l 886 41 q 778 0 819 14 q 685 -14 738 -14 q 573 14 615 -14 q 515 85 532 41 m 596 515 q 592 550 596 530 q 578 585 588 570 q 546 611 566 602 q 497 621 526 621 q 415 588 452 621 q 348 503 377 556 q 303 379 319 450 q 287 236 287 309 q 292 174 287 203 q 309 126 297 146 q 341 94 321 105 q 393 82 362 82 q 455 101 425 82 q 509 146 484 119 l 596 515 m 772 1039 q 667 839 732 907 q 501 770 602 770 q 367 830 411 770 q 323 1001 323 890 q 324 1022 323 1012 q 325 1039 325 1031 l 375 1050 q 386 988 379 1018 q 408 936 393 958 q 450 900 425 913 q 522 887 475 887 q 598 900 567 887 q 652 934 629 912 q 693 987 675 956 q 726 1050 711 1018 l 772 1039 z "},"":{"ha":1053,"x_min":-118,"x_max":1023,"o":"m 605 387 l 546 738 l 326 387 l 605 387 m 496 0 l 508 50 q 617 67 578 55 q 656 93 656 79 q 654 114 656 105 q 651 134 653 123 l 617 323 l 286 323 q 244 257 269 298 q 203 187 220 216 q 173 124 177 141 q 168 102 168 107 q 200 69 168 82 q 298 50 232 56 l 286 0 l -118 0 l -106 50 q -57 56 -87 51 q -7 73 -27 62 q 47 111 22 87 q 94 169 72 135 q 347 560 231 380 q 614 976 462 739 l 748 976 q 834 473 800 672 q 895 141 869 275 q 908 104 898 121 q 939 73 918 87 q 979 56 956 62 q 1023 50 1002 51 l 1011 0 l 846 0 q 773 -93 798 -48 q 749 -172 749 -137 q 779 -224 749 -206 q 869 -249 808 -242 l 859 -301 q 659 -273 718 -301 q 600 -192 600 -244 q 642 -91 600 -136 q 764 0 684 -45 l 496 0 z "},"":{"ha":917,"x_min":44,"x_max":901,"o":"m 515 85 l 510 85 q 465 47 486 64 q 411 14 444 31 q 351 -11 382 -1 q 281 -21 319 -21 q 104 48 163 -21 q 44 239 44 118 q 77 413 44 332 q 166 556 111 494 q 298 653 222 617 q 456 688 373 688 q 563 674 517 688 q 638 635 609 660 l 846 678 l 856 667 l 756 250 q 745 198 751 229 q 739 150 739 166 q 756 97 739 111 q 817 82 774 82 q 863 90 836 82 q 901 102 890 97 l 886 41 q 809 12 841 23 q 748 -6 778 0 q 681 -93 705 -49 q 656 -172 656 -137 q 686 -224 656 -206 q 777 -249 716 -242 l 767 -301 q 567 -273 626 -301 q 508 -192 508 -244 q 552 -90 508 -136 q 652 -12 596 -43 q 563 23 597 -5 q 515 85 528 51 m 596 515 q 592 550 596 530 q 578 585 588 570 q 546 611 566 602 q 497 621 526 621 q 415 588 452 621 q 348 503 377 556 q 303 379 319 450 q 287 236 287 309 q 292 174 287 203 q 309 126 297 146 q 341 94 321 105 q 393 82 362 82 q 455 101 425 82 q 509 146 484 119 l 596 515 z "},"":{"ha":1158,"x_min":-37,"x_max":1143,"o":"m 982 884 q 1100 762 1057 838 q 1143 583 1143 686 q 1092 345 1143 454 q 948 159 1041 236 q 734 41 856 82 q 465 0 612 0 l -37 0 l -26 50 q 25 54 -9 50 q 75 63 58 58 q 115 90 101 72 q 134 132 129 109 l 290 805 q 294 829 293 819 q 296 843 296 838 q 267 887 296 871 q 173 913 238 903 l 184 962 l 677 962 q 834 944 753 962 q 982 884 914 926 m 781 237 q 852 415 829 319 q 876 617 876 512 q 816 826 876 749 q 636 904 756 904 q 589 903 612 904 q 552 901 566 902 l 386 179 q 381 154 383 169 q 379 134 379 140 q 411 75 379 91 q 499 58 442 58 q 663 107 591 58 q 781 237 734 156 m 924 1247 q 800 1124 850 1172 q 725 1051 750 1076 q 684 1020 703 1029 q 624 1010 665 1010 q 569 1020 585 1010 q 540 1048 553 1029 q 496 1113 517 1082 q 408 1247 475 1145 l 431 1267 l 641 1133 l 902 1267 l 924 1247 z "},"":{"ha":1147,"x_min":44,"x_max":1275,"o":"m 519 85 l 514 85 q 469 47 490 64 q 413 14 447 31 q 351 -12 381 -3 q 281 -21 321 -21 q 104 48 163 -21 q 44 239 44 118 q 77 413 44 332 q 165 556 109 494 q 295 653 220 617 q 453 688 370 688 q 557 675 515 688 q 627 640 600 662 l 677 861 q 681 881 680 870 q 683 899 683 892 q 671 937 683 922 q 640 962 660 953 q 596 975 621 970 q 543 982 572 979 l 555 1032 l 935 1050 l 943 1039 l 760 250 q 749 198 755 231 q 743 150 743 166 q 760 97 743 111 q 821 82 777 82 q 866 90 840 82 q 904 102 893 97 l 889 41 q 782 0 822 14 q 689 -14 742 -14 q 577 14 619 -14 q 519 85 536 41 m 600 519 q 595 554 600 536 q 578 588 591 572 q 546 615 565 605 q 494 625 527 625 q 413 592 451 625 q 347 505 376 560 q 303 382 319 453 q 287 236 287 311 q 292 174 287 203 q 309 126 297 146 q 341 94 321 105 q 393 82 362 82 q 457 101 425 82 q 513 146 488 119 l 600 519 m 1275 915 q 1185 711 1275 808 q 966 562 1095 613 l 947 610 q 1018 647 978 623 q 1081 692 1057 670 q 1130 747 1108 716 q 1164 817 1152 777 l 1126 817 q 1038 839 1067 817 q 1009 901 1009 861 q 1053 995 1009 953 q 1156 1038 1096 1038 q 1247 1003 1219 1038 q 1275 915 1275 969 z "},"":{"ha":1158,"x_min":-37,"x_max":1143,"o":"m 982 884 q 1100 762 1057 838 q 1143 583 1143 686 q 1092 345 1143 454 q 948 159 1041 236 q 734 41 856 82 q 465 0 612 0 l -37 0 l -26 50 q 25 54 -9 50 q 75 63 58 58 q 115 90 101 72 q 134 132 129 109 l 212 467 l 79 467 l 95 535 l 227 535 l 290 805 q 294 829 293 819 q 296 843 296 838 q 267 887 296 871 q 173 913 238 903 l 184 962 l 677 962 q 834 944 753 962 q 982 884 914 926 m 876 617 q 816 826 876 749 q 636 904 756 904 q 589 903 612 904 q 552 901 566 902 l 468 535 l 674 535 l 659 467 l 452 467 l 386 179 q 381 154 384 169 q 379 134 379 140 q 411 75 379 91 q 499 58 442 58 q 663 107 591 58 q 781 237 734 156 q 852 415 829 319 q 876 617 876 512 z "},"":{"ha":1002,"x_min":-37,"x_max":1031,"o":"m 1031 962 l 975 717 l 923 717 q 877 835 913 781 q 801 898 841 889 q 746 904 782 903 q 686 905 710 905 l 553 905 l 467 528 l 559 528 q 638 539 610 528 q 692 571 667 551 q 737 627 711 587 q 773 696 762 667 l 825 696 l 732 294 l 680 294 l 680 319 q 674 382 680 350 q 659 427 667 414 q 612 461 641 453 q 545 470 583 470 l 453 470 l 391 202 q 382 158 387 182 q 378 124 378 134 q 407 70 378 81 q 512 58 435 58 q 654 67 610 58 q 722 93 699 75 q 819 197 762 127 q 897 300 876 267 l 946 300 l 859 0 l 778 0 q 706 -93 730 -48 q 681 -172 681 -137 q 711 -224 681 -206 q 801 -249 741 -242 l 791 -301 q 591 -273 650 -301 q 532 -192 532 -244 q 574 -91 532 -136 q 696 0 616 -45 l -37 0 l -26 50 q 25 54 -9 50 q 75 63 58 58 q 115 90 101 72 q 134 132 129 109 l 290 805 q 294 829 293 819 q 296 843 296 838 q 267 887 296 871 q 173 913 238 903 l 184 962 l 1031 962 z "},"":{"ha":774,"x_min":47,"x_max":744,"o":"m 370 -22 q 228 0 289 -22 q 126 61 166 22 q 67 153 87 100 q 47 268 47 205 q 77 423 47 348 q 166 559 107 498 q 307 652 222 616 q 496 688 393 688 q 681 650 617 688 q 744 534 744 611 q 689 407 744 460 q 540 328 634 353 q 413 296 465 305 q 284 278 360 286 q 292 211 286 248 q 313 147 299 174 q 359 99 329 117 q 435 81 389 81 q 571 112 515 81 q 677 210 627 142 l 727 168 q 650 84 694 122 q 556 22 606 47 q 466 -85 495 -36 q 437 -172 437 -134 q 467 -224 437 -206 q 557 -249 496 -242 l 547 -301 q 347 -273 406 -301 q 288 -192 288 -244 q 322 -101 288 -143 q 420 -19 356 -59 q 397 -21 411 -20 q 370 -22 382 -22 m 524 515 q 503 603 524 572 q 444 634 481 634 q 346 549 392 634 q 286 334 299 464 q 366 346 326 338 q 428 363 405 353 q 501 421 479 386 q 524 515 524 456 z "},"":{"ha":1002,"x_min":-37,"x_max":1031,"o":"m 1031 962 l 975 717 l 923 717 q 877 835 913 781 q 801 898 841 889 q 746 904 782 903 q 686 905 710 905 l 553 905 l 467 528 l 559 528 q 638 539 610 528 q 692 571 667 551 q 737 627 711 587 q 773 696 762 667 l 825 696 l 732 294 l 680 294 l 680 319 q 674 382 680 350 q 659 427 667 414 q 612 461 641 453 q 545 470 583 470 l 453 470 l 391 202 q 382 158 387 182 q 378 124 378 134 q 407 70 378 81 q 512 58 435 58 q 654 67 610 58 q 722 93 699 75 q 819 197 762 127 q 897 300 876 267 l 946 300 l 859 0 l -37 0 l -26 50 q 25 54 -9 50 q 75 63 58 58 q 115 90 101 72 q 134 132 129 109 l 290 805 q 294 829 293 819 q 296 843 296 838 q 267 887 296 871 q 173 913 238 903 l 184 962 l 1031 962 m 917 1247 q 793 1124 843 1172 q 718 1051 743 1076 q 677 1020 696 1029 q 617 1010 658 1010 q 563 1020 578 1010 q 533 1048 547 1029 q 489 1113 510 1082 q 401 1247 469 1145 l 424 1267 l 634 1133 l 895 1267 l 917 1247 z "},"":{"ha":774,"x_min":47,"x_max":753,"o":"m 370 -22 q 228 0 289 -22 q 126 61 166 22 q 67 153 87 100 q 47 268 47 205 q 77 423 47 348 q 166 559 107 498 q 307 652 222 616 q 496 688 393 688 q 681 650 617 688 q 744 534 744 611 q 689 407 744 460 q 540 328 634 353 q 413 296 465 305 q 284 278 360 286 q 292 211 286 248 q 313 147 299 174 q 359 99 329 117 q 435 81 389 81 q 571 112 515 81 q 677 210 627 142 l 727 168 q 571 30 666 81 q 370 -22 475 -22 m 524 515 q 503 603 524 572 q 444 634 481 634 q 346 549 392 634 q 286 334 299 464 q 366 346 326 338 q 428 363 405 353 q 501 421 479 386 q 524 515 524 456 m 753 1031 q 640 888 689 950 q 557 791 591 825 q 512 757 533 765 q 456 749 491 749 q 401 759 418 749 q 372 788 385 769 q 316 892 349 825 q 250 1031 284 960 l 287 1051 l 474 879 l 718 1051 l 753 1031 z "},"":{"ha":952,"x_min":-37,"x_max":939,"o":"m 939 309 l 849 0 l -37 0 l -26 50 q 25 55 -9 50 q 75 64 58 59 q 115 91 102 73 q 134 132 129 109 l 290 805 q 294 829 293 819 q 296 843 296 838 q 267 887 296 871 q 173 913 238 903 l 184 962 l 713 962 l 702 913 q 646 906 680 911 q 595 896 612 901 q 553 868 566 887 q 535 827 541 848 l 388 187 q 380 149 383 168 q 378 120 378 130 q 407 70 378 81 q 524 58 435 58 q 632 66 578 58 q 712 96 686 75 q 806 194 754 130 q 890 309 857 257 l 939 309 m 767 1199 q 749 1152 767 1171 q 699 1120 732 1134 q 585 1077 661 1105 q 408 1007 509 1049 l 386 1035 q 493 1137 456 1101 q 568 1215 530 1173 q 617 1255 593 1243 q 668 1267 642 1267 q 740 1248 712 1267 q 767 1199 767 1230 z "},"":{"ha":492,"x_min":81,"x_max":576,"o":"m 486 951 l 323 245 q 312 193 319 226 q 306 145 306 161 q 326 92 306 106 q 391 77 345 77 q 437 84 408 77 q 478 97 466 92 l 463 36 q 353 -4 396 9 q 256 -18 311 -18 q 128 21 175 -18 q 81 122 81 61 q 86 174 81 147 q 96 227 90 201 l 222 776 q 226 797 224 787 q 227 814 227 808 q 219 853 227 839 q 195 876 211 867 q 157 888 178 885 q 109 895 136 892 l 121 945 l 478 962 l 486 951 m 576 1199 q 558 1152 576 1171 q 507 1120 541 1134 q 393 1077 469 1105 q 217 1007 317 1049 l 195 1035 q 301 1137 264 1101 q 377 1215 338 1173 q 426 1255 402 1243 q 477 1267 450 1267 q 548 1248 521 1267 q 576 1199 576 1230 z "},"":{"ha":952,"x_min":-37,"x_max":1019,"o":"m 939 309 l 849 0 l -37 0 l -26 50 q 25 55 -9 50 q 75 64 58 59 q 115 91 102 73 q 134 132 129 109 l 290 805 q 294 829 293 819 q 296 843 296 838 q 267 887 296 871 q 173 913 238 903 l 184 962 l 713 962 l 702 913 q 646 906 680 911 q 595 896 612 901 q 553 868 566 887 q 535 827 541 848 l 388 187 q 380 149 383 168 q 378 120 378 130 q 407 70 378 81 q 524 58 435 58 q 632 66 578 58 q 712 96 686 75 q 806 194 754 130 q 890 309 857 257 l 939 309 m 1019 850 q 929 646 1019 743 q 709 496 839 548 l 690 545 q 761 582 722 558 q 825 627 801 605 q 874 682 852 651 q 908 751 896 712 l 870 751 q 782 774 811 751 q 753 836 753 796 q 796 930 753 888 q 899 972 840 972 q 990 938 962 972 q 1019 850 1019 904 z "},"":{"ha":711,"x_min":81,"x_max":839,"o":"m 506 1039 l 323 245 q 312 193 319 226 q 306 145 306 161 q 326 92 306 106 q 391 77 345 77 q 437 84 408 77 q 478 97 466 92 l 463 36 q 353 -4 396 9 q 256 -18 311 -18 q 128 21 175 -18 q 81 122 81 61 q 86 174 81 147 q 96 227 90 201 l 242 863 q 246 885 245 875 q 248 902 248 895 q 239 941 248 926 q 215 964 231 955 q 178 976 199 972 q 129 982 157 979 l 141 1032 l 498 1050 l 506 1039 m 839 915 q 749 711 839 808 q 530 562 659 613 l 511 610 q 582 647 542 623 q 645 692 621 670 q 694 747 672 716 q 728 817 716 777 l 690 817 q 602 839 631 817 q 573 901 573 861 q 616 995 573 953 q 720 1038 660 1038 q 811 1003 783 1038 q 839 915 839 969 z "},"":{"ha":952,"x_min":-37,"x_max":939,"o":"m 939 309 l 849 0 l -37 0 l -26 50 q 25 55 -9 50 q 75 64 58 59 q 115 91 102 73 q 134 132 129 109 l 290 805 q 294 829 293 819 q 296 843 296 838 q 267 887 296 871 q 173 913 238 903 l 184 962 l 713 962 l 702 913 q 646 906 680 911 q 595 896 612 901 q 553 868 566 887 q 535 827 541 848 l 388 187 q 380 149 383 168 q 378 120 378 130 q 407 70 378 81 q 524 58 435 58 q 632 66 578 58 q 712 96 686 75 q 806 194 754 130 q 890 309 857 257 l 939 309 m 939 520 q 900 427 939 467 q 806 388 860 388 q 711 427 751 388 q 671 520 671 466 q 711 614 671 574 q 806 654 751 654 q 900 614 860 654 q 939 520 939 574 z "},"":{"ha":759,"x_min":81,"x_max":773,"o":"m 506 1039 l 323 245 q 312 193 319 226 q 306 145 306 161 q 326 92 306 106 q 391 77 345 77 q 437 84 408 77 q 478 97 466 92 l 463 36 q 353 -4 396 9 q 256 -18 311 -18 q 128 21 175 -18 q 81 122 81 61 q 86 174 81 147 q 96 227 90 201 l 242 863 q 246 885 245 875 q 248 902 248 895 q 239 941 248 926 q 215 964 231 955 q 178 976 199 972 q 129 982 157 979 l 141 1032 l 498 1050 l 506 1039 m 773 456 q 733 363 773 402 q 640 323 694 323 q 545 362 585 323 q 505 456 505 401 q 545 550 505 510 q 640 589 585 589 q 733 549 694 589 q 773 456 773 509 z "},"":{"ha":1152,"x_min":-60,"x_max":1277,"o":"m 1277 962 l 1265 913 q 1210 906 1246 911 q 1139 879 1174 901 q 1089 816 1110 861 q 1048 685 1069 771 l 889 -5 l 775 -5 l 359 766 l 250 284 q 236 213 241 246 q 231 160 231 180 q 237 117 231 132 q 252 92 242 102 q 307 64 268 76 q 365 50 346 53 l 353 0 l -60 0 l -49 50 q 9 59 -31 52 q 77 83 49 66 q 127 145 107 102 q 168 277 148 189 l 272 730 q 278 759 275 745 q 280 785 280 773 q 275 824 280 805 q 258 858 271 842 q 211 893 239 881 q 146 913 183 906 l 158 962 l 513 962 l 877 284 l 967 678 q 981 749 977 722 q 985 800 985 777 q 980 843 985 827 q 963 871 974 860 q 910 898 948 886 q 852 913 873 909 l 864 962 l 1277 962 m 964 1199 q 946 1152 964 1171 q 895 1120 928 1134 q 781 1077 857 1105 q 605 1007 705 1049 l 583 1035 q 689 1137 652 1101 q 765 1215 726 1173 q 814 1255 790 1243 q 865 1267 838 1267 q 936 1248 909 1267 q 964 1199 964 1230 z "},"":{"ha":958,"x_min":20,"x_max":939,"o":"m 939 104 l 924 43 q 817 2 857 16 q 724 -12 777 -12 q 598 29 643 -12 q 553 129 553 69 q 555 171 553 145 q 566 234 557 196 l 615 414 q 626 467 623 444 q 630 505 630 490 q 614 556 630 538 q 562 574 599 574 q 496 556 538 574 q 400 490 453 538 l 288 0 l 64 0 l 160 417 q 171 467 164 436 q 177 517 177 497 q 161 571 177 556 q 103 585 145 585 q 59 578 81 585 q 20 566 36 572 l 35 627 q 140 665 90 649 q 235 681 190 681 q 354 649 315 681 q 407 561 394 618 l 412 561 q 549 655 478 621 q 700 688 620 688 q 818 647 775 688 q 860 547 860 606 q 858 503 860 531 q 846 443 855 475 l 795 252 q 783 198 788 229 q 777 152 777 168 q 794 98 777 113 q 855 84 812 84 q 901 91 876 84 q 939 104 927 98 m 765 990 q 751 941 765 960 q 707 903 737 922 q 602 841 673 881 q 439 747 530 802 l 410 772 q 503 899 470 852 q 559 979 535 946 q 614 1035 588 1021 q 680 1050 641 1050 q 739 1032 713 1050 q 765 990 765 1015 z "},"":{"ha":1152,"x_min":-60,"x_max":1277,"o":"m 1277 962 l 1265 913 q 1210 906 1246 911 q 1139 879 1174 901 q 1089 816 1110 861 q 1048 685 1069 771 l 889 -5 l 775 -5 l 359 766 l 250 284 q 236 213 241 246 q 231 160 231 180 q 237 117 231 132 q 252 92 242 102 q 307 64 268 76 q 365 50 346 53 l 353 0 l -60 0 l -49 50 q 9 59 -31 52 q 77 83 49 66 q 127 145 107 102 q 168 277 148 189 l 272 730 q 278 759 275 745 q 280 785 280 773 q 275 824 280 805 q 258 858 271 842 q 211 893 239 881 q 146 913 183 906 l 158 962 l 513 962 l 877 284 l 967 678 q 981 749 977 722 q 985 800 985 777 q 980 843 985 827 q 963 871 974 860 q 910 898 948 886 q 852 913 873 909 l 864 962 l 1277 962 m 998 1247 q 874 1124 924 1172 q 800 1051 825 1076 q 759 1020 778 1029 q 699 1010 739 1010 q 644 1020 660 1010 q 614 1048 628 1029 q 571 1113 591 1082 q 482 1247 550 1145 l 505 1267 l 715 1133 l 977 1267 l 998 1247 z "},"":{"ha":958,"x_min":20,"x_max":939,"o":"m 939 104 l 924 43 q 817 2 857 16 q 724 -12 777 -12 q 598 29 643 -12 q 553 129 553 69 q 555 171 553 145 q 566 234 557 196 l 615 414 q 626 467 623 444 q 630 505 630 490 q 614 556 630 538 q 562 574 599 574 q 496 556 538 574 q 400 490 453 538 l 288 0 l 64 0 l 160 417 q 171 467 164 436 q 177 517 177 497 q 161 571 177 556 q 103 585 145 585 q 59 578 81 585 q 20 566 36 572 l 35 627 q 140 665 90 649 q 235 681 190 681 q 354 649 315 681 q 407 561 394 618 l 412 561 q 549 655 478 621 q 700 688 620 688 q 818 647 775 688 q 860 547 860 606 q 858 503 860 531 q 846 443 855 475 l 795 252 q 783 198 788 229 q 777 152 777 168 q 794 98 777 113 q 855 84 812 84 q 901 91 876 84 q 939 104 927 98 m 789 1031 q 677 888 726 950 q 594 791 628 825 q 549 757 570 765 q 493 749 528 749 q 438 759 454 749 q 409 788 421 769 q 353 892 385 825 q 287 1031 321 960 l 323 1051 l 511 879 l 755 1051 l 789 1031 z "},"":{"ha":1139,"x_min":59,"x_max":1152,"o":"m 1126 593 q 1081 358 1126 471 q 952 160 1035 244 q 753 24 867 74 q 493 -26 638 -26 q 181 83 303 -26 q 59 370 59 193 q 109 612 59 498 q 245 810 158 726 q 446 941 331 894 q 688 989 561 989 q 1003 882 880 989 q 1126 593 1126 774 m 772 238 q 840 442 818 332 q 863 659 863 552 q 815 854 863 783 q 673 926 768 926 q 525 870 591 926 q 415 726 460 814 q 347 525 370 637 q 323 302 323 413 q 370 110 323 182 q 513 37 418 37 q 662 94 595 37 q 772 238 728 151 m 1076 1120 q 971 1081 1025 1101 q 780 1007 918 1062 l 761 1035 q 877 1142 838 1104 q 953 1215 916 1180 q 1007 1255 981 1243 q 1058 1267 1032 1267 q 1126 1250 1101 1267 q 1152 1205 1152 1233 q 1132 1154 1152 1174 q 1076 1120 1112 1134 m 789 1202 q 769 1155 789 1174 q 712 1120 749 1135 q 613 1082 658 1099 q 416 1007 568 1065 l 397 1035 q 516 1144 477 1107 q 589 1215 554 1181 q 643 1255 618 1242 q 694 1267 669 1267 q 764 1250 740 1267 q 789 1202 789 1234 z "},"":{"ha":883,"x_min":45,"x_max":915,"o":"m 838 406 q 805 243 838 321 q 713 107 772 165 q 562 12 648 45 q 368 -22 475 -22 q 134 55 223 -22 q 45 265 45 132 q 79 433 45 355 q 173 568 113 510 q 319 657 233 624 q 507 690 406 690 q 749 615 661 690 q 838 406 838 540 m 599 483 q 572 600 599 562 q 494 637 545 637 q 399 595 442 637 q 328 473 355 553 q 294 327 304 406 q 284 187 284 249 q 311 68 284 105 q 390 31 338 31 q 486 77 446 31 q 551 189 527 122 q 587 333 574 254 q 599 483 599 412 m 833 907 q 737 847 794 882 q 580 742 680 812 l 559 766 q 666 897 625 841 q 731 983 707 953 q 801 1042 772 1034 q 857 1050 829 1050 q 897 1036 880 1050 q 915 1002 915 1021 q 889 950 915 974 q 833 907 863 926 m 559 907 q 463 847 520 882 q 306 742 406 812 l 286 766 q 392 897 351 841 q 457 983 433 953 q 527 1042 498 1034 q 583 1050 555 1050 q 623 1035 606 1050 q 641 1001 641 1021 q 615 950 641 973 q 559 907 589 926 z "},"":{"ha":1107,"x_min":-37,"x_max":1080,"o":"m 778 760 q 732 868 778 833 q 600 904 686 904 l 553 904 l 459 495 l 525 495 q 707 565 635 495 q 778 760 778 634 m 380 153 q 375 132 377 142 q 374 116 374 121 q 399 71 374 85 q 494 50 424 57 l 483 0 l -37 0 l -26 50 q 25 55 -9 50 q 75 64 58 59 q 115 91 101 73 q 134 132 129 109 l 290 805 q 294 829 293 819 q 296 843 296 838 q 267 887 296 871 q 173 913 238 903 l 184 962 l 715 962 q 963 916 880 962 q 1046 774 1046 869 q 966 586 1046 662 q 738 475 885 511 q 808 349 766 425 q 907 175 850 273 q 949 109 923 146 q 1004 62 975 72 q 1044 54 1019 57 q 1080 50 1069 50 l 1067 0 l 716 0 q 607 234 652 146 q 494 436 562 321 l 446 436 l 380 153 m 896 1199 q 878 1152 896 1171 q 827 1120 861 1134 q 713 1077 789 1105 q 537 1007 637 1049 l 515 1035 q 622 1137 585 1101 q 697 1215 659 1173 q 746 1255 722 1243 q 797 1267 770 1267 q 868 1248 841 1267 q 896 1199 896 1230 z "},"":{"ha":741,"x_min":20,"x_max":750,"o":"m 750 547 q 741 488 750 517 q 715 439 732 460 q 673 405 695 416 q 612 394 652 394 q 532 419 562 394 q 503 475 503 444 q 512 526 503 505 q 538 589 520 547 q 460 543 493 570 q 398 480 428 515 l 291 0 l 66 0 l 160 417 q 171 467 164 436 q 177 517 177 497 q 162 571 177 557 q 103 585 146 585 q 59 578 81 585 q 20 566 36 572 l 35 627 q 140 665 90 649 q 235 681 190 681 q 354 649 315 681 q 407 561 394 618 l 412 561 q 526 660 479 632 q 626 688 572 688 q 717 652 684 688 q 750 547 750 616 m 640 990 q 626 941 640 960 q 581 903 612 922 q 476 841 548 881 q 313 747 404 802 l 285 772 q 377 899 345 852 q 433 979 410 946 q 489 1035 463 1021 q 555 1050 515 1050 q 613 1032 587 1050 q 640 990 640 1015 z "},"":{"ha":1107,"x_min":-37,"x_max":1080,"o":"m 778 760 q 732 868 778 833 q 600 904 686 904 l 553 904 l 459 495 l 525 495 q 707 565 635 495 q 778 760 778 634 m 380 153 q 375 132 377 142 q 374 116 374 121 q 399 71 374 85 q 494 50 424 57 l 483 0 l -37 0 l -26 50 q 25 55 -9 50 q 75 64 58 59 q 115 91 101 73 q 134 132 129 109 l 290 805 q 294 829 293 819 q 296 843 296 838 q 267 887 296 871 q 173 913 238 903 l 184 962 l 715 962 q 963 916 880 962 q 1046 774 1046 869 q 966 586 1046 662 q 738 475 885 511 q 808 349 766 425 q 907 175 850 273 q 949 109 923 146 q 1004 62 975 72 q 1044 54 1019 57 q 1080 50 1069 50 l 1067 0 l 716 0 q 607 234 652 146 q 494 436 562 321 l 446 436 l 380 153 m 917 1247 q 793 1124 843 1172 q 718 1051 743 1076 q 677 1020 696 1029 q 617 1010 658 1010 q 563 1020 578 1010 q 533 1048 547 1029 q 489 1113 510 1082 q 401 1247 469 1145 l 424 1267 l 634 1133 l 895 1267 l 917 1247 z "},"":{"ha":741,"x_min":20,"x_max":750,"o":"m 750 547 q 741 488 750 517 q 715 439 732 460 q 673 405 695 416 q 612 394 652 394 q 532 419 562 394 q 503 475 503 444 q 512 526 503 505 q 538 589 520 547 q 460 543 493 570 q 398 480 428 515 l 291 0 l 66 0 l 160 417 q 171 467 164 436 q 177 517 177 497 q 162 571 177 557 q 103 585 146 585 q 59 578 81 585 q 20 566 36 572 l 35 627 q 140 665 90 649 q 235 681 190 681 q 354 649 315 681 q 407 561 394 618 l 412 561 q 526 660 479 632 q 626 688 572 688 q 717 652 684 688 q 750 547 750 616 m 685 1031 q 572 888 621 950 q 490 791 524 825 q 444 757 465 765 q 389 749 423 749 q 333 759 350 749 q 304 788 317 769 q 249 892 281 825 q 182 1031 216 960 l 219 1051 l 406 879 l 650 1051 l 685 1031 z "},"":{"ha":907,"x_min":-29,"x_max":930,"o":"m 390 -26 q 229 -6 310 -26 q 87 47 148 14 l 28 0 l -29 0 l 43 348 l 101 348 q 131 242 109 297 q 187 145 153 188 q 273 72 221 101 q 393 43 326 43 q 550 91 491 43 q 609 216 609 138 q 575 304 609 267 q 467 370 542 342 q 375 402 420 387 q 291 435 331 418 q 172 530 212 469 q 132 661 132 591 q 161 783 132 724 q 245 888 190 842 q 377 961 298 933 q 551 988 456 988 q 707 965 629 988 q 821 922 784 943 l 871 962 l 930 962 l 860 634 l 802 634 q 776 743 793 692 q 730 834 760 793 q 660 897 702 873 q 557 920 617 920 q 419 874 475 920 q 364 758 364 828 q 397 673 364 709 q 503 609 431 636 q 591 577 545 593 q 679 543 637 560 q 803 454 758 510 q 848 321 848 398 q 815 185 848 249 q 722 75 782 121 q 575 0 659 26 q 390 -26 491 -26 m 814 1199 q 797 1152 814 1171 q 746 1120 779 1134 q 632 1077 708 1105 q 456 1007 556 1049 l 433 1035 q 540 1137 503 1101 q 616 1215 577 1173 q 665 1255 641 1243 q 715 1267 689 1267 q 787 1248 760 1267 q 814 1199 814 1230 z "},"":{"ha":718,"x_min":7,"x_max":691,"o":"m 295 -22 q 154 -8 210 -22 q 65 27 98 5 q 20 74 32 49 q 7 120 7 98 q 37 189 7 159 q 115 218 66 218 q 183 197 156 218 q 229 144 211 176 q 258 80 246 115 q 274 28 269 45 q 390 61 351 28 q 429 151 429 94 q 417 193 429 176 q 386 222 406 210 q 336 246 366 235 q 275 268 305 258 q 145 345 193 296 q 98 467 98 394 q 118 549 98 511 q 180 620 138 587 q 287 670 222 651 q 437 688 351 688 q 533 682 489 688 q 615 660 577 676 q 671 617 651 644 q 691 554 691 591 q 663 490 691 517 q 589 463 635 463 q 524 484 550 463 q 481 532 498 504 q 456 590 465 560 q 440 641 446 621 q 354 607 393 638 q 315 528 315 575 q 324 484 315 500 q 349 456 333 467 q 393 434 366 444 q 460 410 420 423 q 599 332 552 377 q 646 212 646 286 q 623 118 646 163 q 558 43 600 73 q 450 -6 511 11 q 295 -22 389 -22 m 651 990 q 637 941 651 960 q 593 903 623 922 q 488 841 559 881 q 325 747 416 802 l 296 772 q 389 899 356 852 q 445 979 421 946 q 500 1035 474 1021 q 566 1050 527 1050 q 625 1032 599 1050 q 651 990 651 1015 z "},"":{"ha":950,"x_min":83,"x_max":1079,"o":"m 1079 962 l 1015 687 l 963 687 q 952 745 960 710 q 931 813 945 779 q 900 871 917 848 q 861 899 884 895 q 809 903 840 901 q 754 905 777 905 l 720 905 l 547 157 q 543 135 545 146 q 541 120 541 125 q 548 91 541 104 q 572 71 554 79 q 619 58 588 64 q 671 50 650 52 l 659 0 l 123 0 l 134 50 q 190 55 153 51 q 242 64 227 59 q 283 94 269 75 q 302 137 296 112 l 479 905 l 453 905 q 401 904 427 905 q 342 899 375 902 q 287 869 317 895 q 229 813 257 844 q 173 744 195 775 q 135 687 151 713 l 83 687 l 146 962 l 1079 962 m 275 -301 l 282 -258 q 337 -252 311 -256 q 379 -239 363 -248 q 410 -217 397 -231 q 429 -179 422 -203 l 390 -179 q 317 -166 337 -179 q 298 -123 298 -153 q 322 -67 298 -90 q 403 -45 347 -45 q 480 -72 454 -45 q 506 -144 506 -100 q 444 -261 506 -222 q 275 -301 382 -301 z "},"":{"ha":579,"x_min":72,"x_max":620,"o":"m 277 -18 q 146 22 195 -18 q 98 123 98 62 q 101 170 98 148 q 112 228 104 193 l 196 589 l 72 589 l 88 659 l 215 659 l 264 864 l 484 864 l 436 659 l 620 659 l 604 589 l 420 589 l 338 228 q 329 182 333 209 q 324 146 324 155 q 346 93 324 108 q 411 78 367 78 q 469 86 432 78 q 521 100 506 94 l 506 39 q 386 -3 446 12 q 277 -18 326 -18 m 153 -301 l 159 -258 q 214 -252 188 -256 q 256 -239 240 -248 q 287 -217 274 -231 q 306 -179 300 -203 l 267 -179 q 195 -166 214 -179 q 175 -123 175 -153 q 199 -67 175 -90 q 280 -45 224 -45 q 357 -72 331 -45 q 383 -144 383 -100 q 321 -261 383 -222 q 153 -301 259 -301 z "},"":{"ha":950,"x_min":83,"x_max":1079,"o":"m 1079 962 l 1015 687 l 963 687 q 952 745 960 710 q 931 813 945 779 q 900 871 917 848 q 861 899 884 895 q 809 903 840 901 q 754 905 777 905 l 720 905 l 547 157 q 543 135 545 146 q 541 120 541 125 q 548 91 541 104 q 572 71 554 79 q 619 58 588 64 q 671 50 650 52 l 659 0 l 123 0 l 134 50 q 190 55 153 51 q 242 64 227 59 q 283 94 269 75 q 302 137 296 112 l 479 905 l 453 905 q 401 904 427 905 q 342 899 375 902 q 287 869 317 895 q 229 813 257 844 q 173 744 195 775 q 135 687 151 713 l 83 687 l 146 962 l 1079 962 m 908 1247 q 784 1124 834 1172 q 709 1051 734 1076 q 668 1020 688 1029 q 608 1010 649 1010 q 554 1020 570 1010 q 524 1048 538 1029 q 480 1113 501 1082 q 392 1247 460 1145 l 415 1267 l 625 1133 l 886 1267 l 908 1247 z "},"":{"ha":579,"x_min":72,"x_max":785,"o":"m 277 -18 q 146 22 195 -18 q 98 123 98 62 q 101 170 98 148 q 112 228 104 193 l 196 589 l 72 589 l 88 659 l 215 659 l 264 864 l 484 864 l 436 659 l 620 659 l 604 589 l 420 589 l 338 228 q 329 182 333 209 q 324 146 324 155 q 346 93 324 108 q 411 78 367 78 q 469 86 432 78 q 521 100 506 94 l 506 39 q 386 -3 446 12 q 277 -18 326 -18 m 698 804 q 620 754 661 774 q 547 723 578 734 l 530 769 q 590 797 561 783 q 636 825 618 812 q 671 858 656 839 q 695 899 687 876 l 661 899 q 595 918 613 899 q 577 962 577 936 q 606 1026 577 996 q 684 1057 634 1057 q 761 1033 737 1057 q 785 966 785 1009 q 759 873 785 914 q 698 804 734 833 z "},"":{"ha":1158,"x_min":148,"x_max":1293,"o":"m 512 -26 q 242 42 336 -26 q 148 234 148 110 q 151 278 148 256 q 159 326 153 300 l 270 806 q 275 829 273 821 q 276 843 276 837 q 249 887 276 871 q 155 913 222 903 l 166 962 l 682 962 l 670 913 q 621 907 648 911 q 576 897 595 903 q 536 870 549 889 q 517 828 523 852 l 408 354 q 397 292 401 326 q 393 237 393 259 q 443 107 393 149 q 589 66 493 66 q 791 143 706 66 q 905 349 876 221 l 981 679 q 995 751 991 721 q 1000 801 1000 781 q 994 844 1000 827 q 977 871 988 861 q 921 898 960 886 q 865 913 882 910 l 876 962 l 1293 962 l 1282 913 q 1223 904 1261 911 q 1155 879 1185 897 q 1104 817 1125 862 q 1063 686 1084 772 l 980 324 q 815 65 941 156 q 512 -26 689 -26 m 770 953 q 648 988 693 953 q 602 1083 602 1023 q 668 1216 602 1164 q 825 1267 734 1267 q 945 1232 898 1267 q 993 1137 993 1197 q 928 1004 993 1056 q 770 953 863 953 m 890 1139 q 871 1197 890 1175 q 815 1219 852 1219 q 735 1180 766 1219 q 705 1083 705 1141 q 724 1023 705 1045 q 781 1000 743 1000 q 861 1040 831 1000 q 890 1139 890 1080 z "},"":{"ha":951,"x_min":23,"x_max":935,"o":"m 545 108 l 540 108 q 404 12 469 43 q 255 -20 340 -20 q 139 22 180 -20 q 98 122 98 63 q 100 165 98 143 q 113 226 102 186 l 163 416 q 175 468 168 435 q 181 517 181 501 q 166 569 181 554 q 106 585 151 585 q 62 578 85 585 q 23 565 39 571 l 38 626 q 143 664 93 648 q 238 680 193 680 q 362 640 319 680 q 406 540 406 600 q 404 495 406 528 q 393 435 401 463 l 343 254 q 332 203 336 231 q 328 163 328 176 q 343 113 328 132 q 395 94 358 94 q 465 116 421 94 q 551 179 509 138 l 663 669 l 880 678 l 888 669 l 791 252 q 780 199 787 232 q 774 151 774 167 q 791 98 774 112 q 852 83 808 83 q 898 91 872 83 q 935 103 924 98 l 920 42 q 813 2 853 16 q 720 -12 773 -12 q 601 21 646 -12 q 545 108 556 55 m 500 749 q 378 784 423 749 q 332 879 332 819 q 398 1011 332 960 q 555 1063 464 1063 q 675 1028 628 1063 q 723 933 723 993 q 658 800 723 852 q 500 749 593 749 m 620 935 q 601 993 620 971 q 545 1015 583 1015 q 466 976 496 1015 q 435 879 435 937 q 454 819 435 841 q 511 796 473 796 q 591 836 562 796 q 620 935 620 876 z "},"":{"ha":1158,"x_min":148,"x_max":1293,"o":"m 512 -26 q 242 42 336 -26 q 148 234 148 110 q 151 278 148 256 q 159 326 153 300 l 270 806 q 275 829 273 821 q 276 843 276 837 q 249 887 276 871 q 155 913 222 903 l 166 962 l 682 962 l 670 913 q 621 907 648 911 q 576 897 595 903 q 536 870 549 889 q 517 828 523 852 l 408 354 q 397 292 401 326 q 393 237 393 259 q 443 107 393 149 q 589 66 493 66 q 791 143 706 66 q 905 349 876 221 l 981 679 q 995 751 991 721 q 1000 801 1000 781 q 994 844 1000 827 q 977 871 988 861 q 921 898 960 886 q 865 913 882 910 l 876 962 l 1293 962 l 1282 913 q 1223 904 1261 911 q 1155 879 1185 897 q 1104 817 1125 862 q 1063 686 1084 772 l 980 324 q 815 65 941 156 q 512 -26 689 -26 m 1130 1120 q 1025 1081 1079 1101 q 834 1007 972 1062 l 815 1035 q 931 1142 892 1104 q 1007 1215 970 1180 q 1061 1255 1036 1243 q 1112 1267 1086 1267 q 1181 1250 1155 1267 q 1206 1205 1206 1233 q 1186 1154 1206 1174 q 1130 1120 1166 1134 m 843 1202 q 823 1155 843 1174 q 766 1120 803 1135 q 667 1082 712 1099 q 471 1007 622 1065 l 452 1035 q 570 1144 532 1107 q 644 1215 608 1181 q 697 1255 672 1242 q 749 1267 723 1267 q 819 1250 794 1267 q 843 1202 843 1234 z "},"":{"ha":951,"x_min":23,"x_max":935,"o":"m 545 108 l 540 108 q 404 12 469 43 q 255 -20 340 -20 q 139 22 180 -20 q 98 122 98 63 q 100 165 98 143 q 113 226 102 186 l 163 416 q 175 468 168 435 q 181 517 181 501 q 166 569 181 554 q 106 585 151 585 q 62 578 85 585 q 23 565 39 571 l 38 626 q 143 664 93 648 q 238 680 193 680 q 362 640 319 680 q 406 540 406 600 q 404 495 406 528 q 393 435 401 463 l 343 254 q 332 203 336 231 q 328 163 328 176 q 343 113 328 132 q 395 94 358 94 q 465 116 421 94 q 551 179 509 138 l 663 669 l 880 678 l 888 669 l 791 252 q 780 199 787 232 q 774 151 774 167 q 791 98 774 112 q 852 83 808 83 q 898 91 872 83 q 935 103 924 98 l 920 42 q 813 2 853 16 q 720 -12 773 -12 q 601 21 646 -12 q 545 108 556 55 m 846 907 q 751 847 808 882 q 593 742 694 812 l 573 766 q 679 897 638 841 q 745 983 720 953 q 814 1042 786 1034 q 870 1050 843 1050 q 911 1036 893 1050 q 928 1002 928 1021 q 902 950 928 974 q 846 907 876 926 m 572 907 q 477 847 534 882 q 319 742 420 812 l 299 766 q 405 897 364 841 q 471 983 446 953 q 541 1042 512 1034 q 596 1050 569 1050 q 637 1035 619 1050 q 654 1001 654 1021 q 628 950 654 973 q 572 907 602 926 z "},"":{"ha":958,"x_min":-66,"x_max":1060,"o":"m 1060 962 l 1050 921 l 246 59 l 476 59 q 634 70 590 59 q 702 104 677 81 q 798 209 747 146 q 887 325 849 271 l 938 325 l 830 0 l -66 0 l -56 41 l 748 903 l 551 903 q 457 900 486 903 q 399 884 428 896 q 318 823 368 873 q 187 669 268 772 l 132 669 l 230 962 l 1060 962 m 876 1199 q 858 1152 876 1171 q 807 1120 840 1134 q 693 1077 769 1105 q 517 1007 617 1049 l 494 1035 q 601 1137 564 1101 q 677 1215 638 1173 q 726 1255 702 1243 q 777 1267 750 1267 q 848 1248 821 1267 q 876 1199 876 1230 z "},"":{"ha":718,"x_min":-18,"x_max":735,"o":"m 735 669 l 725 620 l 245 57 q 294 56 269 56 q 351 56 319 56 q 400 56 376 56 q 466 60 425 57 q 512 79 492 63 q 544 118 532 96 q 577 175 553 135 q 616 246 602 214 l 663 246 l 615 0 l -18 0 l -6 56 l 467 612 l 387 612 q 302 610 328 612 q 243 595 277 608 q 190 545 220 587 q 138 453 159 504 l 90 453 l 132 669 l 735 669 m 656 990 q 642 941 656 960 q 597 903 628 922 q 492 841 564 881 q 330 747 420 802 l 301 772 q 393 899 361 852 q 450 979 426 946 q 505 1035 479 1021 q 571 1050 532 1050 q 630 1032 604 1050 q 656 990 656 1015 z "},"":{"ha":958,"x_min":-66,"x_max":1060,"o":"m 1060 962 l 1050 921 l 246 59 l 476 59 q 634 70 590 59 q 702 104 677 81 q 798 209 747 146 q 887 325 849 271 l 938 325 l 830 0 l -66 0 l -56 41 l 748 903 l 551 903 q 457 900 486 903 q 399 884 428 896 q 318 823 368 873 q 187 669 268 772 l 132 669 l 230 962 l 1060 962 m 734 1140 q 701 1059 734 1093 q 621 1026 668 1026 q 540 1059 573 1026 q 507 1140 507 1093 q 540 1221 507 1187 q 621 1254 573 1254 q 701 1221 668 1254 q 734 1140 734 1187 z "},"":{"ha":718,"x_min":-18,"x_max":735,"o":"m 735 669 l 725 620 l 245 57 q 294 56 269 56 q 351 56 319 56 q 400 56 376 56 q 466 60 425 57 q 512 79 492 63 q 544 118 532 96 q 577 175 553 135 q 616 246 602 214 l 663 246 l 615 0 l -18 0 l -6 56 l 467 612 l 387 612 q 302 610 328 612 q 243 595 277 608 q 190 545 220 587 q 138 453 159 504 l 90 453 l 132 669 l 735 669 m 568 915 q 534 834 568 867 q 454 801 501 801 q 373 834 406 801 q 340 915 340 867 q 373 996 340 962 q 454 1029 406 1029 q 534 996 501 1029 q 568 915 568 962 z "},"":{"ha":910,"x_min":-37,"x_max":1039,"o":"m 1039 962 l 972 674 l 922 674 q 878 818 912 747 q 803 897 844 889 q 750 903 779 901 q 688 905 722 905 l 553 905 l 380 153 q 376 135 378 146 q 374 115 374 125 q 407 69 374 80 q 509 50 439 58 l 497 0 l -37 0 l -26 50 q 31 56 -2 52 q 76 65 64 61 q 116 92 103 74 q 135 134 130 110 l 290 805 q 293 824 292 814 q 295 844 295 834 q 267 887 295 871 q 173 913 238 903 l 184 962 l 1039 962 z "},"":{"ha":1143,"x_min":59,"x_max":1131,"o":"m 1131 593 q 1084 358 1131 473 q 955 160 1038 243 q 755 24 870 74 q 495 -26 640 -26 q 182 83 305 -26 q 59 370 59 193 q 109 612 59 498 q 246 810 159 726 q 448 941 332 894 q 690 989 563 989 q 1005 882 880 989 q 1131 593 1131 774 m 779 232 q 849 431 825 320 q 874 659 874 543 q 823 853 874 781 q 675 926 771 926 q 527 874 593 926 q 412 733 460 822 q 341 534 366 648 q 315 302 315 419 q 367 110 315 184 q 515 37 418 37 q 666 91 598 37 q 779 232 733 145 m 809 647 l 732 315 l 690 315 q 691 325 690 320 q 691 334 691 330 q 689 361 691 349 q 682 383 688 372 q 656 399 675 395 q 576 404 637 404 q 495 400 516 404 q 463 383 475 396 q 441 355 447 367 q 422 315 435 343 l 380 315 l 457 647 l 499 647 q 499 637 499 642 q 498 628 498 632 q 500 600 498 610 q 508 580 502 590 q 533 563 515 567 q 612 559 551 559 q 693 564 668 559 q 727 580 718 568 q 748 608 741 597 q 767 647 755 618 l 809 647 z "},"":{"ha":1266,"x_min":60,"x_max":1264,"o":"m 1264 541 q 1233 395 1264 468 q 1137 265 1202 321 q 970 172 1068 207 q 726 138 873 138 l 699 138 q 694 109 696 124 q 692 90 692 94 q 720 50 692 60 q 814 36 749 39 l 803 -14 l 298 -14 l 310 36 q 358 40 327 37 q 404 49 390 43 q 440 73 427 58 q 458 113 453 88 l 463 136 q 169 214 277 136 q 60 433 60 292 q 89 580 60 511 q 185 708 118 649 q 352 799 248 764 q 595 833 456 833 l 624 833 q 627 851 626 844 q 629 867 629 859 q 602 909 629 896 q 515 929 574 922 l 526 979 l 1025 979 l 1013 929 q 967 925 994 928 q 919 916 940 922 q 881 890 893 907 q 860 834 869 872 q 1158 760 1051 834 q 1264 541 1264 686 m 949 330 q 996 453 980 387 q 1012 585 1012 519 q 1005 653 1012 616 q 981 715 998 690 q 930 759 962 743 q 848 776 899 776 l 714 195 l 739 195 q 863 233 810 195 q 949 330 916 270 m 610 776 l 585 776 q 461 738 513 776 q 375 642 409 700 q 328 517 343 586 q 312 388 312 448 q 317 319 312 349 q 343 258 323 290 q 395 212 362 229 q 476 195 429 195 l 610 776 z "},"":{"ha":943,"x_min":44,"x_max":932,"o":"m 545 123 q 431 9 491 41 q 285 -22 371 -22 q 112 53 180 -22 q 44 250 44 127 q 74 414 44 336 q 158 554 104 492 q 283 651 210 614 q 440 688 357 688 q 583 650 534 688 q 648 547 633 612 l 654 547 l 699 669 l 924 678 l 932 669 q 873 522 913 617 q 786 317 833 426 q 779 246 782 286 q 777 185 777 206 q 793 110 777 136 q 844 83 810 83 q 893 89 868 83 q 930 100 918 94 l 915 39 q 804 -1 853 14 q 697 -16 754 -16 q 588 13 625 -16 q 551 102 551 43 q 551 112 551 107 q 551 123 551 117 l 545 123 m 585 354 q 592 404 590 379 q 595 457 595 429 q 590 520 595 485 q 574 574 585 555 q 543 612 562 599 q 488 625 524 625 q 408 588 445 625 q 344 492 371 551 q 302 358 317 435 q 287 210 287 282 q 308 98 287 136 q 380 59 328 59 q 501 145 443 59 q 585 354 559 231 z "}}}
